<?xml version="1.0" encoding="utf-8"?>
<!-- Generator: Adobe Illustrator 19.2.1, SVG Export Plug-In . SVG Version: 6.00 Build 0)  -->
<svg version="1.1" id="Layer_1" xmlns="http://www.w3.org/2000/svg" xmlns:xlink="http://www.w3.org/1999/xlink" x="0px" y="0px"
	 viewBox="0 0 108 108" style="enable-background:new 0 0 108 108;" xml:space="preserve">
<style type="text/css">
	.st0{fill:#EDAA00;}
	.st1{fill:none;stroke:#FFFFFF;stroke-width:2.8347;stroke-linecap:round;stroke-linejoin:round;stroke-miterlimit:10;}
</style>
<g>
	<g>
		<rect class="st0" width="108" height="108"/>
		<g>
			<path class="st1" d="M81.4,84.2H61.9c-1.2,0-2.1-1-2.1-2.1V42.6c0-1.2,1-2.1,2.1-2.1h19.5c1.2,0,2.1,1,2.1,2.1V82
				C83.5,83.2,82.6,84.2,81.4,84.2z"/>
			<rect x="64.4" y="47.8" class="st1" width="14.4" height="29.1"/>
			<polyline class="st1" points="77.7,40.5 89.1,31 18.9,31 			"/>
			<polyline class="st1" points="59.7,76.9 18.9,76.9 18.9,31 54,60.3 59.7,55.5 			"/>
			<polyline class="st1" points="89.1,31 89.1,76.9 83.5,76.9 			"/>
		</g>
	</g>
</g>
</svg>
