<?xml version="1.0" encoding="utf-8"?>
<!-- Generator: Adobe Illustrator 19.2.1, SVG Export Plug-In . SVG Version: 6.00 Build 0)  -->
<svg version="1.1" id="Layer_1" xmlns="http://www.w3.org/2000/svg" xmlns:xlink="http://www.w3.org/1999/xlink" x="0px" y="0px"
	 viewBox="0 0 108 108" style="enable-background:new 0 0 108 108;" xml:space="preserve">
<style type="text/css">
	.st0{fill:#4E9D2D;}
	.st1{fill:none;stroke:#FFFFFF;stroke-width:2.8347;stroke-linecap:round;stroke-linejoin:round;stroke-miterlimit:10;}
</style>
<g>
	<g>
		<rect class="st0" width="108" height="108"/>
		<g>
			<path class="st1" d="M54,21.5c-9.3-6.2-22-5.1-30.3,3.1c-9.4,9.4-9.4,24.6,0,34"/>
			<line class="st1" x1="76.7" y1="66.2" x2="57.4" y2="46.9"/>
			<line class="st1" x1="69.1" y1="73.8" x2="49.8" y2="54.5"/>
			<path class="st1" d="M84.3,58.6"/>
			<path class="st1" d="M84.3,58.6c9.4-9.4,9.4-24.6,0-34s-24.6-9.4-34,0L32.5,42.3c4.2,4.2,10.9,4.2,15.1,0l10.2-10.2"/>
			<path class="st1" d="M38.9,58.6c2.1-2.1,2.1-5.5,0-7.6c-2.1-2.1-5.5-2.1-7.6,0l-7.6,7.6c-2.1,2.1-2.1,5.5,0,7.6
				c2.1,2.1,5.5,2.1,7.6,0L38.9,58.6z"/>
			<path class="st1" d="M46.4,66.2c2.1-2.1,2.1-5.5,0-7.6c-2.1-2.1-5.5-2.1-7.6,0l-7.6,7.6c-2.1,2.1-2.1,5.5,0,7.6
				c2.1,2.1,5.5,2.1,7.6,0L46.4,66.2z"/>
			<path class="st1" d="M54,73.8c2.1-2.1,2.1-5.5,0-7.6c-2.1-2.1-5.5-2.1-7.6,0l-7.6,7.6c-2.1,2.1-2.1,5.5,0,7.6
				c2.1,2.1,5.5,2.1,7.6,0L54,73.8z"/>
			<path class="st1" d="M61.6,81.3c2.1-2.1,2.1-5.5,0-7.6c-2.1-2.1-5.5-2.1-7.6,0l-7.6,7.6c-2.1,2.1-2.1,5.5,0,7.6
				c2.1,2.1,5.5,2.1,7.6,0L61.6,81.3z"/>
			<path class="st1" d="M61.6,81.3c2.1,2.1,2.1,5.5,0,7.6c-2.1,2.1-5.5,2.1-7.6,0"/>
			<path class="st1" d="M69.1,73.8c2.1,2.1,2.1,5.5,0,7.6c-2.1,2.1-5.5,2.1-7.6,0"/>
			<path class="st1" d="M76.7,66.2c2.1,2.1,2.1,5.5,0,7.6c-2.1,2.1-5.5,2.1-7.6,0"/>
			<path class="st1" d="M84.3,58.6c2.1,2.1,2.1,5.5,0,7.6c-2.1,2.1-5.5,2.1-7.6,0"/>
			<line class="st1" x1="57.8" y1="32.2" x2="84.3" y2="58.6"/>
		</g>
	</g>
</g>
</svg>
