<?xml version="1.0" encoding="utf-8"?>
<!-- Generator: Adobe Illustrator 22.1.0, SVG Export Plug-In . SVG Version: 6.00 Build 0)  -->
<svg version="1.1" id="SVG" xmlns="http://www.w3.org/2000/svg" xmlns:xlink="http://www.w3.org/1999/xlink" x="0px" y="0px"
	 viewBox="0 0 144 44" style="enable-background:new 0 0 144 44;" xml:space="preserve">
<style type="text/css">
	.st0{fill:#767AB7;}
	.st1{fill:#FFD980;}
	.st2{fill:#48CCC3;}
	.st3{fill:#ED4763;}
	.st4{fill:#FF59BA;}
	.st5{fill:#57D0F8;}
	.st6{fill:#9ABE43;}
	.st7{fill:#4181BB;}
	.st8{fill:#48CCCC;}
	.st9{fill:#FF6640;}
	.st10{fill:#FF8540;}
</style>
<path class="st9" d="M138,6v32H6V6H138 M144,0H0v44h144V0L144,0z"/>
<g>
	<path class="st9" d="M38.8,23.4c0.6,0.8,0.9,1.7,0.9,2.8c0,1.6-0.6,2.8-1.9,3.7c-1.2,0.9-3,1.3-5.4,1.3H23V13h8.9
		c2.2,0,3.9,0.4,5.1,1.3c1.2,0.8,1.8,2,1.8,3.5c0,0.9-0.2,1.7-0.6,2.4s-1,1.2-1.8,1.6C37.4,22.1,38.2,22.6,38.8,23.4z M27.2,16.2
		v4.3h4.2c1,0,1.8-0.2,2.4-0.5c0.5-0.4,0.8-0.9,0.8-1.6c0-0.7-0.3-1.2-0.8-1.6c-0.5-0.4-1.3-0.5-2.4-0.5H27.2z M34.6,27.5
		c0.6-0.4,0.8-0.9,0.8-1.7c0-1.5-1.1-2.3-3.4-2.3h-4.9V28h4.9C33.2,28,34.1,27.8,34.6,27.5z"/>
	<path class="st9" d="M54.4,31.2l-3.5-5.1h-0.2H47v5.1h-4.2V13h7.9c1.6,0,3,0.3,4.2,0.8c1.2,0.5,2.1,1.3,2.7,2.3c0.6,1,1,2.2,1,3.5
		c0,1.4-0.3,2.5-1,3.5c-0.6,1-1.6,1.7-2.8,2.2l4.1,5.8H54.4z M53.4,17.3c-0.7-0.5-1.6-0.8-2.9-0.8H47v6.3h3.4c1.3,0,2.2-0.3,2.9-0.8
		c0.7-0.6,1-1.3,1-2.3C54.3,18.6,54,17.8,53.4,17.3z"/>
	<path class="st9" d="M74.5,27.3h-8.4l-1.6,3.9h-4.3L68.3,13h4.2l8.1,18.2h-4.4L74.5,27.3z M73.2,24.1l-2.9-7l-2.9,7H73.2z"/>
	<path class="st9" d="M99.1,13v18.2h-3.5l-9.1-11v11h-4.2V13h3.5l9,11V13H99.1z"/>
	<path class="st9" d="M103.2,13h8.3c2,0,3.7,0.4,5.2,1.1s2.7,1.8,3.5,3.2s1.3,3,1.3,4.8c0,1.8-0.4,3.4-1.3,4.8
		c-0.8,1.4-2,2.4-3.5,3.2s-3.3,1.1-5.2,1.1h-8.3V13z M111.3,27.7c1.8,0,3.3-0.5,4.4-1.5c1.1-1,1.6-2.4,1.6-4.1s-0.5-3.1-1.6-4.1
		c-1.1-1-2.5-1.5-4.4-1.5h-3.8v11.3H111.3z"/>
</g>
</svg>
