<?xml version="1.0" encoding="utf-8"?>
<!-- Generator: Adobe Illustrator 22.1.0, SVG Export Plug-In . SVG Version: 6.00 Build 0)  -->
<svg version="1.1" id="SVG" xmlns="http://www.w3.org/2000/svg" xmlns:xlink="http://www.w3.org/1999/xlink" x="0px" y="0px"
	 viewBox="0 0 144 44" style="enable-background:new 0 0 144 44;" xml:space="preserve">
<style type="text/css">
	.st0{fill:#767AB7;}
	.st1{fill:#FFD980;}
	.st2{fill:#48CCC3;}
	.st3{fill:#ED4763;}
	.st4{fill:#FF59BA;}
	.st5{fill:#57D0F8;}
	.st6{fill:#9ABE43;}
	.st7{fill:#4181BB;}
	.st8{fill:#48CCCC;}
	.st9{fill:#FF6640;}
	.st10{fill:#FF8540;}
</style>
<path class="st2" d="M138,6v32H6V6H138 M144,0H0v44h144V0L144,0z"/>
<g>
	<path class="st8" d="M20.4,13.4h8.3c2,0,3.7,0.4,5.2,1.1s2.7,1.8,3.5,3.2s1.3,3,1.3,4.8c0,1.8-0.4,3.4-1.3,4.8
		c-0.8,1.4-2,2.4-3.5,3.2s-3.3,1.1-5.2,1.1h-8.3V13.4z M28.4,28.1c1.8,0,3.3-0.5,4.4-1.5c1.1-1,1.6-2.4,1.6-4.1s-0.5-3.1-1.6-4.1
		c-1.1-1-2.5-1.5-4.4-1.5h-3.8v11.3H28.4z"/>
	<path class="st8" d="M41.7,13.4h4.2v18.2h-4.2V13.4z"/>
	<path class="st8" d="M62.4,22.2h3.8v7.4c-1,0.7-2.1,1.3-3.4,1.7s-2.6,0.6-3.9,0.6c-1.9,0-3.6-0.4-5.1-1.2c-1.5-0.8-2.7-1.9-3.5-3.4
		c-0.9-1.4-1.3-3-1.3-4.8s0.4-3.4,1.3-4.8c0.9-1.4,2-2.5,3.6-3.4c1.5-0.8,3.2-1.2,5.1-1.2c1.6,0,3,0.3,4.3,0.8s2.4,1.3,3.3,2.3
		l-2.7,2.5c-1.3-1.4-2.9-2.1-4.7-2.1c-1.2,0-2.2,0.2-3.1,0.7c-0.9,0.5-1.6,1.2-2.1,2.1c-0.5,0.9-0.8,1.9-0.8,3c0,1.1,0.3,2.1,0.8,3
		c0.5,0.9,1.2,1.6,2.1,2.1c0.9,0.5,1.9,0.7,3.1,0.7c1.2,0,2.3-0.3,3.3-0.8V22.2z"/>
	<path class="st8" d="M70,13.4h4.2v18.2H70V13.4z"/>
	<path class="st8" d="M82.1,16.8h-5.8v-3.4h15.9v3.4h-5.8v14.8h-4.2V16.8z"/>
	<path class="st8" d="M104.4,27.7h-8.4l-1.6,3.9H90l8.1-18.2h4.2l8.1,18.2H106L104.4,27.7z M103,24.5l-2.9-7l-2.9,7H103z"/>
	<path class="st8" d="M112.2,13.4h4.2v14.8h9.1v3.4h-13.3V13.4z"/>
</g>
</svg>
