<?xml version="1.0" encoding="utf-8"?>
<!-- Generator: Adobe Illustrator 22.1.0, SVG Export Plug-In . SVG Version: 6.00 Build 0)  -->
<svg version="1.1" id="Layer_1" xmlns="http://www.w3.org/2000/svg" xmlns:xlink="http://www.w3.org/1999/xlink" x="0px" y="0px"
	 viewBox="0 0 69 44" style="enable-background:new 0 0 69 44;" xml:space="preserve">
<style type="text/css">
	.st0{fill:#767AB7;}
	.st1{fill:#FFD980;}
	.st2{fill:#48CCC3;}
	.st3{fill:#ED4763;}
	.st4{fill:#FF59BA;}
	.st5{fill:#57D0F8;}
	.st6{fill:#9ABE43;}
	.st7{fill:#4181BB;}
	.st8{fill:#48CCCC;}
	.st9{fill:#FF6640;}
	.st10{fill:#FF8540;}
</style>
<g>
	<path class="st0" d="M21.3,13.9c1.2,0.5,2.1,1.3,2.7,2.3c0.6,1,1,2.2,1,3.5c0,1.3-0.3,2.5-1,3.5c-0.6,1-1.6,1.8-2.7,2.3
		c-1.2,0.5-2.6,0.8-4.2,0.8h-3.7v5H9.2V13h7.9C18.7,13,20.1,13.3,21.3,13.9z M19.7,22c0.7-0.5,1-1.3,1-2.3c0-1-0.3-1.8-1-2.4
		c-0.7-0.5-1.6-0.8-2.9-0.8h-3.4v6.3h3.4C18.1,22.8,19.1,22.5,19.7,22z"/>
	<path class="st0" d="M43.3,13v18.2h-4.2v-7.5h-8.3v7.5h-4.2V13h4.2v7.2h8.3V13H43.3z"/>
	<path class="st0" d="M57.5,13.9c1.2,0.5,2.1,1.3,2.7,2.3c0.6,1,1,2.2,1,3.5c0,1.3-0.3,2.5-1,3.5c-0.6,1-1.6,1.8-2.7,2.3
		c-1.2,0.5-2.6,0.8-4.2,0.8h-3.7v5h-4.2V13h7.9C54.9,13,56.3,13.3,57.5,13.9z M55.9,22c0.7-0.5,1-1.3,1-2.3c0-1-0.3-1.8-1-2.4
		c-0.7-0.5-1.6-0.8-2.9-0.8h-3.4v6.3H53C54.3,22.8,55.3,22.5,55.9,22z"/>
</g>
<path class="st0" d="M63,6v32H6V6H63 M69,0H0v44h69V0L69,0z"/>
</svg>
