<?xml version="1.0" encoding="utf-8"?>
<!-- Generator: Adobe Illustrator 22.1.0, SVG Export Plug-In . SVG Version: 6.00 Build 0)  -->
<svg version="1.1" id="SVG" xmlns="http://www.w3.org/2000/svg" xmlns:xlink="http://www.w3.org/1999/xlink" x="0px" y="0px"
	 viewBox="0 0 69 44" style="enable-background:new 0 0 69 44;" xml:space="preserve">
<style type="text/css">
	.st0{fill:#767AB7;}
	.st1{fill:#FFD980;}
	.st2{fill:#48CCC3;}
	.st3{fill:#ED4763;}
	.st4{fill:#FF59BA;}
	.st5{fill:#57D0F8;}
	.st6{fill:#9ABE43;}
	.st7{fill:#4181BB;}
	.st8{fill:#48CCCC;}
	.st9{fill:#FF6640;}
	.st10{fill:#FF8540;}
</style>
<path class="st4" d="M63,6v32H6V6H63 M69,0H0v44h69V0L69,0z"/>
<g>
	<path class="st4" d="M23.5,13h4.2v18.2h-4.2V13z"/>
	<path class="st4" d="M31.5,16.5h7c1.6,0,3,0.3,4.3,0.9s2.2,1.5,2.9,2.6c0.7,1.1,1,2.4,1,3.9c0,1.5-0.3,2.8-1,3.9
		c-0.7,1.1-1.7,2-2.9,2.6c-1.2,0.6-2.7,0.9-4.3,0.9h-7V16.5z M38.3,27.9c1.3,0,2.3-0.4,3-1.1c0.8-0.7,1.1-1.7,1.1-3
		c0-1.3-0.4-2.2-1.1-3c-0.8-0.7-1.8-1.1-3-1.1h-2.6v8.1H38.3z"/>
</g>
</svg>
