<?xml version="1.0" encoding="utf-8"?>
<!-- Generator: Adobe Illustrator 22.1.0, SVG Export Plug-In . SVG Version: 6.00 Build 0)  -->
<svg version="1.1" xmlns="http://www.w3.org/2000/svg" xmlns:xlink="http://www.w3.org/1999/xlink" x="0px" y="0px"
	 viewBox="0 0 69 44" style="enable-background:new 0 0 69 44;" xml:space="preserve">
<style type="text/css">
	.st0{fill:#767AB7;}
	.st1{fill:#FFD980;}
	.st2{fill:#55C3BD;}
	.st3{fill:#ED4863;}
	.st4{fill:#FF5CA2;}
	.st5{fill:#7FC8E3;}
	.st6{fill:#9ABE43;}
	.st7{fill:#4181BC;}
	.st8{fill:#54C4C7;}
	.st9{fill:#F15842;}
	.st10{fill:#F48C3D;}
</style>
<g id="SVG">
	<path class="st5" d="M63,6v32H6V6H63 M69,0H0v44h69V0L69,0z"/>
	<g>
		<path class="st5" d="M32.6,13.8c1.2,0.5,2.1,1.3,2.7,2.3c0.6,1,1,2.2,1,3.5c0,1.3-0.3,2.5-1,3.5c-0.6,1-1.6,1.8-2.7,2.3
			c-1.2,0.5-2.6,0.8-4.2,0.8h-3.7v5h-4.2V13h7.9C30,13,31.4,13.3,32.6,13.8z M31,21.9c0.7-0.5,1-1.3,1-2.3c0-1-0.3-1.8-1-2.4
			c-0.7-0.5-1.6-0.8-2.9-0.8h-3.4v6.3h3.4C29.4,22.8,30.4,22.5,31,21.9z"/>
		<path class="st5" d="M40.5,31.1c-1.1-0.3-2-0.7-2.7-1.2l1.4-3.1c0.7,0.4,1.4,0.8,2.3,1s1.7,0.4,2.6,0.4c1.6,0,2.4-0.4,2.4-1.2
			c0-0.4-0.2-0.7-0.7-0.9s-1.2-0.4-2.2-0.6c-1.1-0.2-2-0.5-2.8-0.8c-0.7-0.3-1.4-0.7-1.9-1.3c-0.5-0.6-0.8-1.4-0.8-2.4
			c0-0.9,0.2-1.7,0.7-2.4s1.2-1.3,2.2-1.7c1-0.4,2.2-0.6,3.6-0.6c1,0,1.9,0.1,2.9,0.3c0.9,0.2,1.8,0.5,2.5,1l-1.3,3.1
			c-1.4-0.8-2.8-1.1-4.1-1.1c-0.8,0-1.4,0.1-1.8,0.4s-0.6,0.6-0.6,1c0,0.4,0.2,0.7,0.7,0.9c0.4,0.2,1.2,0.4,2.2,0.6
			c1.1,0.2,2,0.5,2.8,0.8c0.7,0.3,1.4,0.7,1.9,1.3c0.5,0.6,0.8,1.4,0.8,2.4c0,0.9-0.2,1.7-0.7,2.4c-0.5,0.7-1.2,1.3-2.2,1.7
			c-1,0.4-2.2,0.6-3.6,0.6C42.8,31.5,41.7,31.3,40.5,31.1z"/>
	</g>
</g>
<g id="other">
</g>
</svg>
