<?xml version="1.0" encoding="utf-8"?>
<!-- Generator: Adobe Illustrator 22.1.0, SVG Export Plug-In . SVG Version: 6.00 Build 0)  -->
<svg version="1.1" id="Layer_1" xmlns="http://www.w3.org/2000/svg" xmlns:xlink="http://www.w3.org/1999/xlink" x="0px" y="0px"
	 viewBox="0 0 108 144" style="enable-background:new 0 0 108 144;" xml:space="preserve">
<style type="text/css">
	.st0{fill:#767AB7;}
	.st1{fill:#FFD980;}
	.st2{fill:#48CCC3;}
	.st3{fill:#ED4763;}
	.st4{fill:#FF59BA;}
	.st5{fill:#57D0F8;}
	.st6{fill:#9ABE43;}
	.st7{fill:#4181BB;}
	.st8{fill:#48CCCC;}
	.st9{fill:#FF6640;}
	.st10{fill:#FF8540;}
</style>
<g>
	<path class="st1" d="M108,6V0l0,0H0v144h108v-6H6V6H108"/>
	<g>
		<path class="st1" d="M73,24H24v96h72V47L73,24z M30,114V30h39.8v20.2H90V114H30z"/>
		<g>
			<path class="st1" d="M49.1,104.4h-7.8l-1.5,3.6h-4l7.5-16.8h3.8l7.5,16.8h-4.1L49.1,104.4z M47.8,101.4L45.2,95l-2.7,6.4H47.8z"
				/>
			<path class="st1" d="M56.8,91.2h3.9v13.6h8.4v3.2H56.8V91.2z"/>
			<path class="st1" d="M71.5,91.2h3.9v13.6h8.4v3.2H71.5V91.2z"/>
		</g>
	</g>
</g>
</svg>
