<?xml version="1.0" encoding="utf-8"?>
<!-- Generator: Adobe Illustrator 22.1.0, SVG Export Plug-In . SVG Version: 6.00 Build 0)  -->
<svg version="1.1" xmlns="http://www.w3.org/2000/svg" xmlns:xlink="http://www.w3.org/1999/xlink" x="0px" y="0px"
	 viewBox="0 0 144 44" style="enable-background:new 0 0 144 44;" xml:space="preserve">
<style type="text/css">
	.st0{fill:#767AB7;}
	.st1{fill:#FFD980;}
	.st2{fill:#55C3BD;}
	.st3{fill:#ED4863;}
	.st4{fill:#FF5CA2;}
	.st5{fill:#7FC8E3;}
	.st6{fill:#9ABE43;}
	.st7{fill:#4181BC;}
	.st8{fill:#54C4C7;}
	.st9{fill:#F15842;}
	.st10{fill:#F48C3D;}
</style>
<g id="SVG">
	<path class="st3" d="M138,6v32H6V6H138 M144,0H0v44h144V0L144,0z"/>
	<g>
		<path class="st3" d="M44.9,13.8c1.2,0.5,2.1,1.3,2.7,2.3c0.6,1,1,2.2,1,3.5c0,1.3-0.3,2.5-1,3.5c-0.6,1-1.6,1.8-2.7,2.3
			c-1.2,0.5-2.6,0.8-4.2,0.8H37v5h-4.2V13h7.9C42.3,13,43.7,13.3,44.9,13.8z M43.3,21.9c0.7-0.5,1-1.3,1-2.3c0-1-0.3-1.8-1-2.4
			c-0.7-0.5-1.6-0.8-2.9-0.8H37v6.3h3.4C41.7,22.8,42.7,22.5,43.3,21.9z"/>
		<path class="st3" d="M62.9,31.2l-3.5-5.1h-0.2h-3.7v5.1h-4.2V13h7.9c1.6,0,3,0.3,4.2,0.8c1.2,0.5,2.1,1.3,2.7,2.3
			c0.6,1,1,2.2,1,3.5c0,1.4-0.3,2.5-1,3.5c-0.6,1-1.6,1.7-2.8,2.2l4.1,5.8H62.9z M61.9,17.3c-0.7-0.5-1.6-0.8-2.9-0.8h-3.4v6.3H59
			c1.3,0,2.2-0.3,2.9-0.8c0.7-0.6,1-1.3,1-2.3C62.8,18.6,62.5,17.8,61.9,17.3z"/>
		<path class="st3" d="M70.3,13h4.2v18.2h-4.2V13z"/>
		<path class="st3" d="M95.4,13v18.2h-3.5l-9.1-11v11h-4.2V13h3.5l9,11V13H95.4z"/>
		<path class="st3" d="M103.2,16.4h-5.8V13h15.9v3.4h-5.8v14.8h-4.2V16.4z"/>
	</g>
</g>
<g id="other">
</g>
</svg>
