<?xml version="1.0" encoding="utf-8"?>
<!-- Generator: Adobe Illustrator 22.1.0, SVG Export Plug-In . SVG Version: 6.00 Build 0)  -->
<svg version="1.1" xmlns="http://www.w3.org/2000/svg" xmlns:xlink="http://www.w3.org/1999/xlink" x="0px" y="0px"
	 viewBox="0 0 69 44" style="enable-background:new 0 0 69 44;" xml:space="preserve">
<style type="text/css">
	.st0{fill:#767AB7;}
	.st1{fill:#FFD980;}
	.st2{fill:#55C3BD;}
	.st3{fill:#ED4863;}
	.st4{fill:#FF5CA2;}
	.st5{fill:#7FC8E3;}
	.st6{fill:#9ABE43;}
	.st7{fill:#4181BC;}
	.st8{fill:#54C4C7;}
	.st9{fill:#F15842;}
	.st10{fill:#F48C3D;}
</style>
<g id="SVG">
	<path class="st7" d="M63,6v32H6V6H63 M69,0H0v44h69V0L69,0z"/>
	<g>
		<path class="st7" d="M15.1,30.7c-1.5-0.8-2.7-1.9-3.5-3.4c-0.9-1.4-1.3-3-1.3-4.8c0-1.8,0.4-3.4,1.3-4.8c0.9-1.4,2-2.5,3.5-3.4
			c1.5-0.8,3.2-1.2,5.1-1.2c1.6,0,3,0.3,4.3,0.8c1.3,0.6,2.3,1.4,3.2,2.4L25,18.8c-1.2-1.4-2.8-2.1-4.6-2.1c-1.1,0-2.1,0.2-3,0.7
			c-0.9,0.5-1.6,1.2-2.1,2.1c-0.5,0.9-0.7,1.9-0.7,3c0,1.1,0.2,2.1,0.7,3c0.5,0.9,1.2,1.6,2.1,2.1c0.9,0.5,1.9,0.7,3,0.7
			c1.8,0,3.3-0.7,4.6-2.2l2.7,2.5c-0.9,1.1-1.9,1.9-3.2,2.4c-1.3,0.6-2.7,0.8-4.3,0.8C18.3,31.9,16.6,31.5,15.1,30.7z"/>
		<path class="st7" d="M31.6,31.3c-1.3-0.4-2.4-0.9-3.2-1.5l1.4-3.2c0.8,0.6,1.7,1,2.8,1.4c1.1,0.3,2.1,0.5,3.2,0.5
			c1.2,0,2.1-0.2,2.7-0.5c0.6-0.4,0.9-0.8,0.9-1.4c0-0.4-0.2-0.8-0.5-1.1S38,25,37.5,24.8c-0.5-0.2-1.2-0.4-2.1-0.6
			c-1.4-0.3-2.5-0.7-3.4-1c-0.9-0.3-1.6-0.9-2.3-1.6c-0.6-0.7-0.9-1.7-0.9-2.9c0-1.1,0.3-2,0.9-2.9c0.6-0.9,1.4-1.5,2.6-2
			c1.2-0.5,2.6-0.8,4.2-0.8c1.2,0,2.3,0.1,3.4,0.4s2.1,0.7,2.9,1.2l-1.3,3.2c-1.7-1-3.4-1.4-5-1.4c-1.2,0-2,0.2-2.6,0.6
			c-0.6,0.4-0.8,0.9-0.8,1.5s0.3,1.1,1,1.4c0.7,0.3,1.6,0.6,3,0.9c1.4,0.3,2.5,0.7,3.4,1c0.9,0.3,1.6,0.8,2.3,1.6
			c0.6,0.7,0.9,1.7,0.9,2.9c0,1-0.3,2-0.9,2.8c-0.6,0.9-1.5,1.5-2.6,2c-1.2,0.5-2.6,0.8-4.2,0.8C34.3,31.9,32.9,31.7,31.6,31.3z"/>
		<path class="st7" d="M47.4,31.3c-1.3-0.4-2.4-0.9-3.2-1.5l1.4-3.2c0.8,0.6,1.7,1,2.8,1.4c1.1,0.3,2.1,0.5,3.2,0.5
			c1.2,0,2.1-0.2,2.7-0.5c0.6-0.4,0.9-0.8,0.9-1.4c0-0.4-0.2-0.8-0.5-1.1s-0.8-0.5-1.3-0.7c-0.5-0.2-1.2-0.4-2.1-0.6
			c-1.4-0.3-2.5-0.7-3.4-1c-0.9-0.3-1.6-0.9-2.3-1.6c-0.6-0.7-0.9-1.7-0.9-2.9c0-1.1,0.3-2,0.9-2.9c0.6-0.9,1.4-1.5,2.6-2
			c1.2-0.5,2.6-0.8,4.2-0.8c1.2,0,2.3,0.1,3.4,0.4s2.1,0.7,2.9,1.2l-1.3,3.2c-1.7-1-3.4-1.4-5-1.4c-1.2,0-2,0.2-2.6,0.6
			c-0.6,0.4-0.8,0.9-0.8,1.5s0.3,1.1,1,1.4c0.7,0.3,1.6,0.6,3,0.9c1.4,0.3,2.5,0.7,3.4,1c0.9,0.3,1.6,0.8,2.3,1.6
			c0.6,0.7,0.9,1.7,0.9,2.9c0,1-0.3,2-0.9,2.8c-0.6,0.9-1.5,1.5-2.6,2c-1.2,0.5-2.6,0.8-4.2,0.8C50.1,31.9,48.7,31.7,47.4,31.3z"/>
	</g>
</g>
<g id="other">
</g>
</svg>
