<?xml version="1.0" encoding="utf-8"?>
<!-- Generator: Adobe Illustrator 22.1.0, SVG Export Plug-In . SVG Version: 6.00 Build 0)  -->
<svg version="1.1" id="Layer_1" xmlns="http://www.w3.org/2000/svg" xmlns:xlink="http://www.w3.org/1999/xlink" x="0px" y="0px"
	 viewBox="0 0 69 44" style="enable-background:new 0 0 69 44;" xml:space="preserve">
<style type="text/css">
	.st0{fill:#767AB7;}
	.st1{fill:#FFD980;}
	.st2{fill:#48CCC3;}
	.st3{fill:#ED4763;}
	.st4{fill:#FF59BA;}
	.st5{fill:#57D0F8;}
	.st6{fill:#9ABE43;}
	.st7{fill:#4181BB;}
	.st8{fill:#48CCCC;}
	.st9{fill:#FF6640;}
	.st10{fill:#FF8540;}
</style>
<path class="st6" d="M63,6v32H6V6H63 M69,0H0v44h69V0L69,0z"/>
<g>
	<path class="st6" d="M21.2,30.8c-1-0.5-1.9-1.1-2.5-2l2.3-2.8c1,1.3,2.1,2,3.4,2c1.7,0,2.6-1,2.6-3v-8.7h-6.4V13h10.6v11.8
		c0,2.2-0.6,3.9-1.7,5c-1.1,1.1-2.7,1.7-4.9,1.7C23.3,31.5,22.2,31.3,21.2,30.8z"/>
	<path class="st6" d="M37,30.9c-1.3-0.4-2.4-0.9-3.2-1.5l1.4-3.2c0.8,0.6,1.7,1,2.8,1.4c1.1,0.3,2.1,0.5,3.2,0.5
		c1.2,0,2.1-0.2,2.7-0.5c0.6-0.4,0.9-0.8,0.9-1.4c0-0.4-0.2-0.8-0.5-1.1s-0.8-0.5-1.3-0.7c-0.5-0.2-1.2-0.4-2.1-0.6
		c-1.4-0.3-2.5-0.7-3.4-1c-0.9-0.3-1.6-0.9-2.3-1.6c-0.6-0.7-0.9-1.7-0.9-2.9c0-1.1,0.3-2,0.9-2.9c0.6-0.9,1.4-1.5,2.6-2
		c1.2-0.5,2.6-0.8,4.2-0.8c1.2,0,2.3,0.1,3.4,0.4s2.1,0.7,2.9,1.2l-1.3,3.2c-1.7-1-3.4-1.4-5-1.4c-1.2,0-2,0.2-2.6,0.6
		c-0.6,0.4-0.8,0.9-0.8,1.5s0.3,1.1,1,1.4c0.7,0.3,1.6,0.6,3,0.9c1.4,0.3,2.5,0.7,3.4,1c0.9,0.3,1.6,0.8,2.3,1.6s0.9,1.7,0.9,2.9
		c0,1-0.3,2-0.9,2.8c-0.6,0.9-1.5,1.5-2.6,2c-1.2,0.5-2.6,0.8-4.2,0.8C39.8,31.5,38.4,31.3,37,30.9z"/>
</g>
</svg>
