<?xml version="1.0" encoding="utf-8"?>
<!-- Generator: Adobe Illustrator 19.2.1, SVG Export Plug-In . SVG Version: 6.00 Build 0)  -->
<svg version="1.1" id="Layer_1" xmlns="http://www.w3.org/2000/svg" xmlns:xlink="http://www.w3.org/1999/xlink" x="0px" y="0px"
	 viewBox="0 0 72 72" style="enable-background:new 0 0 72 72;" xml:space="preserve">
<style type="text/css">
	.st0{fill:#8A8C8C;}
	.st1{fill:#060E9F;}
</style>
<path class="st0" d="M62,10v52H10V10H62 M72,0H0v72h72V0L72,0z"/>
<g>
	<g>
		<path class="st1" d="M56.2,53.6l-8.8-27c-0.2-0.6-0.7-1-1.3-1s-1.2,0.4-1.3,1L39,44.4l-8.7-26.8c-0.2-0.6-0.7-1-1.3-1
			s-1.2,0.4-1.3,1L16,53.6c-0.2,0.7,0.2,1.5,0.9,1.8c0.7,0.2,1.5-0.2,1.8-0.9L29,22.7l8.1,25H25c-0.8,0-1.4,0.7-1.4,1.5
			s0.6,1.5,1.4,1.5h12.9l1.3,3.9c0.2,0.6,0.8,0.9,1.3,0.9c0.1,0,0.3-0.1,0.4-0.1c0.7-0.2,1.2-0.9,0.9-1.6l-1-3.1h6
			c0.8,0,1.4-0.7,1.4-1.5s-0.6-1.5-1.4-1.5h-6l5.2-16l7.4,22.8c0.2,0.6,0.8,1,1.3,1c0.1,0,0.3,0,0.4-0.1
			C56,55.1,56.4,54.3,56.2,53.6z"/>
	</g>
</g>
</svg>
