<?xml version="1.0" encoding="utf-8"?>
<!-- Generator: Adobe Illustrator 19.2.1, SVG Export Plug-In . SVG Version: 6.00 Build 0)  -->
<svg version="1.1" id="Layer_1" xmlns="http://www.w3.org/2000/svg" xmlns:xlink="http://www.w3.org/1999/xlink" x="0px" y="0px"
	 viewBox="0 0 72 72" style="enable-background:new 0 0 72 72;" xml:space="preserve">
<style type="text/css">
	.st0{fill:#8A8C8C;}
	.st1{fill:#00AF41;}
</style>
<path class="st0" d="M62,10v52H10V10H62 M72,0H0v72h72V0L72,0z"/>
<g>
	<g>
		<path class="st1" d="M56.2,53.6l-4.4-27c-0.1-0.7-0.7-1.2-1.4-1.2l0,0c-0.7,0-1.3,0.5-1.4,1.2l-3.1,18.7l-3-18.5
			c-0.1-0.7-0.7-1.2-1.4-1.2l0,0c-0.7,0-1.3,0.5-1.4,1.2l-2.3,13.8l-7.5-23c-0.2-0.6-0.7-1-1.3-1s-1.2,0.4-1.3,1L16,53.6
			c-0.2,0.7,0.2,1.5,0.9,1.8c0.7,0.2,1.5-0.2,1.8-0.9L29,22.4l7.3,22.3H25.6c-0.8,0-1.4,0.7-1.4,1.5s0.6,1.5,1.4,1.5h11.5l2.1,6.6
			c0.2,0.6,0.8,1.1,1.3,1.1c0.1,0,0.3,0,0.4,0c0.7-0.2,1.2-1,0.9-1.8l-2.3-7.1l1.8-10.8l3,18.5c0.1,0.7,0.7,1.2,1.4,1.2l0,0
			c0.7,0,1.3-0.5,1.4-1.2l3.1-18.7l3,18.5c0.1,0.8,0.9,1.3,1.6,1.2C55.8,55.1,56.3,54.4,56.2,53.6z"/>
	</g>
</g>
</svg>
