<?xml version="1.0" encoding="utf-8"?>
<!-- Generator: Adobe Illustrator 19.2.1, SVG Export Plug-In . SVG Version: 6.00 Build 0)  -->
<svg version="1.1" id="Layer_1" xmlns="http://www.w3.org/2000/svg" xmlns:xlink="http://www.w3.org/1999/xlink" x="0px" y="0px"
	 viewBox="0 0 72 72" style="enable-background:new 0 0 72 72;" xml:space="preserve">
<style type="text/css">
	.st0{fill:#A2A2A2;}
	.st1{fill:#CFCECD;}
</style>
<path class="st0" d="M62,10v52H10V10H62 M72,0H0v72h72V0L72,0z"/>
<g>
	<g>
		<g>
			<path class="st1" d="M23.9,55.4c-0.8,0-1.4-0.6-1.4-1.4V20.8c0-2.3,1.9-4.2,4.2-4.2H36c7.5,0,13.5,6.1,13.5,13.5
				c0,6.6-4.7,12.2-11.2,13.3h-0.1c-1.1,0.2-2.2-0.1-3.1-0.7c-0.9-0.7-1.5-1.6-1.7-2.7c-0.2-1.1,0.1-2.2,0.7-3.2
				c0.7-0.9,1.6-1.6,2.7-1.7c0,0,0,0,0.1,0c2.4-0.5,4.1-2.5,4.1-4.9c0-2.8-2.3-5-5-5h-5V54c0,0.8-0.6,1.4-1.4,1.4s-1.4-0.6-1.4-1.4
				V23.7c0-0.8,0.6-1.4,1.4-1.4H36c4.3,0,7.9,3.5,7.9,7.9c0,3.8-2.7,7.1-6.5,7.7c0,0,0,0-0.1,0c-0.3,0.1-0.6,0.3-0.9,0.6
				c-0.2,0.3-0.3,0.7-0.2,1.1c0.1,0.8,0.9,1.3,1.6,1.1c0,0,0,0,0.1,0c5.1-0.9,8.8-5.3,8.8-10.5c0-5.9-4.8-10.7-10.7-10.7h-9.3
				c-0.8,0-1.4,0.6-1.4,1.4V54C25.3,54.8,24.7,55.4,23.9,55.4z"/>
		</g>
	</g>
</g>
</svg>
