<?xml version="1.0" encoding="utf-8"?>
<!-- Generator: Adobe Illustrator 19.2.1, SVG Export Plug-In . SVG Version: 6.00 Build 0)  -->
<svg version="1.1" id="Layer_1" xmlns="http://www.w3.org/2000/svg" xmlns:xlink="http://www.w3.org/1999/xlink" x="0px" y="0px"
	 viewBox="0 0 200 250" style="enable-background:new 0 0 200 250;" xml:space="preserve">
<style type="text/css">
	.st0{fill:#A2A2A2;}
	.st1{fill:#037A3E;}
	.st2{fill:#51BA78;}
	.st3{clip-path:url(#SVGID_2_);fill:url(#SVGID_3_);}
	.st4{clip-path:url(#SVGID_5_);fill:url(#SVGID_6_);}
	.st5{clip-path:url(#SVGID_8_);fill:url(#SVGID_9_);}
	.st6{clip-path:url(#SVGID_11_);fill:url(#SVGID_12_);}
</style>
<g>
	<g>
		<path class="st0" d="M84.3,233.8h1.3c0.1,0,0.3,0,0.4,0.1s0.1,0.2,0.2,0.3l1.4,9.1c0,0.1,0,0.2,0,0.3c0,0.1,0,0.2,0,0.4
			c0,0.1,0,0.3,0,0.4c0.1-0.2,0.1-0.4,0.2-0.6c0.1-0.2,0.1-0.3,0.2-0.5l3.9-9.1c0-0.1,0.1-0.2,0.2-0.3c0.1-0.1,0.2-0.1,0.4-0.1h0.4
			c0.1,0,0.3,0,0.4,0.1s0.1,0.2,0.2,0.3l1.6,9.1c0,0.2,0.1,0.3,0.1,0.5s0,0.4,0,0.5c0.1-0.2,0.1-0.4,0.2-0.5s0.1-0.3,0.2-0.5
			l3.6-9.1c0-0.1,0.1-0.2,0.2-0.3c0.1-0.1,0.2-0.1,0.4-0.1h1.3l-5.3,12.9h-1.5l-1.7-9.9c0-0.1,0-0.2,0-0.3c0-0.1,0-0.2,0-0.4
			c0,0.1-0.1,0.2-0.1,0.4c0,0.1-0.1,0.2-0.1,0.3l-4.2,9.9h-1.5L84.3,233.8z"/>
		<path class="st0" d="M108,239.6c0,0.4-0.1,0.8-0.2,1.1s-0.5,0.6-0.9,0.9c-0.4,0.3-1,0.5-1.8,0.7c-0.8,0.2-1.7,0.4-2.9,0.5
			c0,0.1,0,0.1,0,0.2c0,0.1,0,0.1,0,0.2c0,0.8,0.2,1.4,0.5,1.8s0.9,0.6,1.6,0.6c0.3,0,0.5,0,0.8-0.1c0.2-0.1,0.4-0.1,0.6-0.2
			c0.2-0.1,0.3-0.2,0.5-0.3c0.1-0.1,0.3-0.2,0.4-0.3s0.2-0.2,0.3-0.2c0.1-0.1,0.2-0.1,0.3-0.1c0.1,0,0.2,0.1,0.3,0.2l0.4,0.5
			c-0.3,0.3-0.6,0.6-0.9,0.8c-0.3,0.2-0.6,0.4-0.9,0.6c-0.3,0.1-0.6,0.3-1,0.3c-0.3,0.1-0.7,0.1-1.1,0.1c-0.5,0-1-0.1-1.4-0.3
			s-0.8-0.4-1.1-0.7c-0.3-0.3-0.5-0.7-0.7-1.2c-0.2-0.5-0.2-1-0.2-1.5c0-0.5,0-0.9,0.1-1.4c0.1-0.5,0.2-0.9,0.4-1.3s0.4-0.8,0.7-1.2
			c0.3-0.4,0.6-0.7,0.9-0.9c0.4-0.3,0.7-0.5,1.2-0.6c0.4-0.2,0.9-0.2,1.4-0.2c0.5,0,0.9,0.1,1.2,0.2s0.6,0.3,0.8,0.5
			s0.4,0.4,0.5,0.7S108,239.3,108,239.6z M105.2,238.6c-0.4,0-0.7,0.1-1,0.2c-0.3,0.2-0.6,0.4-0.8,0.6c-0.2,0.3-0.5,0.6-0.6,1
			c-0.2,0.4-0.3,0.8-0.4,1.2c0.9-0.1,1.7-0.2,2.2-0.4c0.6-0.1,1-0.3,1.3-0.5c0.3-0.2,0.5-0.4,0.6-0.6c0.1-0.2,0.1-0.4,0.1-0.6
			c0-0.1,0-0.2-0.1-0.3c0-0.1-0.1-0.2-0.2-0.3s-0.2-0.2-0.4-0.2C105.7,238.7,105.4,238.6,105.2,238.6z"/>
		<path class="st0" d="M109,246.7l1.6-13.3h1.6l-0.8,6.4c0.2-0.4,0.5-0.7,0.7-1s0.5-0.6,0.8-0.8s0.6-0.4,0.9-0.5
			c0.3-0.1,0.6-0.2,1-0.2c0.8,0,1.4,0.3,1.8,0.8c0.4,0.6,0.6,1.4,0.6,2.5c0,0.5-0.1,1-0.2,1.5c-0.1,0.5-0.2,1-0.4,1.4
			c-0.2,0.4-0.4,0.9-0.7,1.3c-0.3,0.4-0.6,0.7-0.9,1c-0.3,0.3-0.7,0.5-1.1,0.7s-0.8,0.2-1.2,0.2c-0.5,0-0.9-0.1-1.3-0.3
			c-0.4-0.2-0.7-0.5-1-0.9l-0.1,0.6c0,0.2-0.1,0.3-0.2,0.4c-0.1,0.1-0.2,0.1-0.4,0.1H109z M114.2,238.8c-0.3,0-0.6,0.1-0.9,0.3
			c-0.3,0.2-0.6,0.4-0.9,0.7c-0.3,0.3-0.5,0.7-0.8,1.1c-0.2,0.4-0.4,0.9-0.6,1.4l-0.3,2.4c0.2,0.3,0.5,0.6,0.8,0.7
			c0.3,0.1,0.6,0.2,1,0.2c0.3,0,0.6-0.1,0.9-0.2c0.3-0.1,0.5-0.3,0.8-0.5c0.2-0.2,0.4-0.5,0.6-0.8s0.3-0.6,0.5-1s0.2-0.7,0.3-1.1
			s0.1-0.7,0.1-1.1c0-0.7-0.1-1.3-0.4-1.6S114.7,238.8,114.2,238.8z"/>
		<path class="st0" d="M133.3,239.4c0,1.1-0.2,2.1-0.5,3s-0.8,1.7-1.4,2.3c-0.6,0.6-1.3,1.1-2.1,1.5c-0.8,0.4-1.7,0.5-2.7,0.5h-4.5
			l1.6-12.9h4.4c0.8,0,1.5,0.1,2.1,0.4c0.6,0.3,1.2,0.6,1.6,1.1c0.4,0.5,0.8,1.1,1,1.8C133.2,237.8,133.3,238.6,133.3,239.4z
			 M131.6,239.4c0-0.6-0.1-1.2-0.2-1.8c-0.2-0.5-0.4-1-0.7-1.3c-0.3-0.4-0.7-0.6-1.1-0.8s-0.9-0.3-1.5-0.3h-2.8l-1.3,10.2h2.8
			c0.7,0,1.4-0.1,2-0.4c0.6-0.3,1.1-0.7,1.5-1.2c0.4-0.5,0.8-1.1,1-1.9C131.5,241.2,131.6,240.3,131.6,239.4z"/>
		<path class="st0" d="M141.6,239.6c0,0.4-0.1,0.8-0.2,1.1c-0.2,0.3-0.5,0.6-0.9,0.9c-0.4,0.3-1,0.5-1.8,0.7
			c-0.8,0.2-1.7,0.4-2.9,0.5c0,0.1,0,0.1,0,0.2c0,0.1,0,0.1,0,0.2c0,0.8,0.2,1.4,0.5,1.8s0.9,0.6,1.6,0.6c0.3,0,0.5,0,0.8-0.1
			c0.2-0.1,0.4-0.1,0.6-0.2c0.2-0.1,0.3-0.2,0.5-0.3c0.1-0.1,0.3-0.2,0.4-0.3c0.1-0.1,0.2-0.2,0.3-0.2c0.1-0.1,0.2-0.1,0.3-0.1
			c0.1,0,0.2,0.1,0.3,0.2l0.4,0.5c-0.3,0.3-0.6,0.6-0.9,0.8c-0.3,0.2-0.6,0.4-0.9,0.6c-0.3,0.1-0.6,0.3-1,0.3
			c-0.3,0.1-0.7,0.1-1.1,0.1c-0.5,0-1-0.1-1.4-0.3s-0.8-0.4-1.1-0.7c-0.3-0.3-0.5-0.7-0.7-1.2s-0.2-1-0.2-1.5c0-0.5,0-0.9,0.1-1.4
			s0.2-0.9,0.4-1.3c0.2-0.4,0.4-0.8,0.7-1.2c0.3-0.4,0.6-0.7,0.9-0.9c0.4-0.3,0.7-0.5,1.2-0.6c0.4-0.2,0.9-0.2,1.4-0.2
			c0.5,0,0.9,0.1,1.2,0.2s0.6,0.3,0.8,0.5c0.2,0.2,0.4,0.4,0.5,0.7S141.6,239.3,141.6,239.6z M138.9,238.6c-0.4,0-0.7,0.1-1,0.2
			c-0.3,0.2-0.6,0.4-0.8,0.6c-0.2,0.3-0.5,0.6-0.6,1c-0.2,0.4-0.3,0.8-0.4,1.2c0.9-0.1,1.7-0.2,2.2-0.4c0.6-0.1,1-0.3,1.3-0.5
			c0.3-0.2,0.5-0.4,0.6-0.6c0.1-0.2,0.1-0.4,0.1-0.6c0-0.1,0-0.2-0.1-0.3c0-0.1-0.1-0.2-0.2-0.3s-0.2-0.2-0.4-0.2
			C139.3,238.7,139.1,238.6,138.9,238.6z"/>
		<path class="st0" d="M148.5,239.1c0,0.1-0.1,0.1-0.1,0.2c0,0-0.1,0-0.2,0c-0.1,0-0.2,0-0.3-0.1c-0.1-0.1-0.2-0.1-0.4-0.2
			s-0.3-0.2-0.5-0.2c-0.2-0.1-0.4-0.1-0.7-0.1c-0.3,0-0.5,0-0.7,0.1c-0.2,0.1-0.4,0.2-0.6,0.3c-0.2,0.1-0.3,0.3-0.4,0.5
			c-0.1,0.2-0.1,0.4-0.1,0.6c0,0.3,0.1,0.5,0.3,0.7s0.4,0.3,0.7,0.4c0.3,0.1,0.6,0.2,0.9,0.4c0.3,0.1,0.6,0.3,0.9,0.4
			c0.3,0.2,0.5,0.4,0.7,0.7c0.2,0.3,0.3,0.6,0.3,1.1c0,0.4-0.1,0.8-0.2,1.2c-0.2,0.4-0.4,0.7-0.7,1c-0.3,0.3-0.7,0.5-1.1,0.7
			c-0.4,0.2-0.9,0.3-1.5,0.3c-0.6,0-1.1-0.1-1.5-0.3c-0.4-0.2-0.8-0.5-1.1-0.8l0.4-0.6c0-0.1,0.1-0.1,0.2-0.2c0.1,0,0.1-0.1,0.3-0.1
			c0.1,0,0.2,0,0.3,0.1c0.1,0.1,0.2,0.2,0.4,0.3c0.1,0.1,0.3,0.2,0.5,0.3s0.5,0.1,0.8,0.1c0.3,0,0.6,0,0.8-0.1
			c0.2-0.1,0.4-0.2,0.6-0.4c0.2-0.1,0.3-0.3,0.4-0.5c0.1-0.2,0.1-0.4,0.1-0.6c0-0.3-0.1-0.5-0.3-0.7c-0.2-0.2-0.4-0.3-0.7-0.5
			s-0.6-0.2-0.9-0.3c-0.3-0.1-0.6-0.2-0.9-0.4c-0.3-0.2-0.5-0.4-0.7-0.6c-0.2-0.3-0.3-0.6-0.3-1.1c0-0.4,0.1-0.8,0.2-1.1
			c0.2-0.4,0.4-0.7,0.7-0.9c0.3-0.3,0.6-0.5,1-0.7s0.9-0.2,1.4-0.2c0.5,0,1,0.1,1.4,0.3c0.4,0.2,0.8,0.4,1.1,0.7L148.5,239.1z"/>
		<path class="st0" d="M152.5,237.6l-1.1,9.1h-1.6l1.1-9.1H152.5z M153.1,234.7c0,0.2,0,0.3-0.1,0.4c-0.1,0.1-0.1,0.3-0.3,0.4
			c-0.1,0.1-0.2,0.2-0.4,0.2c-0.1,0.1-0.3,0.1-0.4,0.1c-0.1,0-0.3,0-0.4-0.1c-0.1-0.1-0.2-0.1-0.3-0.2c-0.1-0.1-0.2-0.2-0.2-0.4
			c-0.1-0.1-0.1-0.3-0.1-0.4c0-0.2,0-0.3,0.1-0.4c0.1-0.1,0.1-0.3,0.2-0.4c0.1-0.1,0.2-0.2,0.4-0.3c0.1-0.1,0.3-0.1,0.4-0.1
			c0.1,0,0.3,0,0.4,0.1c0.1,0.1,0.3,0.1,0.4,0.2c0.1,0.1,0.2,0.2,0.2,0.4C153.1,234.4,153.1,234.6,153.1,234.7z"/>
		<path class="st0" d="M160.7,240.1c0,0.3,0,0.6-0.1,0.8c-0.1,0.2-0.2,0.5-0.3,0.7c-0.1,0.2-0.2,0.4-0.3,0.6
			c-0.1,0.2-0.2,0.4-0.3,0.5c-0.1,0.2-0.2,0.4-0.3,0.6c-0.1,0.2-0.1,0.4-0.1,0.6c0,0.3,0.1,0.5,0.2,0.7s0.3,0.4,0.4,0.6
			s0.3,0.5,0.4,0.7s0.2,0.6,0.2,0.9c0,0.4-0.1,0.8-0.3,1.2c-0.2,0.4-0.5,0.7-0.8,1c-0.4,0.3-0.8,0.5-1.3,0.7s-1.1,0.3-1.8,0.3
			c-0.5,0-1-0.1-1.4-0.2c-0.4-0.1-0.8-0.3-1.1-0.5c-0.3-0.2-0.5-0.4-0.7-0.7c-0.2-0.3-0.2-0.6-0.2-0.9c0-0.5,0.1-0.9,0.4-1.2
			s0.6-0.6,1-0.8c0.4-0.2,0.9-0.4,1.4-0.5c0.5-0.1,1-0.2,1.6-0.2c0.2,0,0.4,0,0.6,0s0.4,0,0.6,0.1c-0.1-0.1-0.1-0.2-0.1-0.4
			s0-0.3,0-0.4c0-0.2,0-0.4,0.1-0.6c0.1-0.2,0.2-0.4,0.3-0.7c-0.2,0.2-0.5,0.3-0.8,0.4c-0.3,0.1-0.6,0.1-1,0.1c-0.3,0-0.7-0.1-1-0.2
			c-0.3-0.1-0.6-0.3-0.8-0.5c-0.2-0.2-0.4-0.5-0.5-0.8c-0.1-0.3-0.2-0.7-0.2-1.2c0-0.4,0.1-0.9,0.2-1.3c0.2-0.4,0.4-0.8,0.7-1.1
			c0.3-0.3,0.7-0.6,1.1-0.8c0.5-0.2,1-0.3,1.6-0.3c0.7,0,1.2,0.2,1.7,0.5h2.5l-0.1,0.5c0,0.1,0,0.2-0.1,0.3s-0.1,0.1-0.3,0.2
			l-1.1,0.2c0.1,0.2,0.1,0.3,0.1,0.5C160.7,239.8,160.7,239.9,160.7,240.1z M159.1,246.9c0-0.2,0-0.3,0-0.4c0-0.1-0.1-0.3-0.1-0.4
			c-0.3-0.1-0.6-0.1-0.9-0.1s-0.6,0-0.8,0c-0.5,0-0.9,0-1.3,0.1s-0.7,0.2-0.9,0.3c-0.2,0.1-0.4,0.3-0.5,0.5
			c-0.1,0.2-0.2,0.4-0.2,0.6c0,0.4,0.2,0.8,0.5,1c0.4,0.2,0.9,0.3,1.5,0.3c0.4,0,0.8-0.1,1.1-0.2c0.3-0.1,0.6-0.2,0.8-0.4
			c0.2-0.2,0.4-0.4,0.5-0.6S159.1,247.2,159.1,246.9z M157.3,242.6c0.3,0,0.6-0.1,0.9-0.2c0.2-0.1,0.5-0.3,0.6-0.6
			c0.2-0.2,0.3-0.5,0.4-0.8s0.1-0.6,0.1-0.9c0-0.5-0.1-0.9-0.4-1.2c-0.3-0.3-0.6-0.4-1.1-0.4c-0.3,0-0.6,0.1-0.9,0.2
			c-0.2,0.1-0.5,0.3-0.6,0.5c-0.2,0.2-0.3,0.5-0.4,0.8c-0.1,0.3-0.1,0.6-0.1,0.9c0,0.5,0.1,1,0.4,1.2
			C156.4,242.5,156.8,242.6,157.3,242.6z"/>
		<path class="st0" d="M162.4,246.7l1.1-9.1h0.8c0.4,0,0.5,0.2,0.5,0.5l-0.1,1.8c0.5-0.8,1-1.4,1.6-1.8s1.2-0.6,1.9-0.6
			c0.7,0,1.2,0.2,1.6,0.7c0.4,0.5,0.6,1.1,0.6,2c0,0.1,0,0.2,0,0.4s0,0.3,0,0.4l-0.7,5.8H168l0.7-5.8c0-0.1,0-0.2,0-0.3
			c0-0.1,0-0.2,0-0.3c0-0.5-0.1-0.9-0.3-1.1s-0.5-0.4-0.9-0.4c-0.3,0-0.6,0.1-0.9,0.2c-0.3,0.2-0.6,0.4-0.9,0.7
			c-0.3,0.3-0.5,0.6-0.8,1c-0.2,0.4-0.4,0.9-0.6,1.4l-0.5,4.6H162.4z"/>
	</g>
	<g>
		<path class="st1" d="M9.5,215.4l-1.9-1.9c-0.7-0.7-1.7-2.1-2.3-3.3c-0.4-0.9-0.8-2-1-3.8c1.6-3.1,3.6-4.3,6-5.5
			c3.3-1.7,7.9-2.1,11.9-1.2l-1.8,5.8c-1.5-0.4-2.9-0.7-4.5-0.4c-1.8,0.2-3.1,1-4.6,2c0.2,0.7,0.5,1.2,0.9,1.8
			c0.4,0.7,1,1.2,1.7,1.9l1.6,1.7c1.3,1.4,2.4,3.4,2.7,4c0.3,0.8,0.8,2,0.9,3.6c-1.1,2-2.9,4.5-6.3,6c-4.5,2-9.8,1.3-12.8-1.1
			c0,0,2.7-5.8,2.7-5.8c1.3,1.3,3.1,2.5,5.1,2.5c2,0,3.6-0.9,4.5-2c-0.1-0.7-0.3-1.1-0.8-1.8C11.2,217.3,10.3,216.2,9.5,215.4z"/>
		<path class="st1" d="M37.5,227.7c-1-0.7-1.8-1.9-2.1-2.7c-0.5-1.1-0.5-2.3-0.4-3.4l-8.3,6c-1.8-1.3-3.4-3.6-3.8-6
			c-0.3-2-0.1-3.6,0.5-6l1.7-6.5V206h6.7L29,216.3c-0.3,0.9-0.5,1.8-0.5,2.6c0,0.5,0.1,1,0.4,1.4l6.6-5.1L38,206h5.8l-2.8,9.8
			c-0.8,2.9-1,4.3-0.8,5.6c0.1,0.7,0.7,1.8,1.7,2.9L37.5,227.7z"/>
		<path class="st1" d="M51.6,204.9c0.8,0.7,1.7,1.9,2.1,2.7c0.5,1.1,0.8,2.8,0.8,3.7l8.2-6.4c1.7,1.1,3.5,3.4,3.9,5.8
			c0.4,2.2,0,3.7-0.6,6.3l-1.7,6.5v3.1h-6.7l2.8-10.3c0.3-0.9,0.5-1.9,0.5-2.6c0-0.5-0.1-1-0.4-1.4l-6.8,5.4l-2.5,9h-5.8l2.8-9.8
			c0.6-2.2,1-4.1,0.5-5.6c-0.2-0.6-0.7-1.8-1.9-2.8L51.6,204.9z"/>
		<path class="st1" d="M72.5,212c-0.4-0.9-1.6-1.8-3.4-2.2l3.8-4.6c2.5,0.6,3.6,1.7,4.3,2.6c0.7,0.9,1.1,2.5,1.1,5.4v6.7
			c1.1-2.2,2.1-4.4,3.1-6.7c1.1-2.6,1.9-4.7,2.7-7.2c0,0,4.1,0,6.3,0c-3.5,9.2-7.6,16.1-11,21.3c-5.5,8.5-10.5,11-16.3,8.1l2.7-5.6
			c1.8,1.6,3.6,1.3,4.9,0c0.7-0.7,1.8-2,2.2-2.9v-11.4C73,213.7,72.9,212.9,72.5,212z"/>
		<path class="st1" d="M97.9,217.4l-2.5,9.2h-5.9L97,199v-3.4h6.8l-4.2,14.5l7.4-5.4l0.7,0.6c1.1,0.9,2.7,2.8,3.1,5
			c0.6,2.7,0.1,3.9-0.6,6.5l-1.8,6.5v3.1h-6.6l2.9-10.3c0.2-0.9,0.6-2,0.6-2.7c0-0.4-0.2-1.1-0.4-1.6L97.9,217.4z"/>
		<path class="st1" d="M118.6,209.8c3.3-3.2,7.4-4,11.9-4h5.6l-3,11.9c-0.3,1.2-0.6,2.3-0.3,3.8c0.2,0.9,0.8,2,1.8,2.9l-4.7,3.2
			c-1.3-1-1.9-2-2.2-2.8c-0.4-0.8-0.7-1.8-0.7-3l-9,6C114.2,222.1,113.8,214.5,118.6,209.8z M127.7,216.1l1.5-5.4
			c-3.1-0.2-5.4,1.1-6.7,2.9c-1.6,2.1-2,4.7-1.3,6.9L127.7,216.1z"/>
		<path class="st1" d="M148.9,224.1c-0.8-1.1-1.6-2.6-2.2-4l-2.5,0.4l-1.6,6h-5.9l7.5-27.5v-3.4h6.8l-2.8,10.3h9.2
			c0.8,4,0.4,6.7-1.1,9c-0.9,1.3-2.2,2.7-4.3,3.6c0.3,0.9,0.9,1.6,1.4,2.2c0.5,0.7,1.8,1.8,3.8,1.5l-1.6,4.8
			C152.3,227.7,150.3,225.9,148.9,224.1z M150.1,214.5c1.3-0.9,2.2-2.5,2.2-4h-5.2l-1.5,5.4C147.6,215.7,148.9,215.2,150.1,214.5z"
			/>
		<path class="st1" d="M165.1,209.8c3.3-3.2,7.4-4,11.9-4h5.6l-3,11.9c-0.3,1.2-0.6,2.3-0.3,3.8c0.2,0.9,0.8,2,1.8,2.9l-4.7,3.2
			c-1.3-1-1.9-2-2.2-2.8c-0.4-0.8-0.7-1.8-0.7-3l-9,6C160.6,222.1,160.3,214.5,165.1,209.8z M174.1,216.1l1.5-5.4
			c-3.1-0.2-5.4,1.1-6.7,2.9c-1.6,2.1-2,4.7-1.3,6.9L174.1,216.1z"/>
		<path class="st1" d="M195.2,215.8c0.7,0.7,2.2,2.5,2.7,5.4c-1.3,3.1-4.9,6.5-10.1,6.5c-2,0-4.3-0.4-6-1.6l2.2-5.4
			c1.8,1.6,3.1,1.9,4.5,1.9c1.8,0,2.5-0.8,3.2-1.5c-0.5-1.7-2.1-2.8-2.8-3.5l-0.9-0.9c-0.7-0.7-2.2-2.5-2.7-5.4
			c1.3-2.7,3.7-4.7,6.5-5.6c2.2-0.7,4.5-0.9,8.2-0.4l-1.5,5.4c-1.1-0.2-2.7-0.4-3.8-0.2c-1.1,0.2-2,0.5-2.9,1.3
			c0.7,1.8,1.8,2.5,2.5,3.1L195.2,215.8z"/>
	</g>
	<g>
		<polygon class="st2" points="100,0 100,23.4 140.5,93.5 154,93.5 		"/>
		<polygon class="st1" points="100,46.8 100,23.4 140.5,93.5 127,93.5 		"/>
		<polygon class="st1" points="100,187.1 100,163.7 59.5,93.5 46,93.5 		"/>
		<polygon class="st2" points="100,140.3 100,163.7 59.5,93.5 73,93.5 		"/>
		<g>
			<defs>
				<polygon id="SVGID_1_" points="100,0 100,23.4 59.5,93.5 46,93.5 				"/>
			</defs>
			<clipPath id="SVGID_2_">
				<use xlink:href="#SVGID_1_"  style="overflow:visible;"/>
			</clipPath>
			
				<linearGradient id="SVGID_3_" gradientUnits="userSpaceOnUse" x1="-290.0196" y1="579.7186" x2="-289.6039" y2="579.7186" gradientTransform="matrix(129.9038 -225 -225 -129.9038 168157.3281 10146.7793)">
				<stop  offset="0" style="stop-color:#008747"/>
				<stop  offset="1" style="stop-color:#29B35D"/>
			</linearGradient>
			<polygon class="st3" points="5.5,70.1 59.5,-23.4 140.5,23.4 86.5,116.9 			"/>
		</g>
		<g>
			<defs>
				<polygon id="SVGID_4_" points="100,187.1 100,163.7 140.5,93.5 154,93.5 				"/>
			</defs>
			<clipPath id="SVGID_5_">
				<use xlink:href="#SVGID_4_"  style="overflow:visible;"/>
			</clipPath>
			
				<linearGradient id="SVGID_6_" gradientUnits="userSpaceOnUse" x1="-289.7272" y1="580.1166" x2="-289.3116" y2="580.1166" gradientTransform="matrix(129.9038 -225 -225 -129.9038 168262.8906 10357.7793)">
				<stop  offset="0" style="stop-color:#008747"/>
				<stop  offset="1" style="stop-color:#29B35D"/>
			</linearGradient>
			<polygon class="st4" points="59.5,163.7 113.5,70.1 194.5,116.9 140.5,210.4 			"/>
		</g>
		<g>
			<defs>
				<polygon id="SVGID_7_" points="100,140.3 100,163.7 140.5,93.5 127,93.5 				"/>
			</defs>
			<clipPath id="SVGID_8_">
				<use xlink:href="#SVGID_7_"  style="overflow:visible;"/>
			</clipPath>
			
				<linearGradient id="SVGID_9_" gradientUnits="userSpaceOnUse" x1="-289.7864" y1="580.0715" x2="-289.3707" y2="580.0715" gradientTransform="matrix(97.4279 -168.75 -168.75 -97.4279 126220.3438 7777.3687)">
				<stop  offset="0" style="stop-color:#29B35D"/>
				<stop  offset="1" style="stop-color:#008747"/>
			</linearGradient>
			<polygon class="st5" points="69.6,146.1 110.1,76 170.9,111.1 130.4,181.2 			"/>
		</g>
		<g>
			<defs>
				<polygon id="SVGID_10_" points="73,93.5 59.5,93.5 100,23.4 100,46.8 				"/>
			</defs>
			<clipPath id="SVGID_11_">
				<use xlink:href="#SVGID_10_"  style="overflow:visible;"/>
			</clipPath>
			
				<linearGradient id="SVGID_12_" gradientUnits="userSpaceOnUse" x1="-290.0789" y1="579.7097" x2="-289.6632" y2="579.7097" gradientTransform="matrix(97.4279 -168.75 -168.75 -97.4279 126147.2813 7622.6187)">
				<stop  offset="0" style="stop-color:#00BC5D"/>
				<stop  offset="1" style="stop-color:#008747"/>
			</linearGradient>
			<polygon class="st6" points="29.1,76 69.6,5.8 130.4,40.9 89.9,111.1 			"/>
		</g>
	</g>
</g>
</svg>
