<?xml version="1.0" encoding="utf-8"?>
<!-- Generator: Adobe Illustrator 19.2.1, SVG Export Plug-In . SVG Version: 6.00 Build 0)  -->
<svg version="1.1" id="RGB" xmlns="http://www.w3.org/2000/svg" xmlns:xlink="http://www.w3.org/1999/xlink" x="0px" y="0px"
	 viewBox="0 0 201.1 41" style="enable-background:new 0 0 201.1 41;" xml:space="preserve">
<style type="text/css">
	.st0{fill:#037A3E;}
</style>
<g>
	<path class="st0" d="M9.5,19.8l-1.9-1.9c-0.7-0.7-1.8-2.1-2.3-3.3c-0.5-0.9-0.8-2-1-3.8c1.6-3.2,3.6-4.4,6-5.6
		c3.3-1.7,7.9-2.1,12-1.2l-1.8,5.8c-1.5-0.4-2.9-0.7-4.5-0.5c-1.8,0.2-3.1,1-4.6,2c0.2,0.7,0.5,1.2,0.9,1.8c0.4,0.7,1,1.2,1.7,1.9
		l1.6,1.7c1.4,1.4,2.4,3.4,2.7,4c0.3,0.8,0.8,2,0.9,3.6c-1.1,2-2.9,4.5-6.3,6.1c-4.5,2-9.9,1.3-12.8-1.1c0,0,2.7-5.8,2.7-5.8
		c1.3,1.3,3.1,2.5,5.2,2.5c2,0,3.6-0.9,4.5-2c-0.1-0.7-0.3-1.1-0.8-1.8C11.2,21.7,10.4,20.7,9.5,19.8z"/>
	<path class="st0" d="M37.7,32.2c-1-0.7-1.8-1.9-2.2-2.7c-0.5-1.1-0.5-2.3-0.4-3.4l-8.3,6.1c-1.8-1.3-3.5-3.6-3.8-6.1
		c-0.3-2-0.1-3.6,0.5-6.1l1.7-6.5v-3.2h6.8l-2.8,10.3c-0.3,0.9-0.5,1.8-0.5,2.6c0,0.5,0.1,1,0.4,1.4l6.6-5.2l2.7-9.2h5.8l-2.8,9.9
		c-0.8,2.9-1,4.3-0.8,5.6c0.1,0.7,0.7,1.8,1.7,2.9L37.7,32.2z"/>
	<path class="st0" d="M51.8,9.2c0.8,0.7,1.7,1.9,2.1,2.7c0.5,1.1,0.8,2.8,0.8,3.7l8.2-6.4c1.7,1.1,3.6,3.4,3.9,5.8
		c0.4,2.3,0,3.7-0.6,6.3l-1.7,6.5V31h-6.8l2.8-10.3c0.3-0.9,0.5-1.9,0.5-2.6c0-0.5-0.1-1-0.4-1.4L54,22l-2.5,9h-5.9l2.8-9.9
		c0.6-2.2,1-4.1,0.5-5.6c-0.2-0.6-0.7-1.8-1.9-2.8L51.8,9.2z"/>
	<path class="st0" d="M72.9,16.4c-0.4-0.9-1.6-1.8-3.4-2.3l3.8-4.6c2.5,0.6,3.6,1.7,4.3,2.6c0.7,0.9,1.1,2.5,1.1,5.4v6.7
		c1.1-2.3,2.1-4.4,3.1-6.7c1.1-2.6,1.9-4.7,2.7-7.2c0,0,4.1,0,6.3,0c-3.5,9.2-7.6,16.2-11,21.4c-5.5,8.5-10.6,11-16.4,8.1l2.7-5.6
		c1.8,1.6,3.6,1.4,5,0c0.7-0.7,1.8-2,2.3-2.9V19.8C73.4,18.1,73.3,17.3,72.9,16.4z"/>
	<path class="st0" d="M98.4,21.8L95.9,31H90l7.5-27.7V0h6.9l-4.2,14.6l7.4-5.4l0.7,0.6c1.1,0.9,2.7,2.8,3.1,5c0.6,2.7,0.1,4-0.6,6.5
		l-1.8,6.5V31h-6.6l2.9-10.3c0.2-0.9,0.6-2,0.6-2.7c0-0.4-0.2-1.1-0.5-1.6L98.4,21.8z"/>
	<path class="st0" d="M119.3,14.2c3.3-3.2,7.4-4,11.9-4h5.6L133.8,22c-0.3,1.2-0.6,2.3-0.3,3.8c0.2,0.9,0.8,2,1.8,2.9l-4.7,3.2
		c-1.3-1-1.9-2-2.3-2.8c-0.4-0.8-0.7-1.8-0.7-3.1l-9,6C114.8,26.5,114.4,18.9,119.3,14.2z M128.4,20.5l1.5-5.4
		c-3.2-0.2-5.4,1.1-6.8,2.9c-1.6,2.1-2,4.7-1.3,7L128.4,20.5z"/>
	<path class="st0" d="M149.8,28.6c-0.8-1.1-1.6-2.6-2.3-4L145,25l-1.6,6.1h-5.9L145,3.4V0h6.9l-2.8,10.3h9.2c0.8,4,0.4,6.8-1.1,9
		c-0.9,1.3-2.3,2.7-4.4,3.6c0.3,0.9,0.9,1.6,1.4,2.3c0.5,0.7,1.8,1.8,3.8,1.5l-1.6,4.8C153.1,32.2,151.1,30.4,149.8,28.6z
		 M150.9,18.9c1.3-0.9,2.3-2.5,2.3-4h-5.3l-1.5,5.4C148.4,20.2,149.8,19.7,150.9,18.9z"/>
	<path class="st0" d="M166,14.2c3.3-3.2,7.4-4,11.9-4h5.6L180.5,22c-0.3,1.2-0.6,2.3-0.3,3.8c0.2,0.9,0.8,2,1.8,2.9l-4.7,3.2
		c-1.3-1-1.9-2-2.3-2.8c-0.4-0.8-0.7-1.8-0.7-3.1l-9,6C161.5,26.5,161.1,18.9,166,14.2z M175.1,20.5l1.5-5.4
		c-3.2-0.2-5.4,1.1-6.8,2.9c-1.6,2.1-2,4.7-1.3,7L175.1,20.5z"/>
	<path class="st0" d="M196.2,20.2c0.7,0.7,2.2,2.5,2.7,5.4c-1.3,3.1-4.9,6.5-10.1,6.5c-2,0-4.3-0.5-6.1-1.6l2.3-5.4
		c1.8,1.6,3.1,1.9,4.5,1.9c1.8,0,2.5-0.8,3.2-1.5c-0.5-1.7-2.1-2.8-2.8-3.5l-0.9-0.9c-0.7-0.7-2.3-2.5-2.7-5.4
		c1.3-2.7,3.7-4.7,6.5-5.6c2.2-0.7,4.5-0.9,8.2-0.5l-1.5,5.4c-1.1-0.2-2.7-0.5-3.9-0.2c-1.1,0.2-2,0.5-2.9,1.3
		c0.7,1.8,1.8,2.5,2.5,3.2L196.2,20.2z"/>
</g>
</svg>
