<?xml version="1.0" encoding="utf-8"?>
<!-- Generator: Adobe Illustrator 19.2.1, SVG Export Plug-In . SVG Version: 6.00 Build 0)  -->
<svg version="1.1" id="Layer_1" xmlns="http://www.w3.org/2000/svg" xmlns:xlink="http://www.w3.org/1999/xlink" x="0px" y="0px"
	 viewBox="0 0 72 72" style="enable-background:new 0 0 72 72;" xml:space="preserve">
<style type="text/css">
	.st0{fill:#8A8C8C;}
	.st1{fill:#0099A8;}
</style>
<g>
	<path class="st0" d="M62,10v52H10V10H62 M72,0H0v72h72V0L72,0z"/>
</g>
<g>
	<g>
		<path class="st1" d="M43.1,19.7c0.8,0,1.4-0.7,1.4-1.5s-0.6-1.5-1.4-1.5H18.8c-0.8,0-1.4,0.7-1.4,1.5s0.6,1.5,1.4,1.5H29V54
			c0,0.8,0.7,1.4,1.5,1.4S32,54.8,32,54V19.7H43.1z"/>
		<path class="st1" d="M53.2,52.7H49v-24h4.2c0.8,0,1.4-0.7,1.4-1.5s-0.6-1.5-1.4-1.5H41.5c-0.8,0-1.4,0.7-1.4,1.5s0.6,1.5,1.4,1.5
			H46v24h-4.5c-0.8,0-1.4,0.7-1.4,1.5s0.6,1.5,1.4,1.5h11.7c0.8,0,1.4-0.7,1.4-1.5S53.9,52.7,53.2,52.7z"/>
	</g>
</g>
</svg>
