<?xml version="1.0" encoding="utf-8"?>
<!-- Generator: Adobe Illustrator 19.2.1, SVG Export Plug-In . SVG Version: 6.00 Build 0)  -->
<svg version="1.1" id="Layer_1" xmlns="http://www.w3.org/2000/svg" xmlns:xlink="http://www.w3.org/1999/xlink" x="0px" y="0px"
	 viewBox="0 0 130.8 133.2" style="enable-background:new 0 0 130.8 133.2;" xml:space="preserve">
<style type="text/css">
	.st0{fill:#FFFFFF;}
	.st1{fill:#EDAA00;}
	.st2{fill:none;stroke:#FFFFFF;stroke-width:2.8346;stroke-linecap:round;stroke-linejoin:round;stroke-miterlimit:10;}
</style>
<g>
	<path class="st0" d="M78.5,131.8c-1.6,0-2.9-1.3-3-2.9l-0.3-8.4c0,0-1.6,0.1-1.6,0.1c-0.7,0-1.2-0.2-1.7-0.5
		c-0.5,0.8-1.4,1.3-2.5,1.3c-0.2,0-0.3,0-0.5,0c-0.9-0.2-1.4-0.6-1.6-0.8l-0.1-0.1c-0.6-0.6-1.2-0.9-1.9-1.1c-0.2,0-0.3,0-0.5,0
		c-1.3,0-2.4,1-2.7,2.5c-0.3,1.5,0.4,3.2,2.1,3.5c0.2,0,0.5,0.1,0.7,0.1c0.5,0,1-0.1,1.6-0.5c0.4-0.2,0.9-0.4,1.4-0.4
		c0.2,0,0.3,0,0.5,0c1.6,0.3,2.6,1.8,2.3,3.3c-0.1,0.8-0.7,1.5-1.4,2c-1.4,0.8-2.8,1.2-4.4,1.2c-0.6,0-1.2-0.1-1.9-0.2
		c-4.8-0.9-7.9-5.3-7-10.1c0.8-4.3,4.3-7.3,8.5-7.3c0.6,0,1.1,0,1.7,0.1c2,0.4,3.5,1.1,4.8,2.3c0.1-0.1,0.1-0.2,0.2-0.3
		c0.5-0.6,1.2-0.9,2-0.9l9.2-0.3c1.5,0,2.8,1.2,2.9,2.8c0,0.8-0.2,1.5-0.8,2c-0.5,0.6-1.2,0.9-2,0.9l-1.6,0.1l0.3,8.4
		c0,0.8-0.3,1.6-0.8,2.1s-1.3,0.9-2.1,0.9L78.5,131.8z M52.6,128.3c-0.4,0-0.7-0.1-1.1-0.2c-1.1-0.5-1.8-1.5-1.9-2.8l0-1.5l-4-1.7
		l-1.1,1.1c-0.6,0.6-1.3,0.9-2.1,0.9c-0.4,0-0.8-0.1-1.1-0.2c-1.5-0.6-2.2-2.3-1.6-3.7c0.2-0.5,0.5-0.8,0.8-1l8.8-8.4
		c0.7-0.7,1.5-1,2.4-1c0.4,0,0.9,0.1,1.3,0.3l0.2,0.1c1.3,0.5,2,1.6,2.1,3.1l0.3,12.2c0,0.5,0,0.9-0.2,1.2
		C54.8,127.6,53.8,128.3,52.6,128.3z M98.5,128.1c-3.1,0-5.5-1.9-6.7-5.3l-2.2-6.3c-0.5-1.5,0.3-3.2,1.8-3.8c0.3-0.1,0.7-0.2,1-0.2
		c1.3,0,2.4,0.8,2.8,2l2.2,6.2c0.5,1.6,1.3,1.6,1.5,1.6c0.2,0,0.4,0,0.7-0.1c0.8-0.3,1.5-0.8,0.9-2.4l-2.2-6.3
		c-0.5-1.5,0.3-3.3,1.8-3.8c0.3-0.1,0.7-0.2,1-0.2c1.1,0,2.1,0.6,2.6,1.5c0-2,1.2-3.9,3.3-5.2c1.6-1,3.3-1.5,5.1-1.5l0.2,0
		c1,0,1.9,0.5,2.4,1.4c0.8,1.3,0.4,3-0.8,3.8c0.3,0,0.6,0,0.8,0c1.9,0,3.4,0.8,4.4,2.5c1,1.6,1.1,3.2,0.6,4.8
		c-0.5,1.4-1.6,2.7-3.2,3.7c-1.7,1-3.6,1.5-5.5,1.5c-0.3,0-0.5,0-0.8,0c-0.9-0.1-1.7-0.6-2.2-1.4c-0.4-0.7-0.5-1.4-0.3-2.2
		c0.2-0.7,0.6-1.4,1.3-1.8c0,0,0.1,0,0.1-0.1c-0.1,0-0.1,0-0.2,0c-1.6,0-2.9-0.6-3.9-1.9l1,3c1.6,4.6-0.1,8.3-4.6,9.9
		C100.4,127.9,99.4,128.1,98.5,128.1z M111.4,116.3c0.9,0,1.6-0.2,2.3-0.6c0,0,0.1-0.1,0.1-0.1c-0.4,0.1-0.8,0.2-1.3,0.3
		c-0.4,0.1-0.8,0.2-1.2,0.3C111.3,116.3,111.3,116.3,111.4,116.3z M111.2,110.2c-0.3,0.1-0.6,0.1-0.8,0.2
		C110.6,110.3,110.9,110.3,111.2,110.2z M35.2,119.8c-0.6,0-1.1-0.2-1.6-0.5c-1.4-0.9-1.8-2.7-0.9-4.1l4.6-7.1l-1.3-0.9
		c-0.6-0.4-1-0.9-1.2-1.5l-6.5,6.5c-0.6,0.6-1.3,0.9-2.1,0.9c-0.8,0-1.5-0.3-2.1-0.9l-0.1-0.1c-1-1-1-2.2-0.9-3l0.8-6l-2.4,2.4
		c-0.6,0.6-1.3,0.9-2.1,0.9c-0.8,0-1.5-0.3-2.1-0.9c-0.6-0.6-0.9-1.3-0.9-2.1c0-0.8,0.3-1.5,0.9-2.1l8-7.9c0.6-0.6,1.3-0.9,2.1-0.9
		c0.8,0,1.5,0.3,2.1,0.9l0.2,0.2c1,1,1,2.2,0.9,3l-0.8,5.7l2.2-2.2c0.6-0.6,1.3-0.9,2.1-0.9c0.8,0,1.5,0.3,2.1,0.9
		c0.5,0.5,0.8,1.2,0.9,1.9c0.1,0,0.2,0,0.4,0c0.5,0,1.1,0.2,1.5,0.5l7.7,4.9c0.6,0.4,1.1,1.1,1.2,1.8s0,1.5-0.4,2.2
		c-0.5,0.8-1.4,1.3-2.4,1.3c-0.5,0-1.1-0.2-1.5-0.5l-1.3-0.9l-4.6,7.1C37.2,119.3,36.2,119.8,35.2,119.8z M16.6,98.3
		c-3.1,0-6-1.7-7.6-4.5c-1.3-2.1-1.6-4.5-1.1-6.8c0.6-2.2,2-4.1,4-5.3c0.9-0.5,1.8-0.9,2.8-1.1c-0.8-0.3-1.4-1-1.6-1.8
		c-0.3-0.8-0.1-1.5,0-1.8l0-0.1c0.3-0.8,0.3-1.5,0.1-2.2c-0.4-1.1-1.4-1.8-2.6-1.8c-0.3,0-0.7,0.1-1,0.2c-1.5,0.5-2.7,1.8-2.1,3.5
		c0.3,0.8,0.6,1.3,1.4,1.9c0.5,0.3,1,0.9,1.2,1.5c0.5,1.5-0.4,3.1-1.9,3.6c-0.3,0.1-0.6,0.1-0.8,0.1c-0.5,0-1.1-0.2-1.5-0.4
		c-1.9-1.1-3.1-2.8-3.8-5.1c-0.7-2.3-0.5-4.7,0.6-6.7c1.1-2,2.9-3.5,5.1-4.2c0.9-0.3,1.8-0.4,2.8-0.4c3.8,0,7.1,2.4,8.3,6.2
		c0.7,2.1,0.7,4,0,5.8c-0.2,0.7-0.7,1.3-1.4,1.6c2.8,0.3,5.3,1.9,6.8,4.4c2.6,4.3,1.3,9.6-2.9,12.1C19.7,97.8,18.1,98.3,16.6,98.3z
		 M16.7,86.4c-0.6,0-1.1,0.2-1.7,0.5c-0.8,0.4-1.3,1.1-1.5,1.8c-0.2,0.5-0.2,1.3,0.3,2.2c0.5,0.9,1.4,1.4,2.4,1.4
		c0.6,0,1.1-0.2,1.7-0.5c1.5-0.9,2-2.6,1.2-4C18.5,86.9,17.7,86.4,16.7,86.4z"/>
	<path class="st1" d="M10.3,68.2c3.1,0,5.9,1.9,6.9,5.2c0.6,2,0.5,3.6,0,5c-0.1,0.4-0.5,0.8-1,1c-0.2,0-0.3,0.1-0.5,0.1
		c-0.7,0-1.2-0.4-1.5-1.1c-0.1-0.4-0.1-0.7,0-1c0.4-1,0.4-2,0.1-3.1c-0.6-1.8-2.2-2.8-4-2.8c-0.5,0-1,0.1-1.5,0.2l0,0
		c-2.3,0.7-3.7,2.9-3,5.3c0.4,1.3,1,2,2,2.6c0.3,0.2,0.5,0.4,0.6,0.8c0.2,0.8-0.2,1.6-0.9,1.8c-0.1,0-0.3,0.1-0.4,0.1
		c-0.3,0-0.6-0.1-0.8-0.2c-1.4-0.9-2.5-2.1-3.2-4.3c-1.3-4,0.9-7.9,4.8-9.1l0,0C8.8,68.3,9.5,68.2,10.3,68.2 M16.4,81.8
		c2.5,0,4.9,1.3,6.4,3.8c2.2,3.8,1,8.1-2.4,10.2l0,0c-1.2,0.7-2.5,1-3.7,1c-2.5,0-4.9-1.3-6.4-3.8c-2.2-3.8-1-8.1,2.4-10.2l0,0
		C13.8,82.2,15.1,81.8,16.4,81.8 M16.2,93.7c0.8,0,1.6-0.2,2.4-0.7l0,0c2.1-1.2,2.9-3.8,1.6-6c-0.8-1.4-2.2-2.1-3.6-2.1
		c-0.8,0-1.6,0.2-2.4,0.7l0,0c-2.1,1.2-2.9,3.8-1.6,6C13.5,93,14.8,93.7,16.2,93.7 M27.5,93.9c0.4,0,0.8,0.2,1.1,0.5l0.2,0.2
		c0.5,0.5,0.6,1.1,0.5,1.8l-1.4,9.8l5.2-5.2c0.3-0.3,0.7-0.4,1.1-0.4c0.4,0,0.8,0.2,1.1,0.5c0.6,0.6,0.6,1.6,0,2.2l-8,7.9
		c-0.3,0.3-0.7,0.5-1.1,0.5c-0.4,0-0.8-0.2-1.1-0.5l-0.1-0.1c-0.5-0.5-0.6-1.1-0.5-1.8L26,99.1l-5.4,5.4c-0.3,0.3-0.7,0.4-1.1,0.4
		c-0.4,0-0.8-0.2-1.1-0.5c-0.6-0.6-0.6-1.6,0-2.2l8-7.9C26.7,94.1,27.1,93.9,27.5,93.9 M37.5,103.4c0.3,0,0.5,0.1,0.8,0.2l7.7,4.9
		c0.7,0.4,0.9,1.3,0.4,2c-0.3,0.4-0.7,0.7-1.2,0.7c-0.3,0-0.5-0.1-0.8-0.2l-2.5-1.6l-5.4,8.3c-0.3,0.5-0.8,0.7-1.3,0.7
		c-0.3,0-0.6-0.1-0.9-0.3c-0.7-0.5-0.9-1.4-0.5-2.2l5.4-8.3l-2.5-1.6c-0.7-0.4-0.9-1.3-0.4-2C36.6,103.6,37.1,103.4,37.5,103.4
		 M112.1,105.8c0.1,0,0.1,0,0.2,0c0,0,0,0,0,0c0.4,0,0.9,0.2,1.2,0.7c0.4,0.7,0.2,1.6-0.5,2c-0.3,0.2-0.5,0.2-0.8,0.2
		c-1.2,0-2.2,0.2-3,0.7c-1,0.6-1.3,1.4-0.9,2l0,0c0.2,0.4,0.5,0.6,1,0.6c0.5,0,1.3-0.2,2.5-0.6c1.1-0.3,2-0.5,2.9-0.5
		c1.4,0,2.4,0.5,3.2,1.8l0,0c1.5,2.4,0.4,4.9-2.2,6.5c-1.4,0.8-3,1.3-4.7,1.3c-0.2,0-0.5,0-0.7,0c-0.4,0-0.9-0.3-1.1-0.7
		c-0.4-0.7-0.2-1.6,0.5-2c0.3-0.2,0.6-0.2,0.8-0.2c0,0,0.1,0,0.1,0c0.2,0,0.5,0,0.7,0c1.1,0,2.1-0.2,3-0.8c1.1-0.7,1.5-1.5,1.1-2.2
		l0,0c-0.2-0.4-0.5-0.6-1.1-0.6c-0.5,0-1.2,0.2-2.3,0.5c-1.2,0.4-2.2,0.6-3.1,0.6c-1.3,0-2.3-0.5-3.1-1.9l0,0
		c-1.3-2.2-0.4-4.7,2-6.2C109.2,106.2,110.7,105.8,112.1,105.8 M101.1,110.9c0.6,0,1.2,0.4,1.5,1l2.2,6.2c1.4,4.1-0.2,6.8-3.8,8.1
		c-0.9,0.3-1.7,0.5-2.5,0.5c-2.4,0-4.3-1.4-5.3-4.4l-2.2-6.3c-0.3-0.8,0.1-1.7,1-2c0.2-0.1,0.4-0.1,0.5-0.1c0.6,0,1.2,0.4,1.5,1
		l2.2,6.2c0.6,1.7,1.6,2.5,2.9,2.5c0.4,0,0.8-0.1,1.2-0.2c1.8-0.6,2.5-2.1,1.8-4.2l-2.2-6.3c-0.3-0.8,0.1-1.7,1-2
		C100.8,110.9,101,110.9,101.1,110.9 M51.6,111c0.2,0,0.5,0.1,0.8,0.2l0.2,0.1c0.8,0.3,1.2,1,1.2,1.8l0.3,12.2c0,0.2,0,0.5-0.1,0.6
		c-0.2,0.6-0.8,0.9-1.4,0.9c-0.2,0-0.4,0-0.6-0.1c-0.7-0.3-1-0.9-1-1.6l0-2.4l-5.8-2.4l-1.8,1.8c-0.3,0.3-0.7,0.5-1.1,0.5
		c-0.2,0-0.4,0-0.6-0.1c-0.7-0.3-1.1-1.1-0.8-1.9c0.1-0.2,0.2-0.4,0.4-0.5l8.8-8.5C50.6,111.2,51.1,111,51.6,111 M51,119.8l0-5.1
		l-3.6,3.6L51,119.8 M64.7,115c0.5,0,0.9,0,1.4,0.1c2.1,0.4,3.4,1.2,4.4,2.2c0.3,0.3,0.5,0.8,0.4,1.3c-0.1,0.7-0.8,1.3-1.5,1.3
		c-0.1,0-0.2,0-0.3,0c-0.4-0.1-0.7-0.3-0.9-0.5c-0.7-0.8-1.6-1.3-2.7-1.5c-0.2,0-0.5-0.1-0.7-0.1c-2,0-3.7,1.5-4.1,3.7l0,0
		c-0.4,2.4,0.9,4.7,3.3,5.1c0.3,0.1,0.6,0.1,0.9,0.1c0.8,0,1.6-0.2,2.3-0.6c0.2-0.1,0.5-0.2,0.7-0.2c0.1,0,0.2,0,0.2,0
		c0.8,0.1,1.3,0.9,1.2,1.7c-0.1,0.5-0.4,0.8-0.7,1c-1.1,0.6-2.2,1-3.6,1c-0.5,0-1.1,0-1.6-0.2c-4.1-0.7-6.6-4.4-5.9-8.5l0,0
		C58.2,117.5,61.1,115,64.7,115 M82.7,115.9c0.8,0,1.4,0.6,1.4,1.4c0,0.8-0.6,1.5-1.4,1.5l-3,0.1l0.3,9.9c0,0.9-0.6,1.6-1.5,1.6
		c0,0,0,0-0.1,0c-0.8,0-1.5-0.7-1.6-1.5l-0.3-9.9l-3,0.1c0,0,0,0,0,0c-0.8,0-1.4-0.6-1.4-1.4c0-0.8,0.6-1.5,1.4-1.5L82.7,115.9
		C82.6,115.9,82.6,115.9,82.7,115.9 M10.3,65.4L10.3,65.4c-1.1,0-2.1,0.2-3.2,0.5c-2.6,0.8-4.8,2.6-6,4.9c-1.3,2.4-1.5,5.1-0.7,7.8
		c0.8,2.6,2.2,4.5,4.4,5.8C5.6,84.8,6.3,85,7,85.1c-0.2,0.5-0.4,1-0.5,1.6c-0.7,2.6-0.2,5.4,1.2,7.9c1.9,3.2,5.2,5.2,8.9,5.2
		c0.2,0,0.3,0,0.5,0l-0.6,0.6c-1.7,1.7-1.7,4.5,0,6.2c0.8,0.8,1.9,1.3,3.1,1.3c0.9,0,1.8-0.3,2.5-0.8l-0.3,2
		c-0.1,0.6-0.3,2.5,1.3,4.2l0.1,0.1c0.9,0.9,2,1.3,3.1,1.3c1.2,0,2.3-0.5,3.1-1.3l5.3-5.3c0.2,0.2,0.4,0.3,0.6,0.5l0.1,0.1l-3.8,5.9
		c-0.6,1-0.9,2.2-0.6,3.3c0.2,1.1,0.9,2.1,1.9,2.8c0.7,0.5,1.5,0.7,2.4,0.7c1.1,0,2.1-0.4,2.9-1.1c-0.2,0.9-0.2,1.9,0.2,2.7
		c0.4,1.1,1.3,1.9,2.3,2.3c0.5,0.2,1.1,0.3,1.7,0.3c1.1,0,2.2-0.5,3.1-1.3l0.5-0.5l2.3,0.9l0,0.6c0,1.9,1.1,3.5,2.7,4.1
		c0.5,0.2,1.1,0.3,1.6,0.3c1.5,0,2.8-0.7,3.6-1.9c1.5,2.3,3.9,4,6.8,4.5c0.7,0.1,1.5,0.2,2.1,0.2c1.8,0,3.5-0.5,5.1-1.4
		c1.1-0.6,1.8-1.7,2-2.9c0.2-1.1-0.1-2.3-0.7-3.2c-0.7-0.9-1.6-1.5-2.7-1.7c-0.2,0-0.5-0.1-0.7-0.1c-0.7,0-1.5,0.2-2.1,0.5
		c-0.5,0.2-0.7,0.3-0.9,0.3c-0.1,0-0.3,0-0.4,0c-0.9-0.2-1.1-1.1-1-1.8c0.1-0.8,0.7-1.4,1.3-1.4c0.1,0,0.2,0,0.2,0
		c0.4,0.1,0.7,0.2,1.1,0.7l0.1,0.1l0.1,0.1c0.4,0.4,1.2,1,2.3,1.2c0.3,0,0.5,0.1,0.8,0.1c1.1,0,2-0.4,2.8-1c0.4,0.1,0.8,0.2,1.3,0.2
		h0l0.1,0l0.2,0l0.2,7c0.1,2.4,2,4.2,4.4,4.2c0.1,0,0.1,0,0.2,0c1.2,0,2.3-0.5,3.1-1.4c0.8-0.9,1.2-2,1.2-3.2l-0.2-7l0.2,0
		c1.1,0,2.2-0.5,3-1.4c0.8-0.8,1.2-1.9,1.1-3.1c-0.1-2.3-2-4.1-4.3-4.1c-0.1,0-0.1,0-0.2,0l-9.1,0.3c-0.8,0-1.6,0.3-2.2,0.7
		c-1.3-0.9-2.8-1.5-4.5-1.8c-0.6-0.1-1.3-0.2-1.9-0.2h0c-3.3,0-6.3,1.6-8.1,4.1l-0.1-3.2c-0.1-2-1.2-3.6-3-4.4l-0.2-0.1
		c-0.6-0.2-1.2-0.4-1.8-0.4h0c-0.8,0-1.5,0.2-2.2,0.6c-0.3-1.1-0.9-2-1.8-2.6l-7.7-4.9c-0.5-0.3-1-0.5-1.5-0.6
		c-0.2-0.6-0.5-1.1-1-1.6c-0.8-0.8-1.9-1.3-3.1-1.3c-0.8,0-1.6,0.2-2.3,0.7l0.2-1.7c0.1-0.7,0.3-2.6-1.3-4.2l-0.2-0.2
		c-0.8-0.8-1.9-1.3-3.1-1.3c-0.3,0-0.6,0-0.9,0.1c0.4-2.3-0.1-4.8-1.4-7c-1.3-2.2-3.2-3.7-5.4-4.6c0-0.1,0.1-0.2,0.1-0.3
		c0.7-2.1,0.7-4.3,0-6.7C18.5,68.2,14.8,65.4,10.3,65.4L10.3,65.4z M9.5,77.2c-0.5-0.3-0.7-0.6-0.9-1.1c-0.3-0.8,0.4-1.5,1.2-1.7
		l0,0l0.1,0c0.2-0.1,0.4-0.1,0.6-0.1c0.3,0,1,0.1,1.3,0.8c0.1,0.4,0.1,0.7-0.1,1.3l0,0.1l0,0.1c-0.2,0.6-0.3,1.5,0,2.6
		c0.1,0.3,0.2,0.6,0.3,0.8c-0.2,0.1-0.4,0.2-0.6,0.3c0-0.3-0.1-0.5-0.2-0.8C11,78.6,10.4,77.7,9.5,77.2L9.5,77.2z M16.2,90.9
		c-0.5,0-0.9-0.2-1.1-0.7c-0.2-0.4-0.3-0.7-0.2-1.1c0.1-0.4,0.4-0.7,0.8-1c0.3-0.2,0.7-0.3,1-0.3c0.5,0,0.9,0.2,1.1,0.7
		c0.5,0.9,0,1.7-0.6,2.1l0,0l0,0C16.9,90.8,16.5,90.9,16.2,90.9L16.2,90.9z M40.1,117.4l2.7-4.1l0.1,0.1c0.3,0.2,0.6,0.3,0.9,0.5
		L40.1,117.4L40.1,117.4z M112.1,102.9c-2,0-4,0.6-5.8,1.7c-1.6,1-2.8,2.3-3.5,3.8c-0.5-0.2-1.1-0.4-1.7-0.4c-0.5,0-1,0.1-1.5,0.2
		c-2.3,0.8-3.5,3.3-2.7,5.6l2.2,6.3c0.1,0.3,0.1,0.4,0.1,0.5c0,0-0.1,0-0.2,0.1c-0.1,0-0.1,0-0.1,0c-0.1-0.1-0.2-0.3-0.3-0.6
		l-2.2-6.2c-0.6-1.8-2.3-3-4.1-3c-0.5,0-1,0.1-1.5,0.2c-2.3,0.8-3.5,3.3-2.7,5.6l2.2,6.3c1.4,4,4.3,6.3,8,6.3c1.1,0,2.3-0.2,3.5-0.6
		c3.4-1.2,5.5-3.5,6-6.4c0.6,0.5,1.4,0.7,2.2,0.8c0.3,0,0.6,0,0.9,0c2.2,0,4.3-0.6,6.2-1.7c4-2.5,5.3-6.7,3.1-10.3
		c-1-1.6-2.3-2.6-3.9-3c0,0,0,0,0,0c0.3-1.1,0.1-2.3-0.5-3.3c-0.8-1.3-2.1-2.1-3.6-2.1h0l0,0L112.1,102.9L112.1,102.9z"/>
</g>
<circle class="st1" cx="76.8" cy="54" r="54"/>
<path class="st2" d="M104.1,84.2H84.6c-1.2,0-2.1-1-2.1-2.1V42.6c0-1.2,1-2.1,2.1-2.1h19.5c1.2,0,2.1,1,2.1,2.1V82
	C106.3,83.2,105.3,84.2,104.1,84.2z"/>
<rect x="87.2" y="47.8" class="st2" width="14.4" height="29.1"/>
<polyline class="st2" points="100.5,40.5 111.9,31 41.6,31 "/>
<polyline class="st2" points="82.5,76.9 41.6,76.9 41.6,31 76.8,60.3 82.5,55.5 "/>
<polyline class="st2" points="111.9,31 111.9,76.9 106.3,76.9 "/>
</svg>
