<?xml version="1.0" encoding="utf-8"?>
<!-- Generator: Adobe Illustrator 19.2.1, SVG Export Plug-In . SVG Version: 6.00 Build 0)  -->
<svg version="1.1" id="Layer_1" xmlns="http://www.w3.org/2000/svg" xmlns:xlink="http://www.w3.org/1999/xlink" x="0px" y="0px"
	 viewBox="0 0 111.2 133.3" style="enable-background:new 0 0 111.2 133.3;" xml:space="preserve">
<style type="text/css">
	.st0{fill:#FFFFFF;}
	.st1{fill:#0082CA;}
	.st2{fill:none;stroke:#FFFFFF;stroke-width:2.8346;stroke-linecap:round;stroke-linejoin:round;stroke-miterlimit:10;}
</style>
<g>
	<g>
		<path class="st0" d="M61.1,131.8c-1.5,0-2.8-1.1-2.9-2.6l-1.2-10c-0.5,0.7-1.3,1.1-2.2,1.1c-0.1,0-0.2,0-0.3,0l-4.9-0.5l0,0l4,0.4
			c0.7,0.1,1.4,0.4,1.9,1c0.5,0.6,0.7,1.3,0.6,2.1c-0.1,1.4-1.3,2.5-2.8,2.5c-0.1,0-0.2,0-0.3,0l-4-0.4l0,0.1l5,0.5
			c1.5,0.2,2.7,1.5,2.5,3.1c-0.1,1.4-1.3,2.5-2.8,2.5c-0.1,0-0.2,0-0.3,0l-7.9-0.8c-0.8-0.1-1.5-0.5-2-1.1s-0.7-1.4-0.7-2.2l0.8-7.9
			c0,0,0,0,0,0c-0.6,1.9-1.8,3.2-3.5,3.8l0.6,1.6c0.2,0.7,0.4,1.4,0.1,2.2c-0.4,1.2-1.5,2-2.7,2c-0.3,0-0.6,0-0.9-0.1
			c-1-0.3-1.7-1-2.1-2.1l-1.5-3.9l-0.4-0.1l-0.5,1.6c-0.4,1.2-1.5,2.1-2.8,2.1c-0.3,0-0.6,0-0.9-0.1c-0.8-0.2-1.4-0.8-1.7-1.5
			c-0.4-0.7-0.4-1.5-0.2-2.3l3.5-10.6c0.4-1.2,1.5-2.1,2.8-2.1c0.3,0,0.6,0,0.9,0.1l4.7,1.5c2,0.7,3.5,1.8,4.3,3.4
			c0.3,0.5,0.4,1,0.5,1.6l0-0.2c0.1-1.5,1.4-2.7,3-2.7c0.1,0,0.2,0,0.3,0l7.8,0.8c0.7,0.1,1.4,0.4,1.9,1c0.1,0.1,0.2,0.3,0.3,0.4
			c0.1-0.1,0.2-0.2,0.2-0.4c0.5-0.6,1.2-1,2-1.1l0.3,0c0.1,0,0.3,0,0.4,0c1.2,0,2,0.7,2.5,1.2l4,4.1l-0.4-3.1
			c-0.2-1.6,1-3.1,2.6-3.3c0.1,0,0.2,0,0.3,0c0.6,0,1.2,0.2,1.7,0.5c0.3-0.5,0.9-1,1.5-1.2l8.6-2.9c0.3-0.1,0.6-0.2,0.9-0.2
			c0.6,0,1.3,0.2,1.7,0.6c0-0.1,0-0.2,0.1-0.2c0.5-1.4,1.6-2.7,3.1-3.5c1.5-0.9,3.2-1.3,4.9-1.3c0.1,0,0.3,0,0.4,0
			c0.9,0,1.9,0.6,2.4,1.4c0.8,1.3,0.4,3-0.9,3.8c0.2,0,0.4,0,0.6,0c2,0,3.5,0.9,4.5,2.6c1.7,3.1,0.6,6.4-2.8,8.4
			c-1.6,0.9-3.4,1.4-5.3,1.4c-0.4,0-0.7,0-1.1-0.1c-0.9-0.1-1.7-0.6-2.2-1.4c-0.4-0.7-0.5-1.4-0.3-2.2c0.2-0.7,0.7-1.3,1.4-1.7
			c0,0,0.1,0,0.1-0.1c0,0,0,0,0,0c-2,0-3.4-0.9-4.4-2.7c0-0.1-0.1-0.2-0.1-0.2c-0.3,0.4-0.7,0.6-1.2,0.8l-1.5,0.5l2.7,8
			c0.5,1.6-0.3,3.2-1.9,3.8c-0.3,0.1-0.6,0.2-1,0.2c-1.3,0-2.4-0.8-2.8-2l-2.7-8l-1.5,0.5c-0.3,0.1-0.6,0.2-0.9,0.2
			c-0.3,0-0.6-0.1-0.9-0.2l1,9.1c0.1,0.8-0.1,1.6-0.6,2.2c-0.5,0.6-1.2,1-2,1.1l-0.1,0c-0.1,0-0.3,0-0.4,0c-1.2,0-2-0.7-2.5-1.2
			l-4.2-4.4l0.4,3.4c0.1,0.8-0.1,1.6-0.6,2.2c-0.5,0.6-1.2,1-2,1.1C61.4,131.8,61.2,131.8,61.1,131.8z M36.8,118.4
			c0.2,0.1,0.4,0.1,0.6,0.1c0.3,0,0.4-0.1,0.5-0.4c0.1-0.3,0-0.4,0-0.5c0-0.1-0.2-0.3-0.8-0.5l-1.6-0.5l-0.4,1.2L36.8,118.4z
			 M91.1,117.2c0.8,0,1.5-0.2,2.2-0.6c0,0,0.1,0,0.1-0.1c-0.4,0.1-0.8,0.2-1.3,0.3c-0.4,0.1-0.8,0.2-1.2,0.3
			C91,117.2,91.1,117.2,91.1,117.2z M90.9,111.1c-0.3,0-0.6,0.1-0.8,0.2C90.4,111.2,90.7,111.2,90.9,111.1z M23.8,124.1
			c-0.5,0-1-0.1-1.5-0.4c-1.1-0.6-1.6-1.8-1.4-3.1l0.2-1.5l-3.8-2.2l-1.3,0.9c-0.5,0.4-1.2,0.6-1.8,0.6c-0.5,0-1-0.1-1.5-0.4
			c-0.7-0.4-1.1-1-1.3-1.8c-0.2-0.7-0.1-1.5,0.3-2.2c0.3-0.4,0.6-0.7,0.9-0.9l9.9-7.1c0.6-0.4,1.3-0.7,2-0.7c0.6,0,1.2,0.2,1.7,0.5
			l0.2,0.1c1.2,0.7,1.8,1.9,1.6,3.4l-1.5,12.1c0,0.3-0.1,0.7-0.4,1.2C25.7,123.6,24.8,124.1,23.8,124.1z M13.3,110.8
			c-1.7,0-3.5-0.8-5.1-2.2L7.5,108l-0.9,1c-0.6,0.6-1.4,1-2.2,1c-0.7,0-1.4-0.3-2-0.8c-0.6-0.5-0.9-1.3-1-2.1c0-0.8,0.2-1.6,0.8-2.1
			l7.5-8.3c0.6-0.6,1.4-1,2.2-1c0.7,0,1.4,0.3,2,0.8l3.1,2.8c3,2.8,3.4,6.5,0.8,9.3C16.6,110.1,15,110.8,13.3,110.8z M12.1,104.6
			c0.3,0.3,0.6,0.4,0.8,0.4l0,0c0.2,0,0.3-0.1,0.5-0.2c0.3-0.3,0.3-0.5,0.2-0.5c0-0.1-0.1-0.4-0.6-0.8l-0.7-0.7l-1,1.1L12.1,104.6z"
			/>
		<path class="st1" d="M11.9,97.2c0.4,0,0.7,0.1,1,0.4l3.1,2.8c2.5,2.3,2.7,5.1,0.7,7.3l0,0c-1,1.1-2.2,1.6-3.5,1.6
			c-1.4,0-2.9-0.7-4.1-1.8L7.4,106l-1.9,2.1c-0.3,0.3-0.7,0.5-1.2,0.5c-0.4,0-0.7-0.1-1-0.4c-0.6-0.6-0.7-1.6-0.1-2.2l7.5-8.3
			C11.1,97.4,11.5,97.2,11.9,97.2 M12.9,106.4c0.6,0,1.1-0.2,1.5-0.7l0,0c0.9-1,0.7-2.2-0.4-3.3l-1.8-1.6L9.3,104l1.8,1.7
			C11.7,106.2,12.3,106.4,12.9,106.4 M91.8,106.7c0.1,0,0.2,0,0.4,0c0.4,0,0.9,0.2,1.2,0.7c0.4,0.7,0.2,1.6-0.6,2
			c-0.3,0.1-0.5,0.2-0.8,0.2c0,0,0,0,0,0c0,0-0.1,0-0.1,0c-1.1,0-2.1,0.2-2.9,0.7c-1,0.6-1.3,1.4-1,2l0,0c0.2,0.4,0.5,0.6,1.1,0.6
			c0.5,0,1.3-0.2,2.5-0.5c1-0.3,1.9-0.4,2.7-0.4c1.4,0,2.5,0.5,3.3,1.9l0,0c1.4,2.4,0.3,4.9-2.3,6.4c-1.4,0.8-2.9,1.2-4.5,1.2
			c-0.3,0-0.6,0-0.9,0c-0.4,0-0.9-0.3-1.1-0.7c-0.4-0.7-0.2-1.6,0.6-2c0.3-0.2,0.5-0.2,0.8-0.2c0.1,0,0.1,0,0.2,0
			c0.3,0,0.6,0.1,0.9,0.1c1,0,2-0.2,2.9-0.7c1.1-0.6,1.5-1.5,1.1-2.2l0,0c-0.2-0.4-0.5-0.6-1.1-0.6c-0.5,0-1.2,0.1-2.3,0.4
			c-1.1,0.3-2.1,0.5-3,0.5c-1.3,0-2.4-0.5-3.2-2l0,0c-1.3-2.2-0.3-4.7,2.2-6.2C89.1,107.1,90.5,106.7,91.8,106.7 M24.6,106.9
			c0.3,0,0.7,0.1,1,0.3l0.2,0.1c0.7,0.4,1,1.1,0.9,2l-1.5,12.1c0,0.2-0.1,0.4-0.2,0.6c-0.3,0.5-0.8,0.7-1.3,0.7
			c-0.3,0-0.5-0.1-0.8-0.2c-0.6-0.4-0.8-1-0.7-1.7l0.3-2.4l-5.4-3.2l-2,1.5c-0.3,0.2-0.6,0.3-0.9,0.3c-0.3,0-0.5-0.1-0.8-0.2
			c-0.7-0.4-0.9-1.3-0.5-2c0.1-0.2,0.3-0.3,0.5-0.5l9.9-7.1C23.8,107,24.2,106.9,24.6,106.9 M23.7,110.4l-4.1,3l3.4,2L23.7,110.4
			 M82,111.2c0.6,0,1.2,0.4,1.4,1c0.3,0.7-0.1,1.6-0.9,1.8l-2.8,1l3.2,9.3c0.3,0.8-0.1,1.7-1,2c-0.2,0.1-0.3,0.1-0.5,0.1
			c-0.6,0-1.2-0.4-1.5-1.1l-3.2-9.3l-2.8,1c-0.2,0.1-0.3,0.1-0.5,0.1c-0.6,0-1.2-0.4-1.4-1c-0.3-0.7,0.1-1.6,0.9-1.8l8.6-2.9
			C81.7,111.2,81.9,111.2,82,111.2 M33.5,111.7c0.2,0,0.3,0,0.5,0.1l4.7,1.5c1.7,0.6,2.9,1.5,3.5,2.6c0.5,1,0.6,2.2,0.2,3.5l0,0
			c-0.7,2.1-2.2,3.1-4,3.2l1.2,3.2c0.2,0.5,0.3,0.8,0.1,1.3c-0.2,0.7-0.8,1-1.4,1c-0.2,0-0.3,0-0.5-0.1c-0.7-0.2-1-0.7-1.2-1.2
			l-1.7-4.6l-2.4-0.8l-1,2.9c-0.2,0.7-0.8,1.1-1.5,1.1c-0.2,0-0.3,0-0.5-0.1c-0.8-0.3-1.3-1.1-1-2l3.5-10.6
			C32.3,112.1,32.9,111.7,33.5,111.7 M37.4,119.9c0.9,0,1.6-0.5,1.9-1.3l0,0c0.4-1.3-0.3-2.2-1.7-2.7l-2.9-1l-1.3,3.9l3,1
			C36.8,119.9,37.1,119.9,37.4,119.9 M69.3,115c0.8,0,1.4,0.6,1.5,1.4l1.3,11.2c0.1,0.9-0.5,1.6-1.4,1.7l-0.1,0c-0.1,0-0.2,0-0.2,0
			c-0.6,0-1-0.3-1.5-0.7l-7.1-7.4l0.9,7.5c0.1,0.8-0.5,1.6-1.4,1.7c-0.1,0-0.1,0-0.2,0c-0.8,0-1.4-0.6-1.5-1.4l-1.3-11.2
			c-0.1-0.9,0.5-1.6,1.4-1.7l0.3,0c0.1,0,0.2,0,0.2,0c0.6,0,1,0.3,1.5,0.7l6.9,7.2l-0.8-7.3c-0.1-0.8,0.5-1.6,1.4-1.7
			C69.2,115,69.2,115,69.3,115 M47,115.4c0.1,0,0.1,0,0.2,0l7.8,0.8c0.8,0.1,1.3,0.8,1.3,1.5c-0.1,0.7-0.7,1.2-1.4,1.2
			c0,0-0.1,0-0.1,0l-6.3-0.6l-0.3,2.9l5.4,0.5c0.8,0.1,1.3,0.8,1.3,1.5c-0.1,0.7-0.7,1.2-1.4,1.2c0,0-0.1,0-0.1,0l-5.4-0.5l-0.3,3
			l6.4,0.6c0.8,0.1,1.3,0.8,1.3,1.5c-0.1,0.7-0.7,1.2-1.4,1.2c0,0-0.1,0-0.1,0l-7.9-0.8c-0.9-0.1-1.5-0.8-1.4-1.7l1.1-11
			C45.5,116,46.2,115.4,47,115.4 M11.9,94.4L11.9,94.4c-1.2,0-2.4,0.5-3.3,1.4l-7.5,8.3c-0.8,0.9-1.2,2-1.1,3.2
			c0.1,1.2,0.6,2.3,1.4,3c0.8,0.7,1.9,1.1,3,1.1c1.2,0,2.4-0.5,3.2-1.4c1.3,1.1,2.7,1.8,4.1,2.1c-0.3,0.3-0.8,0.7-1.2,1.3
			c-0.6,1-0.8,2.1-0.5,3.2c0.3,1.1,1,2.1,2,2.7c0.7,0.4,1.5,0.6,2.2,0.6c0.9,0,1.8-0.3,2.6-0.9l0.5-0.4l2.1,1.3l-0.1,0.5
			c-0.2,1.9,0.6,3.6,2.1,4.5c0.7,0.4,1.4,0.6,2.2,0.6c0.7,0,1.5-0.2,2.1-0.5c0.1,0.3,0.2,0.6,0.3,0.8c0.5,1,1.4,1.8,2.6,2.2
			c0.4,0.1,0.9,0.2,1.4,0.2c1.4,0,2.6-0.6,3.4-1.6l0.4,1.1c0.7,1.9,2,2.6,3,3c0.4,0.1,0.9,0.2,1.4,0.2c1.4,0,2.6-0.6,3.4-1.7
			c0.2,0.5,0.4,1.1,0.8,1.5c0.7,0.9,1.8,1.5,3,1.6l7.9,0.8c0.1,0,0.3,0,0.4,0c1.5,0,2.8-0.8,3.6-1.9c0.8,1.3,2.2,2.1,3.7,2.1
			c0.2,0,0.3,0,0.5,0c1.2-0.1,2.2-0.7,2.9-1.6c0.6-0.7,0.9-1.6,0.9-2.5l1.4,1.4c0.4,0.4,1.6,1.6,3.5,1.6c0.2,0,0.4,0,0.6,0l0.1,0
			c2.4-0.3,4.1-2.5,3.9-4.9l-0.9-7.4c0.2,0,0.5-0.1,0.7-0.2l0.2-0.1l2.3,6.7c0.6,1.8,2.3,3,4.1,3c0.5,0,1-0.1,1.4-0.2
			c1.1-0.4,2-1.2,2.5-2.2c0.5-1.1,0.6-2.2,0.2-3.4l-2.3-6.7l0.2-0.1c0.1,0,0.3-0.1,0.4-0.2c0.7,0.8,1.4,1.4,2.3,1.8
			c-0.5,1.2-0.5,2.6,0.2,3.8c0.7,1.2,1.9,2,3.3,2.1c0.4,0,0.8,0.1,1.2,0.1c2.1,0,4.1-0.5,6-1.6c4.1-2.4,5.5-6.6,3.4-10.3l0,0l0,0
			c-0.9-1.6-2.2-2.6-3.8-3.1c0,0,0,0,0,0c0.3-1.1,0.2-2.3-0.4-3.3c-0.7-1.3-2.1-2.1-3.6-2.2c-0.2,0-0.3,0-0.5,0
			c-1.9,0-3.8,0.5-5.6,1.5c-1.4,0.8-2.5,1.9-3.2,3.1c-0.3-0.1-0.7-0.1-1-0.1c-0.5,0-0.9,0.1-1.4,0.2l-8.6,2.9
			c-0.5,0.2-1,0.5-1.4,0.8c-0.4-0.1-0.9-0.2-1.3-0.2c-0.2,0-0.3,0-0.5,0c-2.1,0.2-3.6,1.9-3.9,3.9l-1.2-1.2
			c-0.4-0.4-1.6-1.6-3.5-1.6c-0.2,0-0.4,0-0.6,0l-0.3,0c-0.8,0.1-1.5,0.4-2.1,0.8c-0.6-0.4-1.3-0.7-2.1-0.8l-7.8-0.8
			c-0.1,0-0.3,0-0.4,0c-1.1,0-2.1,0.4-2.9,1.1c-0.8-1.1-2.2-2.3-4.5-3l-4.7-1.5c-0.4-0.1-0.9-0.2-1.4-0.2h0c-1.9,0-3.6,1.2-4.2,3
			l-0.3,0.8l0.4-3.1c0.2-2-0.6-3.8-2.3-4.8l-0.2-0.1c-0.7-0.4-1.6-0.7-2.4-0.7c-1,0-2,0.3-2.8,0.9l-0.9,0.6c0.4-2.5-0.6-5.1-2.9-7.2
			l-3.1-2.8C14.1,94.8,13,94.4,11.9,94.4L11.9,94.4z M36.9,118.6L36.9,118.6L36.9,118.6z"/>
	</g>
</g>
<g>
	<circle class="st1" cx="57.2" cy="54" r="54"/>
	<g>
		<circle class="st2" cx="48.9" cy="28.2" r="16.7"/>
		<path class="st2" d="M60.4,48.6c-3.5-1.8-7.4-2.7-11.5-2.7c-14.1,0-25.5,11.4-25.5,25.5v12.5"/>
		<circle class="st2" cx="72.7" cy="54.6" r="13.7"/>
		<path class="st2" d="M92.3,82.5C89.3,74.6,81.7,69,72.7,69c-11.6,0-21,9.4-21,21v8.9"/>
	</g>
</g>
</svg>
