<?xml version="1.0" encoding="utf-8"?>
<!-- Generator: Adobe Illustrator 19.2.1, SVG Export Plug-In . SVG Version: 6.00 Build 0)  -->
<svg version="1.1" id="Layer_1" xmlns="http://www.w3.org/2000/svg" xmlns:xlink="http://www.w3.org/1999/xlink" x="0px" y="0px"
	 viewBox="0 0 132.1 133.1" style="enable-background:new 0 0 132.1 133.1;" xml:space="preserve">
<style type="text/css">
	.st0{fill:#FFFFFF;}
	.st1{fill:#4E9D2D;}
	.st2{fill:none;stroke:#FFFFFF;stroke-width:2.8346;stroke-linecap:round;stroke-linejoin:round;stroke-miterlimit:10;}
</style>
<g>
	<g>
		<path class="st0" d="M82.4,131.6c-1.5,0-2.8-1.1-3-2.7l-1-8.9c-0.5,0.3-1,0.5-1.6,0.5c-0.1,0-0.2,0-0.3,0l-1.6-0.1l-0.8,8.4
			c-0.1,1.5-1.4,2.7-3,2.7c-0.1,0-0.2,0-0.3,0c-1.6-0.1-2.8-1.6-2.7-3.2l0.8-8.4l-1.6-0.1c-0.5,0-0.9-0.2-1.3-0.4
			c0,0.3-0.1,0.6-0.2,0.8c-0.6,1.9-1.8,3.3-3.4,3.9l0.7,1.6c0.3,0.7,0.5,1.4,0.2,2.2c-0.4,1.2-1.5,2-2.7,2c-0.3,0-0.6,0-0.9-0.1
			c-1-0.3-1.7-1-2.2-2.1l-1.5-3.9l-0.4-0.1l-0.5,1.6c-0.4,1.3-1.5,2.1-2.8,2.1c-0.3,0-0.6,0-0.9-0.1c-0.8-0.2-1.4-0.7-1.8-1.4
			c-0.4-0.7-0.5-1.5-0.2-2.3l3.2-10.7c0.4-1.3,1.5-2.1,2.8-2.1c0.3,0,0.6,0,0.9,0.1l4.7,1.4c1.9,0.6,3.3,1.5,4.1,2.8
			c0.5-0.7,1.4-1.2,2.3-1.2c0.1,0,0.2,0,0.3,0l9.1,0.8c0.7,0.1,1.3,0.4,1.8,0.9c0.5-0.6,1.2-0.9,1.9-1l7.8-0.8c0.1,0,0.2,0,0.3,0
			c0.8,0,1.6,0.4,2.1,0.9c0.3-0.8,1-1.6,1.9-1.9l4.7-1.5c0.9-0.3,1.9-0.5,2.7-0.5c1,0,1.9,0.2,2.8,0.6c0.5,0.3,1,0.6,1.4,1.1
			c-0.1-0.9,0-1.7,0.3-2.6c0.5-1.4,1.6-2.7,3.1-3.5c1.6-0.9,3.2-1.3,4.9-1.3c0.1,0,0.3,0,0.4,0c0.9,0,1.9,0.6,2.4,1.4
			c0.8,1.3,0.4,3-0.9,3.8c0.2,0,0.4,0,0.6,0c2,0,3.5,0.9,4.5,2.6c1.7,3.1,0.6,6.4-2.8,8.4c-1.6,0.9-3.4,1.4-5.3,1.4
			c-0.4,0-0.7,0-1.1-0.1c-0.9-0.1-1.7-0.6-2.2-1.4c-0.8-1.4-0.3-3.1,1.1-3.9c0,0,0.1,0,0.1-0.1c0,0,0,0,0,0c-1.4,0-2.6-0.5-3.5-1.4
			c0.3,1.6,0.1,3.1-0.8,4.3l1.5,0.9c0.6,0.4,1.2,0.9,1.4,1.7c0.5,1.5-0.3,3.1-1.9,3.6c-0.3,0.1-0.7,0.2-1,0.2
			c-0.7,0-1.3-0.2-1.9-0.6l-3.5-2.3l-0.4,0.1l0.5,1.6c0.2,0.8,0.2,1.6-0.2,2.3c-0.4,0.7-1,1.2-1.7,1.5c-0.3,0.1-0.6,0.1-0.9,0.1
			c-1.3,0-2.4-0.8-2.8-2.1l-3.1-9.3c-0.1,0.2-0.2,0.3-0.3,0.5c-0.5,0.6-1.1,0.9-1.9,1l-4.9,0.5l0,0l4-0.4c0.1,0,0.2,0,0.3,0
			c1.4,0,2.6,1.1,2.8,2.5c0.1,0.8-0.1,1.5-0.6,2.1c-0.5,0.6-1.1,0.9-1.9,1l-4,0.4l0,0.1l5-0.5c0.1,0,0.2,0,0.3,0
			c1.4,0,2.6,1.1,2.8,2.5c0.1,0.7-0.1,1.5-0.6,2.1c-0.5,0.6-1.1,0.9-1.9,1l-7.9,0.8C82.6,131.6,82.5,131.6,82.4,131.6z M59.2,118.9
			c0.2,0.1,0.4,0.1,0.6,0.1l0,0c0.4,0,0.5-0.1,0.5-0.4c0.1-0.3,0-0.4,0-0.5c0-0.1-0.2-0.3-0.8-0.5l-1.6-0.5l-0.4,1.2L59.2,118.9z
			 M98,118.5l1.7-0.5c0.9-0.3,0.8-0.7,0.7-0.9c-0.1-0.4-0.3-0.4-0.5-0.4c-0.2,0-0.4,0-0.7,0.1l-1.6,0.5L98,118.5z M112.2,117.1
			c0.8,0,1.5-0.2,2.2-0.6c0,0,0.1,0,0.1-0.1c-0.4,0.1-0.8,0.2-1.3,0.3c-0.4,0.1-0.8,0.2-1.2,0.3C112,117.1,112.1,117.1,112.2,117.1z
			 M112,111c-0.3,0-0.6,0.1-0.8,0.2C111.4,111.2,111.7,111.1,112,111z M43.4,122.5c-1.6,0-3.2-0.4-4.7-1.3c-2.1-1.2-3.6-3.2-4.2-5.4
			c-0.6-2.1-0.3-4.4,0.8-6.4c-0.7,0.3-1.4,0.4-2.2,0.4c-1.8,0-3.6-0.8-5.1-2.3l-0.7-0.7l-1,1c-0.6,0.6-1.4,0.9-2.2,0.9
			c-0.8,0-1.5-0.3-2-0.8c-1.2-1.1-1.2-3-0.1-4.2l4.1-4.3c-0.7,0.3-1.4,0.4-2.1,0.4c-2.1,0-4.2-1.2-5.7-3.4l-0.5-0.8l-1.1,0.8
			c-0.5,0.4-1.1,0.5-1.7,0.5c-1,0-1.9-0.5-2.4-1.3c-0.5-0.7-0.6-1.4-0.5-2.2c0.1-0.8,0.6-1.5,1.2-1.9l8.2-5.8l-5,2.1
			c-1.3,0.5-2.5,0.8-3.6,0.8c-2.9,0-5.2-1.7-6.5-4.8c-1.8-4.4-0.2-8.1,4.2-9.9l4.5-1.9c-1.1-0.2-1.9-1-2.2-2.1
			c-0.5,1.9-1.6,3.5-4.1,4c-0.4,0.1-0.8,0.1-1.2,0.1c-2.9,0-5.1-2.1-5.8-5.5c-0.4-2.2-0.1-4.4,0.8-6.4c0.4-0.8,1.2-1.4,2.1-1.6
			c0.2,0,0.4-0.1,0.5-0.1c1.4,0,2.5,1,2.8,2.3c0,0,0,0.1,0,0.1c0.5-1.5,1.6-2.9,4-3.3c0.4-0.1,0.8-0.1,1.1-0.1
			c2.8,0,5.1,2.1,5.7,5.3c0.4,1.9,0.2,3.7-0.5,5.4c-0.1,0.3-0.3,0.6-0.5,0.9c0,0,0,0,0.1,0c1.2,0,2.3,0.7,2.7,1.8
			c0.6,1.5-0.1,3.3-1.6,3.9l-6.1,2.5c-1.9,0.8-1.5,1.8-1.3,2.3c0.4,0.9,0.9,1,1.3,1c0.3,0,0.7-0.1,1.2-0.3l6.2-2.6
			c0.4-0.2,0.8-0.2,1.2-0.2c1.2,0,2.3,0.7,2.7,1.8c0.5,1.1,0.2,2.4-0.6,3.2c0.2,0,0.4-0.1,0.6-0.1c1,0,1.9,0.5,2.4,1.3l2.4,3.5
			c1.1,1.6,1.6,3.4,1.4,5c0,0.3-0.1,0.6-0.2,0.8c0.5-0.3,1.1-0.5,1.7-0.5c0.8,0,1.5,0.3,2,0.8l3.1,2.9c2.3,2.2,3,4.9,2,7.3
			c1.2-0.7,2.6-1,4.1-1c1.6,0,3.2,0.4,4.7,1.3c4.3,2.5,5.8,7.8,3.3,12C49.3,120.9,46.5,122.5,43.4,122.5z M43.2,110.7
			c-1,0-2,0.6-2.5,1.6c-0.4,0.8-0.6,1.6-0.4,2.3c0.1,0.5,0.5,1.3,1.3,1.8c0.5,0.3,0.9,0.4,1.4,0.4c1,0,2-0.6,2.5-1.6
			c0.4-0.8,0.6-1.6,0.4-2.3c-0.1-0.5-0.5-1.3-1.3-1.8C44.2,110.8,43.7,110.7,43.2,110.7z M31.8,103.6c0.3,0.3,0.6,0.4,0.8,0.4l0,0
			c0.2,0,0.3-0.1,0.5-0.2c0.2-0.2,0.5-0.6-0.3-1.3l-0.7-0.7l-1,1.1L31.8,103.6z M22.9,93.4c0.3,0.4,0.6,0.6,0.8,0.6l0,0
			c0.1,0,0.3,0,0.4-0.1c0.3-0.2,0.3-0.4,0.4-0.5c0-0.1,0-0.4-0.4-0.9l-0.6-0.8l-1.2,0.9L22.9,93.4z M7.4,65.3
			C7,66.1,7,66.9,7.1,67.7c0,0.1,0,0.1,0,0.1c0-0.3,0.1-0.7,0.1-1.4C7.3,66.1,7.3,65.7,7.4,65.3z M13.2,66.4c0,0.3-0.1,0.6-0.1,0.9
			C13.2,67,13.2,66.7,13.2,66.4z"/>
		<path class="st1" d="M12.9,61.1c2.1,0,3.8,1.6,4.3,4.2c0.3,1.7,0.2,3.2-0.4,4.7c-0.1,0.4-0.5,0.8-1.1,0.9c-0.1,0-0.2,0-0.3,0
			c-0.7,0-1.3-0.5-1.4-1.2c-0.1-0.3,0-0.6,0.1-0.8c0.4-1.1,0.6-2.1,0.4-3.1c-0.2-1.1-0.8-1.6-1.4-1.6c-0.1,0-0.1,0-0.2,0l0,0
			c-0.9,0.2-1.1,0.8-1.3,3.4c-0.2,3-0.9,4.7-3.3,5.2l0,0c-0.3,0.1-0.6,0.1-0.9,0.1c-2.3,0-3.9-1.7-4.4-4.4c-0.3-1.8-0.1-3.8,0.7-5.6
			c0.2-0.4,0.6-0.7,1-0.8c0.1,0,0.2,0,0.3,0c0.7,0,1.3,0.5,1.4,1.2c0.1,0.4,0,0.7-0.1,0.9c-0.6,1.2-0.8,2.4-0.6,3.8
			c0.2,1.1,0.8,1.8,1.5,1.8c0.1,0,0.2,0,0.2,0l0,0c0.8-0.1,1.1-0.7,1.2-3.1c0.2-2.9,0.6-4.9,3.4-5.4l0,0
			C12.4,61.1,12.7,61.1,12.9,61.1 M17.7,72.7c0.6,0,1.2,0.4,1.4,1c0.3,0.8,0,1.7-0.8,2l-6.1,2.5c-2.1,0.9-2.8,2.4-2.1,4.2
			c0.5,1.2,1.4,1.9,2.6,1.9c0.5,0,1.1-0.1,1.7-0.4l6.2-2.6c0.2-0.1,0.4-0.1,0.6-0.1c0.6,0,1.2,0.4,1.4,1c0.3,0.8,0,1.7-0.8,2
			l-6.1,2.5c-1.1,0.5-2.1,0.7-3.1,0.7c-2.4,0-4.2-1.4-5.2-4C6,80,7.1,77,11,75.4l6.1-2.6C17.3,72.7,17.5,72.7,17.7,72.7 M24,86.2
			c0.5,0,1,0.2,1.3,0.7l2.4,3.5c1.9,2.8,1.5,5.6-0.9,7.3l0,0c-0.9,0.6-1.9,0.9-2.8,0.9c-1.7,0-3.4-1.1-4.6-2.8L18,93.8l-2.3,1.6
			c-0.3,0.2-0.6,0.3-0.9,0.3c-0.5,0-1-0.2-1.3-0.7c-0.5-0.7-0.3-1.7,0.4-2.2l9.2-6.4C23.4,86.3,23.7,86.2,24,86.2 M23.7,95.4
			c0.4,0,0.8-0.1,1.2-0.4l0,0c1.1-0.8,1.2-2,0.3-3.3l-1.4-2l-3.5,2.5l1.4,2C22.3,95,23,95.4,23.7,95.4 M31.8,96.3
			c0.4,0,0.8,0.1,1.1,0.4l3.1,2.9c2.5,2.3,2.6,5.2,0.6,7.3l0,0c-1,1.1-2.2,1.6-3.4,1.6c-1.4,0-2.9-0.7-4.2-1.9l-1.7-1.6l-1.9,2
			c-0.3,0.3-0.7,0.5-1.1,0.5c-0.4,0-0.8-0.1-1.1-0.4c-0.6-0.6-0.7-1.6-0.1-2.2l7.7-8.1C31,96.4,31.4,96.3,31.8,96.3 M32.6,105.5
			c0.6,0,1.1-0.2,1.5-0.7l0,0c1-1,0.8-2.2-0.4-3.3L32,99.8l-3,3.1l1.8,1.7C31.4,105.2,32.1,105.5,32.6,105.5 M42.9,106.3
			c1.3,0,2.7,0.3,3.9,1.1c3.8,2.2,4.9,6.6,2.8,10.1l0,0c-1.3,2.3-3.7,3.6-6.3,3.6c-1.3,0-2.7-0.3-3.9-1.1c-3.8-2.2-4.9-6.6-2.8-10.1
			l0,0C38,107.6,40.4,106.3,42.9,106.3 M43.1,118.2c1.5,0,2.9-0.8,3.8-2.3l0,0c1.2-2.1,0.7-4.7-1.5-6c-0.7-0.4-1.4-0.6-2.1-0.6
			c-1.5,0-2.9,0.8-3.8,2.3l0,0c-1.2,2.1-0.7,4.7,1.5,6C41.6,118,42.4,118.2,43.1,118.2 M112.9,106.6c0.1,0,0.2,0,0.4,0
			c0.4,0,0.9,0.2,1.2,0.7c0.4,0.7,0.2,1.6-0.6,2c-0.3,0.1-0.5,0.2-0.8,0.2c0,0,0,0,0,0c0,0-0.1,0-0.1,0c-1.1,0-2.1,0.2-2.9,0.7
			c-1,0.6-1.3,1.4-1,2l0,0c0.2,0.4,0.5,0.6,1.1,0.6c0.5,0,1.3-0.2,2.5-0.5c1-0.3,1.9-0.4,2.7-0.4c1.4,0,2.5,0.5,3.3,1.9l0,0
			c1.4,2.4,0.3,4.9-2.3,6.4c-1.4,0.8-2.9,1.2-4.6,1.2c-0.3,0-0.6,0-0.9,0c-0.4,0-0.9-0.3-1.1-0.7c-0.4-0.7-0.2-1.6,0.6-2
			c0.3-0.2,0.5-0.2,0.8-0.2c0.1,0,0.1,0,0.2,0c0.3,0,0.6,0.1,0.9,0.1c1,0,2-0.2,2.9-0.7c1.1-0.6,1.5-1.5,1.1-2.2l0,0
			c-0.2-0.4-0.5-0.6-1.1-0.6c-0.5,0-1.2,0.1-2.3,0.4c-1.1,0.3-2.1,0.5-3,0.5c-1.3,0-2.4-0.5-3.2-2l0,0c-1.3-2.2-0.3-4.7,2.2-6.2
			C110.1,107,111.5,106.6,112.9,106.6 M55.8,112.2c0.2,0,0.3,0,0.5,0.1l4.7,1.4c1.7,0.5,2.9,1.4,3.5,2.6c0.5,1,0.6,2.2,0.2,3.5l0,0
			c-0.6,2.1-2.1,3.1-4,3.3l1.3,3.1c0.2,0.5,0.3,0.8,0.1,1.3c-0.2,0.7-0.8,1-1.4,1c-0.1,0-0.3,0-0.4-0.1c-0.7-0.2-1-0.7-1.2-1.2
			l-1.8-4.6L55,122l-0.9,3c-0.2,0.7-0.8,1.1-1.5,1.1c-0.2,0-0.3,0-0.5-0.1c-0.8-0.3-1.3-1.1-1-1.9l3.2-10.7
			C54.6,112.6,55.2,112.2,55.8,112.2 M59.8,120.4c1,0,1.6-0.5,1.9-1.4l0,0c0.4-1.3-0.3-2.2-1.8-2.6l-3-0.9l-1.2,3.9l3,0.9
			C59.2,120.3,59.5,120.4,59.8,120.4 M100.4,112.4c0.8,0,1.5,0.2,2.1,0.5c1,0.5,1.7,1.4,2.2,2.7l0,0c0.7,2.1,0.1,3.8-1.4,5l2.9,1.8
			c0.4,0.3,0.7,0.5,0.9,1c0.3,0.8-0.2,1.6-1,1.8c-0.2,0.1-0.4,0.1-0.6,0.1c-0.4,0-0.8-0.2-1.1-0.4l-4.1-2.7l-2.4,0.8l1,2.9
			c0.3,0.8-0.2,1.7-1,2c-0.2,0.1-0.3,0.1-0.5,0.1c-0.7,0-1.3-0.4-1.5-1.1l-3.5-10.6c-0.3-0.8,0.2-1.7,1-2l4.7-1.5
			C98.9,112.5,99.7,112.4,100.4,112.4 M97.1,120.3l3-1c1.4-0.5,2-1.5,1.6-2.6l0,0c-0.3-0.9-1-1.4-1.8-1.4c-0.3,0-0.7,0.1-1.1,0.2
			l-2.9,1L97.1,120.3 M89,115.3c0.7,0,1.3,0.5,1.4,1.2c0.1,0.8-0.5,1.4-1.2,1.5l-6.3,0.7l0.3,2.9l5.4-0.6c0.1,0,0.1,0,0.1,0
			c0.7,0,1.3,0.5,1.4,1.2c0.1,0.8-0.5,1.4-1.2,1.5l-5.4,0.6l0.3,3l6.4-0.7c0.1,0,0.1,0,0.2,0c0.7,0,1.3,0.5,1.4,1.2
			c0.1,0.8-0.5,1.4-1.2,1.5l-7.9,0.8c-0.1,0-0.1,0-0.2,0c-0.8,0-1.5-0.6-1.5-1.4l-1.2-11c-0.1-0.9,0.5-1.6,1.4-1.7l7.8-0.8
			C88.9,115.3,89,115.3,89,115.3 M67.8,115.4c0,0,0.1,0,0.1,0l9.1,0.8c0.8,0.1,1.4,0.8,1.3,1.6c-0.1,0.7-0.7,1.3-1.4,1.3
			c0,0-0.1,0-0.1,0l-3-0.3l-0.9,9.8c-0.1,0.8-0.7,1.4-1.5,1.4c0,0-0.1,0-0.1,0c-0.9-0.1-1.5-0.8-1.4-1.7l0.9-9.8l-3-0.3
			c-0.8-0.1-1.4-0.8-1.3-1.6C66.5,116,67.1,115.4,67.8,115.4 M12.9,58.2c-0.4,0-0.9,0-1.4,0.1l0,0l-0.1,0c-1.7,0.3-2.9,1-3.7,1.9
			c-0.8-0.7-1.8-1.1-2.8-1.1c-0.3,0-0.5,0-0.8,0.1c-1.4,0.3-2.5,1.2-3.1,2.4c-1,2.2-1.3,4.8-0.9,7.2c0.7,3.5,2.8,5.9,5.7,6.5
			c-2.1,2.4-2.5,5.6-1,9.1c1.5,3.6,4.4,5.7,7.8,5.7c0,0,0,0,0,0l-0.4,0.3c-1,0.7-1.6,1.7-1.8,2.8c-0.2,1.2,0.1,2.3,0.7,3.3
			c0.8,1.2,2.2,1.9,3.6,1.9c0.9,0,1.8-0.3,2.5-0.8c1.4,1.8,3.2,3.1,5.2,3.5l-1.6,1.7c-0.8,0.9-1.2,2-1.2,3.1c0,1.2,0.5,2.3,1.4,3.1
			c0.8,0.8,1.9,1.2,3,1.2c1.2,0,2.4-0.5,3.2-1.4c1.7,1.5,3.8,2.3,5.8,2.3c0,0,0,0,0,0c-1,4.3,0.9,8.8,5,11.2c1.7,1,3.5,1.5,5.4,1.5
			c1.9,0,3.7-0.5,5.2-1.4l-0.2,0.7c-0.3,1.1-0.2,2.3,0.3,3.3c0.6,1,1.5,1.8,2.6,2.1c0.4,0.1,0.8,0.2,1.3,0.2c1.4,0,2.7-0.7,3.5-1.7
			l0.4,1.1c0.7,1.8,2.1,2.6,3.1,2.9c0.4,0.1,0.8,0.2,1.3,0.2c1.9,0,3.6-1.2,4.1-3c0.4-1.5,0-2.6-0.2-3.1l0,0l0,0l-0.2-0.4
			c1.2-0.8,2.2-2,2.8-3.6c0.1,0,0.1,0,0.2,0l0.2,0l-0.6,7c-0.1,1.2,0.2,2.3,1,3.2c0.8,0.9,1.8,1.5,3,1.6c0.1,0,0.3,0,0.4,0
			c2.3,0,4.2-1.7,4.4-4l0.6-7l0.2,0c0.1,0,0.3,0,0.4,0c0.1,0,0.2,0,0.4,0l0.8,7.2c0.2,2.2,2.1,3.9,4.4,3.9c0.2,0,0.3,0,0.5,0
			l7.9-0.8c1.1-0.1,2.1-0.7,2.8-1.5c0.3-0.4,0.5-0.7,0.7-1.2c0.8,0.8,1.9,1.3,3.1,1.3c0.5,0,0.9-0.1,1.4-0.2c1.1-0.4,2-1.1,2.6-2.2
			c0.3-0.6,0.4-1.2,0.5-1.8l1,0.7c0.8,0.6,1.8,0.9,2.7,0.9c0.5,0,1-0.1,1.5-0.2c1-0.3,1.9-1,2.4-2c0.3-0.6,0.5-1.2,0.6-1.9
			c0.2,0.1,0.5,0.1,0.7,0.1c0.4,0,0.8,0.1,1.2,0.1c2.1,0,4.1-0.6,6-1.6c4.1-2.4,5.5-6.6,3.4-10.3c-0.9-1.6-2.2-2.7-3.9-3.1
			c0.3-1.1,0.2-2.3-0.4-3.3c-0.7-1.3-2.1-2.1-3.6-2.2c-0.2,0-0.3,0-0.5,0c-1.9,0-3.8,0.5-5.6,1.5c-1.8,1.1-3.1,2.5-3.8,4.3
			c-0.1,0.2-0.1,0.3-0.2,0.5c-0.9-0.4-1.9-0.6-3-0.6h0c-1,0-2.1,0.2-3.1,0.5l-4.7,1.5c-0.7,0.2-1.4,0.7-1.9,1.2
			c-0.5-0.2-1.1-0.3-1.7-0.3c-0.1,0-0.3,0-0.5,0l-7.8,0.8c-0.7,0.1-1.3,0.3-1.8,0.6c-0.5-0.3-1-0.4-1.6-0.5l-9.1-0.8
			c-0.1,0-0.3,0-0.4,0h0c-0.8,0-1.5,0.2-2.1,0.6c-0.9-0.8-2.1-1.7-3.9-2.2l-4.7-1.4c-0.4-0.1-0.8-0.2-1.3-0.2
			c-1.1,0-2.1,0.4-2.9,1.1c-0.8-2.2-2.4-4.2-4.6-5.5c-1.7-1-3.5-1.5-5.4-1.5h0c-0.8,0-1.5,0.1-2.2,0.2c0-2.2-0.9-4.3-2.8-6.1
			l-3.1-2.9c-0.8-0.8-1.9-1.2-3-1.2h0c0,0,0,0,0,0c-0.1-1.6-0.6-3.2-1.7-4.8l-2.4-3.5c-0.5-0.7-1.2-1.3-2-1.6
			c0.2-0.9,0.1-1.7-0.3-2.6c-0.7-1.6-2.3-2.7-4-2.7c-0.6,0-1.2,0.1-1.7,0.3l-6.2,2.6c-0.3,0.1-0.4,0.1-0.5,0.2c0,0,0-0.1-0.1-0.1
			c0-0.1,0-0.1,0-0.1c0.1-0.1,0.3-0.2,0.6-0.3l6.1-2.5c1.1-0.5,1.9-1.3,2.4-2.4c0.4-1.1,0.4-2.3,0-3.4c-0.4-1-1.2-1.8-2.1-2.2
			c0.6-1.8,0.7-3.7,0.3-5.6C19.3,60.8,16.4,58.2,12.9,58.2L12.9,58.2z M43.1,115.3c-0.2,0-0.5-0.1-0.7-0.2c-0.4-0.2-0.6-0.5-0.7-0.9
			c-0.1-0.4,0-0.8,0.2-1.3l0,0l0-0.1c0.3-0.5,0.8-0.8,1.3-0.8c0.2,0,0.5,0.1,0.7,0.2c0.4,0.2,0.6,0.5,0.7,0.9c0.1,0.4,0,0.8-0.2,1.3
			l0,0l0,0.1C44.1,115,43.6,115.3,43.1,115.3L43.1,115.3z M111.4,112.7L111.4,112.7L111.4,112.7L111.4,112.7z M59.3,119.1
			L59.3,119.1L59.3,119.1z"/>
	</g>
</g>
<g>
	<circle class="st1" cx="78" cy="54" r="54"/>
	<g>
		<path class="st2" d="M78,25.3c-9.3-6.2-22-5.1-30.3,3.1c-9.4,9.4-9.4,24.6,0,34"/>
		<line class="st2" x1="100.7" y1="69.9" x2="81.4" y2="50.7"/>
		<line class="st2" x1="93.1" y1="77.5" x2="73.9" y2="58.2"/>
		<path class="st2" d="M108.3,62.4"/>
		<path class="st2" d="M108.3,62.4c9.4-9.4,9.4-24.6,0-34s-24.6-9.4-34,0L56.5,46.1c4.2,4.2,10.9,4.2,15.1,0l10.2-10.2"/>
		<path class="st2" d="M62.9,62.4c2.1-2.1,2.1-5.5,0-7.6c-2.1-2.1-5.5-2.1-7.6,0l-7.6,7.6c-2.1,2.1-2.1,5.5,0,7.6
			c2.1,2.1,5.5,2.1,7.6,0L62.9,62.4z"/>
		<path class="st2" d="M70.5,69.9c2.1-2.1,2.1-5.5,0-7.6s-5.5-2.1-7.6,0l-7.6,7.6c-2.1,2.1-2.1,5.5,0,7.6c2.1,2.1,5.5,2.1,7.6,0
			L70.5,69.9z"/>
		<path class="st2" d="M78,77.5c2.1-2.1,2.1-5.5,0-7.6c-2.1-2.1-5.5-2.1-7.6,0l-7.6,7.6c-2.1,2.1-2.1,5.5,0,7.6
			c2.1,2.1,5.5,2.1,7.6,0L78,77.5z"/>
		<path class="st2" d="M85.6,85.1c2.1-2.1,2.1-5.5,0-7.6c-2.1-2.1-5.5-2.1-7.6,0l-7.6,7.6c-2.1,2.1-2.1,5.5,0,7.6s5.5,2.1,7.6,0
			L85.6,85.1z"/>
		<path class="st2" d="M85.6,85.1c2.1,2.1,2.1,5.5,0,7.6c-2.1,2.1-5.5,2.1-7.6,0"/>
		<path class="st2" d="M93.1,77.5c2.1,2.1,2.1,5.5,0,7.6c-2.1,2.1-5.5,2.1-7.6,0"/>
		<path class="st2" d="M100.7,69.9c2.1,2.1,2.1,5.5,0,7.6c-2.1,2.1-5.5,2.1-7.6,0"/>
		<path class="st2" d="M108.3,62.4c2.1,2.1,2.1,5.5,0,7.6c-2.1,2.1-5.5,2.1-7.6,0"/>
		<line class="st2" x1="81.8" y1="35.9" x2="108.3" y2="62.4"/>
	</g>
</g>
</svg>
