<?xml version="1.0" encoding="utf-8"?>
<!-- Generator: Adobe Illustrator 19.2.1, SVG Export Plug-In . SVG Version: 6.00 Build 0)  -->
<svg version="1.1" id="Layer_1" xmlns="http://www.w3.org/2000/svg" xmlns:xlink="http://www.w3.org/1999/xlink" x="0px" y="0px"
	 viewBox="0 0 90 90" style="enable-background:new 0 0 90 90;" xml:space="preserve">
<style type="text/css">
	.st0{fill:none;}
	.st1{fill:#394ca0;}
</style>
<rect class="st0" width="90" height="90"/>
<path class="st1" d="M73.4,73.5C65.7,81.2,56.3,85,45,85s-20.7-3.8-28.4-11.5C8.9,65.9,5,56.4,5,45s3.9-20.9,11.6-28.5
	C24.3,8.8,33.7,5,45,5s20.7,3.8,28.4,11.5C81.1,24.1,85,33.6,85,45S81.1,65.9,73.4,73.5z M67.7,45.1c0-6.9-2.2-12.8-6.5-17.7
	c-4.4-4.9-9.7-7.3-16.1-7.3S33.4,22.5,29,27.4s-6.5,10.8-6.5,17.7s2.2,12.8,6.5,17.6c4.4,4.8,9.7,7.3,16.1,7.3s11.7-2.4,16.1-7.3
	C65.5,57.8,67.7,52,67.7,45.1z"/>
</svg>
