<?xml version="1.0" encoding="utf-8"?>
<!-- Generator: Adobe Illustrator 20.1.0, SVG Export Plug-In . SVG Version: 6.00 Build 0)  -->
<svg version="1.1" id="Layer_1" xmlns="http://www.w3.org/2000/svg" xmlns:xlink="http://www.w3.org/1999/xlink" x="0px" y="0px"
	 viewBox="0 0 90 90" style="enable-background:new 0 0 90 90;" xml:space="preserve">
<style type="text/css">
	.st0{fill:none;}
	.st1{fill:#0813DC;}
</style>
<rect y="0" class="st0" width="90" height="90"/>
<path class="st1" d="M59.2,57.1c2.1-0.4,4-0.9,5.8-1.5c2.5-0.9,4.6-2.1,6.3-3.5c4-3.3,6.3-8.2,7-14.8c0-0.1,0-0.2,0-0.4
	c0-0.5,0.1-0.9,0.1-1.4c0.1-0.8,0.1-1.7,0.1-2.6c0-8.4-2.4-14.5-7.2-18.2C66.5,10.9,58.5,9,47.3,9H9v72h16.1V58h14.8l23.3,23H83
	L59.2,57.1z M47.8,44.2H25.1V22.8h23c5.2,0,8.8,0.7,10.8,2.2c2.1,1.4,3.1,4.1,3.1,8s-1,6.7-3,8.5S53.3,44.2,47.8,44.2z"/>
</svg>
