<?xml version="1.0" encoding="utf-8"?>
<!-- Generator: Adobe Illustrator 18.1.1, SVG Export Plug-In . SVG Version: 6.00 Build 0)  -->
<svg version="1.1" id="Layer_1" xmlns="http://www.w3.org/2000/svg" xmlns:xlink="http://www.w3.org/1999/xlink" x="0px" y="0px"
	 viewBox="-434.6 235 960 130" enable-background="new -434.6 235 960 130" xml:space="preserve">
<g>
	<g>
		<polygon fill="#C26B11" points="-351.4,361.6 -434.6,361.6 -434.6,364.6 -352.8,364.6 		"/>
		<polygon fill="#EF7622" points="-336.6,330 -434.6,330 -434.6,362.4 -351.7,362.4 		"/>
		<polygon fill="#D35E13" points="-336.6,330 -381.2,264.9 -407.7,321.7 -351.7,362.4 		"/>
		<polygon fill="#C26B11" points="-353.1,364.2 -351.7,362.4 -405.3,322.5 -407.7,325.7 		"/>
		<polygon fill="#C26B11" points="18.1,320.7 18.1,325.7 -407.7,325.7 -407.7,321.7 -406.7,320.7 		"/>
		<polygon fill="#EF7622" points="17.7,264.9 -381.2,264.9 -407.7,321.7 17.7,321.7 		"/>
	</g>
	<g>
		<polygon fill="#C26B11" points="442.1,361.6 525.4,361.6 525.4,364.6 443.5,364.6 		"/>
		<polygon fill="#EF7622" points="427.3,330 525.4,330 525.4,362.4 442.4,362.4 		"/>
		<polygon fill="#D35E13" points="427.3,330 471.9,264.9 498.4,321.7 442.4,362.4 		"/>
		<polygon fill="#C26B11" points="443.8,364.2 442.4,362.4 496,322.5 498.4,325.7 		"/>
		<polygon fill="#C26B11" points="72.6,320.7 72.6,325.7 498.4,325.7 498.4,321.7 497.4,320.7 		"/>
		<polygon fill="#EF7622" points="73,264.9 471.9,264.9 498.4,321.7 73,321.7 		"/>
	</g>
	<g>
		<path fill="#008AAB" d="M61,235H-14v66c0,22,15.7,35.2,42,35.2h4.2c0.5,0,1.1,0,1.6,0h58.3l10.9-0.4v-65.6
			C103,248.1,87.3,235,61,235z"/>
		<path fill="#FFFFFF" d="M92,276.4c-2.2-3.7-5.6-6.6-9.2-7c-6,0-11.5,0-18.5,0c-6.9,0.5-12.4,4.9-14.9,11V246H61
			c6.1,0,31,0.2,31,24.2V276.4z M92,286.7l-11.2,0.1c0,0,0-3.4-2.9-3.4c0,0-10.4,0-10.6,0c-1.8,0-3.3,1.6-3.3,3.4
			c0,1.8,1.5,3.9,3.3,3.9c3.2,0.1,7.7,0.2,11.4,0.2c5,0.1,10.1,2.6,13.4,6.6L92,286.7L92,286.7z M49.5,299.3
			C49,311,41.6,321,31.2,325.1H58c-5-2-7.4-6.3-7.4-12.6c0-1.6,0-3.4,0-3.4l14.3,0.1c0,0,0,2.4,2.1,2.4c0,0,9.8,0.1,10,0.1
			c1.8,0,3.4-2.2,3.4-4c0-1.8-1.6-3.5-3.4-3.5c-2.9-0.1-8.3,0-12.3,0c-6.5-0.1-12.5-4.1-15.1-10.2L49.5,299.3L49.5,299.3z
			 M84.4,325.1H92v-5.6C90.1,322,87.4,323.9,84.4,325.1z M20.6,284.8c-7.5,0-13.6,6.1-13.6,13.6c0,7.6,6.1,13.7,13.6,13.7
			c7.6,0,13.7-6.1,13.7-13.7C34.3,290.9,28.2,284.8,20.6,284.8z M-3,281.9c5.2-7.5,13.8-12.3,23.6-12.3c4.9,0,9.4,1.2,13.4,3.3
			v-26.8l-37,0.1V281.9z"/>
		<g>
			
				<image overflow="visible" opacity="0.75" enable-background="new    " width="119" height="103" xlink:href="B237E72.png"  transform="matrix(0.9909 0 0 0.9896 -11.8182 236.5988)">
			</image>
			<g>
				<path fill="#EF7622" d="M61.1,240.5h-3.2v0.1c-0.9-0.1-1.8-0.1-2.6-0.1H-2.9l-5.5,0.2V301c0,18.8,13.3,29.7,36.5,29.7h3.2v-0.1
					c0.9,0.1,1.8,0.1,2.6,0.1h58.2l5.5-0.2v-60.3C97.5,251.3,84.2,240.5,61.1,240.5z M-3,281.9v-35.7l37-0.1v26.8
					c-4-2.1-8.6-3.3-13.4-3.3C10.8,269.6,2.2,274.5-3,281.9z M20.6,311.9c-7.5,0-13.6-6.1-13.6-13.7c0-7.5,6.1-13.6,13.6-13.6
					c7.6,0,13.7,6.1,13.7,13.6C34.3,305.8,28.2,311.9,20.6,311.9z M76.9,311.7c-0.2,0-10-0.1-10-0.1c-2.1,0-2.1-2.4-2.1-2.4
					l-14.3-0.1c0,0,0,1.8,0,3.4c0,6.3,2.4,10.6,7.4,12.6H31.1c10.4-4.1,17.8-14.1,18.3-25.9v-5.2c2.6,6.1,8.6,10.1,15.1,10.2
					c4,0,9.4-0.1,12.3,0c1.8,0,3.4,1.7,3.4,3.5C80.4,309.6,78.8,311.7,76.9,311.7z M92,325.1h-7.6c3-1.1,5.7-3.1,7.6-5.6V325.1z
					 M92,297.6c-3.3-4-8.4-6.6-13.4-6.6c-3.7,0-8.2-0.1-11.4-0.2c-1.8,0-3.3-2.1-3.3-3.9c0-1.8,1.5-3.4,3.3-3.4c0.2,0,10.6,0,10.6,0
					c2.9,0,2.9,3.4,2.9,3.4l11.2-0.1L92,297.6L92,297.6z M92,276.4c-2.2-3.7-5.6-6.6-9.2-7c-6,0-11.5,0-18.5,0
					c-6.9,0.5-12.4,4.9-14.9,11V246H61c6.1,0,31,0.2,31,24.2V276.4z"/>
			</g>
		</g>
	</g>
	<g>
		
			<image overflow="visible" enable-background="new    " width="326" height="47" xlink:href="B237E71.png"  transform="matrix(0.9993 0 0 0.9993 -346.1744 273.9716)">
		</image>
		<g>
			<g>
				<path fill="#FFFFFF" d="M-318.8,281.2c3.2,2.9,4.8,7,4.8,12.2c0,5.2-1.6,9.3-4.7,12.4c-3.1,3-7.9,4.6-14.4,4.6h-11v-33.6h11.5
					C-326.6,276.8-322,278.3-318.8,281.2z M-319.6,293.6c0-7.7-4.4-11.5-13.2-11.5h-5.7v23h6.3c4.1,0,7.2-1,9.3-2.9
					C-320.7,300.2-319.6,297.3-319.6,293.6z"/>
				<path fill="#FFFFFF" d="M-283.1,276.8v5.3h-17.9v8.9h16.1v5h-16.1v9h18.5v5.3h-24.1v-33.5H-283.1z"/>
				<path fill="#FFFFFF" d="M-260,305.1c2,0,3.6-0.3,5-1c1.4-0.7,2.9-1.7,4.4-3.1l3.6,3.7c-3.6,3.9-7.9,5.9-12.9,5.9
					c-5.1,0-9.3-1.6-12.6-4.9c-3.3-3.3-5-7.4-5-12.4c0-5,1.7-9.2,5.1-12.5s7.7-5,12.9-5c5.2,0,9.5,1.9,13,5.8l-3.6,3.9
					c-1.6-1.5-3.1-2.6-4.5-3.2c-1.4-0.6-3.1-0.9-5-0.9c-3.4,0-6.2,1.1-8.5,3.3c-2.3,2.2-3.5,5-3.5,8.4s1.1,6.3,3.4,8.5
					C-265.9,304-263.1,305.1-260,305.1z"/>
				<path fill="#FFFFFF" d="M-212.6,305.6c-3.4,3.3-7.6,5-12.6,5s-9.2-1.7-12.6-5c-3.4-3.3-5.1-7.4-5.1-12.4c0-4.9,1.7-9.1,5.1-12.4
					s7.6-5,12.6-5s9.2,1.7,12.6,5c3.4,3.3,5.1,7.4,5.1,12.4C-207.5,298.3-209.2,302.4-212.6,305.6z M-216.8,284.7
					c-2.3-2.4-5.1-3.6-8.4-3.6c-3.3,0-6.1,1.2-8.4,3.6c-2.3,2.4-3.4,5.2-3.4,8.6c0,3.4,1.1,6.2,3.4,8.6c2.3,2.4,5.1,3.6,8.4,3.6
					s6.1-1.2,8.4-3.6s3.4-5.2,3.4-8.6C-213.3,290-214.5,287.1-216.8,284.7z"/>
				<path fill="#FFFFFF" d="M-173.6,287.7c0,5.5-2.4,9-7.2,10.5l8.8,12.2h-7.2l-8-11.3h-7.4v11.3h-5.7v-33.6h12.5
					c5.1,0,8.8,0.9,11,2.6C-174.7,281.1-173.6,283.9-173.6,287.7z M-181.1,292.5c1.2-1,1.7-2.6,1.7-4.8s-0.6-3.7-1.8-4.5
					c-1.2-0.8-3.3-1.2-6.3-1.2h-7.2v12h7.1C-184.5,294-182.3,293.5-181.1,292.5z"/>
				<path fill="#FFFFFF" d="M-160.7,302.7l-3.4,7.6h-6l14.8-33.6h6l14.8,33.6h-6l-3.4-7.6H-160.7z M-146.3,297.5l-6.1-13.8
					l-6.1,13.8H-146.3z"/>
				<path fill="#FFFFFF" d="M-119.9,282v28.4h-5.7V282h-10.2v-5.2h26v5.2H-119.9z"/>
				<path fill="#FFFFFF" d="M-103.6,276.8h5.7v33.6h-5.7V276.8z"/>
				<path fill="#FFFFFF" d="M-73.3,310.3h-6.3l-13.5-33.6h6.3l10.3,25.1l10.3-25.1h6.3L-73.3,310.3z"/>
				<path fill="#FFFFFF" d="M-31.4,276.8v5.3h-17.9v8.9h16.1v5h-16.1v9h18.4v5.3H-55v-33.5H-31.4z"/>
			</g>
		</g>
	</g>
	<g>
		
			<image overflow="visible" enable-background="new    " width="250" height="48" xlink:href="B237E7D.png"  transform="matrix(0.9993 0 0 0.9993 117.4874 271.9731)">
		</image>
		<g>
			<g>
				<path fill="#FFFFFF" d="M132.8,280.1c-1.6,0-3,0.3-4.1,1c-1.1,0.7-1.6,1.7-1.6,3c0,1.4,0.5,2.4,1.6,3.1c1.1,0.7,3.3,1.5,6.7,2.3
					c3.4,0.8,6,2,7.8,3.5c1.7,1.5,2.6,3.7,2.6,6.6s-1.1,5.3-3.3,7.1c-2.2,1.8-5.1,2.7-8.7,2.7c-5.2,0-9.9-1.8-14-5.4l3.6-4.3
					c3.4,2.9,6.9,4.4,10.6,4.4c1.8,0,3.3-0.4,4.3-1.2c1.1-0.8,1.6-1.8,1.6-3.1s-0.5-2.3-1.5-3c-1-0.7-2.7-1.4-5.2-2
					c-2.5-0.6-4.3-1.1-5.6-1.6c-1.3-0.5-2.4-1.1-3.4-1.9c-2-1.5-3-3.8-3-6.9c0-3.1,1.1-5.5,3.4-7.2c2.3-1.7,5-2.5,8.4-2.5
					c2.1,0,4.3,0.4,6.4,1.1c2.1,0.7,3.9,1.7,5.5,3l-3,4.3c-1-0.9-2.3-1.6-4-2.2C136.1,280.4,134.5,280.1,132.8,280.1z"/>
				<path fill="#FFFFFF" d="M176.5,275.7v5.3h-17.9v8.9h16.1v5h-16.1v9h18.5v5.3h-24.2v-33.5H176.5z"/>
				<path fill="#FFFFFF" d="M211.1,286.6c0,5.5-2.4,9-7.2,10.5l8.8,12.2h-7.2l-8-11.3h-7.4v11.3h-5.7v-33.6h12.5
					c5.1,0,8.8,0.9,11,2.6C210.1,280,211.1,282.8,211.1,286.6z M203.5,291.4c1.2-1,1.7-2.6,1.7-4.8s-0.6-3.7-1.8-4.5
					c-1.2-0.8-3.3-1.2-6.3-1.2h-7.2v12h7.1C200.2,292.9,202.4,292.4,203.5,291.4z"/>
				<path fill="#FFFFFF" d="M234.1,309.2h-6.3l-13.5-33.6h6.3l10.3,25.1l10.3-25.1h6.3L234.1,309.2z"/>
				<path fill="#FFFFFF" d="M252.4,275.7h5.7v33.6h-5.7V275.7z"/>
				<path fill="#FFFFFF" d="M282.6,304c2,0,3.6-0.3,5-1c1.4-0.7,2.9-1.7,4.4-3.1l3.6,3.7c-3.6,3.9-7.9,5.9-12.9,5.9
					c-5.1,0-9.3-1.6-12.6-4.9c-3.3-3.3-5-7.4-5-12.4s1.7-9.2,5.1-12.5c3.4-3.3,7.7-5,12.9-5s9.5,1.9,13,5.8l-3.6,3.9
					c-1.6-1.5-3.1-2.6-4.5-3.2c-1.4-0.6-3.1-0.9-5-0.9c-3.4,0-6.2,1.1-8.5,3.3c-2.3,2.2-3.5,5-3.5,8.4s1.1,6.3,3.4,8.5
					C276.7,303,279.5,304,282.6,304z"/>
				<path fill="#FFFFFF" d="M326.2,275.7v5.3h-17.9v8.9h16.1v5h-16.1v9h18.5v5.3h-24.1v-33.5H326.2z"/>
				<path fill="#FFFFFF" d="M344.2,280.1c-1.6,0-3,0.3-4.1,1s-1.6,1.7-1.6,3c0,1.4,0.5,2.4,1.6,3.1s3.3,1.5,6.7,2.3
					c3.4,0.8,6,2,7.8,3.5c1.7,1.5,2.6,3.7,2.6,6.6s-1.1,5.3-3.3,7.1c-2.2,1.8-5.1,2.7-8.7,2.7c-5.2,0-9.9-1.8-14-5.4l3.6-4
					c3.4,2.9,6.9,4.4,10.6,4.4c1.8,0,3.3-0.4,4.3-1.2c1.1-0.8,1.6-1.8,1.6-3.1c0-1.3-0.5-2.3-1.5-3c-1-0.7-2.7-1.4-5.2-2
					c-2.5-0.6-4.3-1.1-5.6-1.6s-2.4-1.1-3.4-1.9c-2-1.5-3-3.8-3-6.9s1.1-5.5,3.4-7.2c2.3-1.7,5-2.5,8.4-2.5c2.1,0,4.3,0.4,6.4,1.1
					c2.1,0.7,3.9,1.7,5.5,3l-3,4.3c-1-0.9-2.3-1.6-4-2.2C347.5,280.4,345.8,280.1,344.2,280.1z"/>
			</g>
		</g>
	</g>
</g>
<g>
	<g>
		<polygon fill="#008AAB" points="456.7,356.1 440.1,350.4 427.9,363 422.1,307.7 436.9,304.2 		"/>
		<polygon fill="#008AAB" points="387.5,356.1 404.1,350.4 416.3,363 422.1,307.7 407.2,304.2 		"/>
	</g>
	<polygon fill="#FFFFFF" stroke="#008AAB" stroke-width="4" stroke-miterlimit="10" points="411.7,251.4 422.1,240 432.5,251.4 
		447.1,246.7 450.4,261.7 465.4,265 460.7,279.7 472.1,290 460.7,300.4 465.4,315 450.4,318.3 447.1,333.3 432.5,328.6 422.1,340 
		411.7,328.6 397.1,333.3 393.8,318.3 378.8,315 383.5,300.4 372.1,290 383.5,279.7 378.8,265 393.8,261.7 397.1,246.7 	"/>
	
		<circle fill="#CAC8C8" stroke="#D86214" stroke-width="2" stroke-miterlimit="10" enable-background="new    " cx="422.1" cy="290" r="38.5"/>
	<g>
		<path fill="#D35E13" d="M394,282.9c0.2-0.3,0.3-0.5,0.3-0.8c0-0.3-0.1-0.5-0.3-0.6c-0.2-0.2-0.4-0.3-0.6-0.3c-0.5,0-0.9,0.3-1.4,1
			l-1.4-0.8c0.4-0.6,0.8-1,1.2-1.3s1-0.4,1.6-0.4c0.7,0,1.2,0.2,1.7,0.6c0.5,0.4,0.8,1,0.8,1.7c0,0.4-0.1,0.8-0.3,1.1
			c-0.2,0.4-0.6,0.8-1.1,1.4l-1.4,1.4h3v1.5h-5.4v-1.3l2.3-2.3C393.5,283.5,393.9,283.1,394,282.9z"/>
		<path fill="#D35E13" d="M400.3,284.2v-1.3h1.6v1.3h0.9v1.5H402v1.8h-1.6v-1.8h-3.1v-1.3l2.7-4.5h1.9l-2.6,4.4H400.3z"/>
		<path fill="#D35E13" d="M410.5,287.6h-1.7v-3l-2.7-4.7h1.9l1.7,2.9l1.7-2.9h1.9l-2.7,4.7V287.6z"/>
		<path fill="#D35E13" d="M419.5,279.9v1.5h-3.8v1.6h3.4v1.5h-3.4v1.6h3.9v1.5H414v-7.7H419.5z"/>
		<path fill="#D35E13" d="M426.6,287.6l-0.7-1.7h-3.2l-0.7,1.7h-1.8l3.3-7.7h1.7l3.3,7.7H426.6z M424.3,282.2l-1,2.2h1.9
			L424.3,282.2z"/>
		<path fill="#D35E13" d="M435.6,282.4c0,1.2-0.5,2-1.5,2.4l1.9,2.8H434l-1.7-2.5h-1.2v2.5h-1.7v-7.7h2.9c1.2,0,2,0.2,2.6,0.6
			C435.3,280.9,435.6,281.5,435.6,282.4z M433.5,283.3c0.2-0.2,0.3-0.5,0.3-0.9c0-0.4-0.1-0.7-0.3-0.9c-0.2-0.2-0.6-0.2-1.2-0.2
			h-1.3v2.3h1.3C432.9,283.6,433.3,283.5,433.5,283.3z"/>
		<path fill="#D35E13" d="M439.1,281.4c-0.2,0.1-0.2,0.3-0.2,0.5c0,0.2,0.1,0.4,0.3,0.5c0.2,0.1,0.7,0.3,1.4,0.5s1.3,0.4,1.7,0.8
			c0.4,0.4,0.6,0.9,0.6,1.6s-0.3,1.2-0.8,1.7c-0.5,0.4-1.2,0.6-2,0.6c-1.2,0-2.3-0.5-3.3-1.4l1-1.3c0.8,0.7,1.6,1.1,2.3,1.1
			c0.3,0,0.6-0.1,0.7-0.2c0.2-0.1,0.3-0.3,0.3-0.6s-0.1-0.4-0.3-0.5c-0.2-0.1-0.6-0.3-1.1-0.4c-0.9-0.2-1.5-0.5-2-0.8
			s-0.6-0.9-0.6-1.6c0-0.7,0.3-1.3,0.8-1.7s1.2-0.6,2-0.6c0.5,0,1,0.1,1.5,0.3c0.5,0.2,1,0.4,1.3,0.7l-0.9,1.3
			c-0.7-0.5-1.4-0.8-2.1-0.8C439.5,281.2,439.3,281.3,439.1,281.4z"/>
		<path fill="#D35E13" d="M451.7,286.9c-0.6,0.5-1.3,0.7-2.1,0.7c-0.8,0-1.5-0.2-2-0.6c-0.5-0.4-0.8-1-0.8-1.7
			c0-0.8,0.5-1.5,1.6-2.1c-0.2-0.3-0.4-0.6-0.5-0.8c-0.1-0.2-0.2-0.5-0.2-0.8c0-0.6,0.2-1.1,0.7-1.4s1-0.5,1.6-0.5s1.1,0.2,1.6,0.5
			c0.4,0.3,0.7,0.8,0.7,1.3c0,0.7-0.5,1.4-1.6,2c0.4,0.5,0.7,0.9,0.9,1.1c0.2-0.3,0.3-0.7,0.4-1.1l1.3,0.9c-0.2,0.5-0.4,0.9-0.6,1.3
			l1.1,1.1l-1.1,1L451.7,286.9z M448.8,286c0.2,0.2,0.5,0.3,0.8,0.3c0.3,0,0.7-0.2,1.1-0.5c-0.5-0.6-1-1.1-1.4-1.5
			c-0.6,0.4-0.8,0.7-0.8,1.1C448.5,285.6,448.6,285.9,448.8,286z M450,281c-0.2,0-0.3,0.1-0.4,0.2c-0.1,0.1-0.2,0.3-0.2,0.5
			s0.1,0.5,0.4,0.8c0.5-0.3,0.8-0.6,0.8-0.8c0-0.2-0.1-0.4-0.2-0.5C450.3,281,450.2,281,450,281z"/>
		<path fill="#D35E13" d="M394,299.2c0.8,0,1.5-0.3,2.1-1l1.1,1.1c-0.9,1-1.9,1.5-3.1,1.5s-2.2-0.4-2.9-1.1
			c-0.8-0.7-1.1-1.7-1.1-2.8c0-1.1,0.4-2.1,1.2-2.9c0.8-0.8,1.7-1.1,2.9-1.1c1.3,0,2.3,0.5,3.2,1.4l-1.1,1.2c-0.5-0.7-1.2-1-2-1
			c-0.6,0-1.2,0.2-1.7,0.6c-0.5,0.4-0.7,1-0.7,1.7c0,0.7,0.2,1.3,0.6,1.7S393.4,299.2,394,299.2z"/>
		<path fill="#D35E13" d="M404.8,299.7c-0.8,0.8-1.7,1.1-2.9,1.1s-2.1-0.4-2.9-1.1s-1.2-1.7-1.2-2.8s0.4-2.1,1.2-2.8
			c0.8-0.8,1.7-1.1,2.9-1.1s2.1,0.4,2.9,1.1c0.8,0.8,1.2,1.7,1.2,2.8S405.6,298.9,404.8,299.7z M404.2,296.9c0-0.7-0.2-1.3-0.7-1.8
			c-0.4-0.5-1-0.7-1.6-0.7c-0.6,0-1.2,0.2-1.6,0.7c-0.4,0.5-0.7,1.1-0.7,1.8c0,0.7,0.2,1.3,0.7,1.7c0.4,0.5,1,0.7,1.6,0.7
			c0.6,0,1.2-0.2,1.6-0.7C404,298.1,404.2,297.6,404.2,296.9z"/>
		<path fill="#D35E13" d="M409.4,298.8c0.3,0.4,0.7,0.5,1.2,0.5c0.5,0,0.9-0.2,1.1-0.5c0.3-0.4,0.4-0.8,0.4-1.5v-4.2h1.7v4.3
			c0,1.1-0.3,2-0.9,2.6s-1.4,0.9-2.4,0.9s-1.8-0.3-2.4-0.9c-0.6-0.6-0.9-1.5-0.9-2.6v-4.3h1.7v4.2
			C409,297.9,409.2,298.4,409.4,298.8z"/>
		<path fill="#D35E13" d="M421,293.1h1.7v7.7H421l-3.7-4.8v4.8h-1.7v-7.7h1.6l3.8,5V293.1z"/>
		<path fill="#D35E13" d="M427.9,294.6v6.2h-1.7v-6.2H424v-1.5h6.1v1.5H427.9z"/>
		<path fill="#D35E13" d="M431.3,293.1h1.7v7.7h-1.7V293.1z"/>
		<path fill="#D35E13" d="M440.3,293.1h1.7v7.7h-1.7l-3.7-4.8v4.8H435v-7.7h1.6l3.8,5V293.1z"/>
		<path fill="#D35E13" d="M448.9,296.8h1.7v2.7c-0.8,0.9-1.8,1.3-3.2,1.3c-1.1,0-2.1-0.4-2.8-1.1s-1.1-1.7-1.1-2.8
			c0-1.1,0.4-2.1,1.2-2.9c0.8-0.8,1.7-1.1,2.8-1.1c1.1,0,2.1,0.4,2.9,1.1l-0.9,1.3c-0.3-0.3-0.7-0.5-1-0.6c-0.3-0.1-0.6-0.2-0.9-0.2
			c-0.7,0-1.2,0.2-1.6,0.7c-0.4,0.4-0.7,1-0.7,1.8s0.2,1.3,0.6,1.7c0.4,0.4,0.9,0.7,1.5,0.7s1.1-0.1,1.5-0.3V296.8z"/>
		<path fill="#D35E13" d="M452,293.1h1.9v1.4l-0.3,4h-1.3l-0.3-4V293.1z M452.3,300.6c-0.2-0.2-0.3-0.4-0.3-0.7s0.1-0.5,0.3-0.7
			c0.2-0.2,0.4-0.3,0.7-0.3c0.3,0,0.5,0.1,0.7,0.3c0.2,0.2,0.3,0.4,0.3,0.7s-0.1,0.5-0.3,0.7c-0.2,0.2-0.4,0.3-0.7,0.3
			C452.7,300.8,452.5,300.8,452.3,300.6z"/>
	</g>
</g>
</svg>
