<?xml version="1.0" encoding="utf-8"?>
<!-- Generator: Adobe Illustrator 22.1.0, SVG Export Plug-In . SVG Version: 6.00 Build 0)  -->
<svg version="1.1" id="Layer_1" xmlns="http://www.w3.org/2000/svg" xmlns:xlink="http://www.w3.org/1999/xlink" x="0px" y="0px"
	 viewBox="0 0 126 126" style="enable-background:new 0 0 126 126;" xml:space="preserve">
<style type="text/css">
	.st0{fill:#FFD980;}
</style>
<g>
	<path class="st0" d="M120,6v114H6V6H120 M126,0H0v126h126V0L126,0z"/>
</g>
<path class="st0" d="M15,27v72h96V27H15z M105,93H21V33h84V93z"/>
<circle class="st0" cx="39" cy="45" r="6"/>
<path class="st0" d="M39,51c-6.6,0-12,5.4-12,12h24C51,56.4,45.6,51,39,51z"/>
<rect x="57" y="57" class="st0" width="42" height="6"/>
<rect x="27" y="69" class="st0" width="72" height="6"/>
<rect x="27" y="81" class="st0" width="72" height="6"/>
<path class="st0" d="M95.6,40.6v4.7l-4-4.7h-2.9v2.6c0-0.1-0.1-0.1-0.1-0.2c-0.5-0.8-1.2-1.5-2.1-1.9c-0.9-0.5-1.9-0.7-3-0.7
	s-2.1,0.2-3,0.7c-0.8,0.4-1.5,1-1.9,1.7c-0.1-0.1-0.1-0.2-0.2-0.3c-0.4-0.6-0.9-1.1-1.7-1.4c-0.7-0.3-1.6-0.5-2.5-0.5h-5v5.1
	L67,40.6h-3.5l-2.1,4.8l-2.1-4.8h-3.5L51.3,51H99V40.6H95.6z"/>
</svg>
