<?xml version="1.0" encoding="utf-8"?>
<!-- Generator: Adobe Illustrator 19.2.1, SVG Export Plug-In . SVG Version: 6.00 Build 0)  -->
<svg version="1.1" id="Layer_1" xmlns="http://www.w3.org/2000/svg" xmlns:xlink="http://www.w3.org/1999/xlink" x="0px" y="0px"
	 viewBox="0 0 144 144" style="enable-background:new 0 0 144 144;" xml:space="preserve">
<style type="text/css">
	.st0{fill:#FFD980;}
</style>
<g>
	<path class="st0" d="M138,6v132H6V6H138 M144,0H0v144h144V0L144,0z"/>
	<g>
		<g>
			<path class="st0" d="M57.1,67.2L53.4,60H37l-3.7,7.2H24L41,34h8.5l17,33.3H57.1z M45.2,43.9l-4.9,9.7h9.8L45.2,43.9z"/>
			<path class="st0" d="M90.2,67.2L86.5,60H70.1l-3.7,7.2h-9.3l17-33.3h8.5l17,33.3H90.2z M78.3,43.9l-4.9,9.7h9.8L78.3,43.9z"/>
		</g>
		<g>
			<path class="st0" d="M84.1,104.9c-3.5,3.4-7.9,5.2-13,5.2c-5.2,0-9.5-1.7-13-5.2c-3.5-3.4-5.3-7.7-5.3-12.9
				c0-5.1,1.8-9.4,5.3-12.9c3.5-3.4,7.9-5.2,13-5.2c5.2,0,9.5,1.7,13,5.2c3.5,3.4,5.3,7.7,5.3,12.9C89.4,97.1,87.6,101.4,84.1,104.9
				 M81.4,92c0-3.1-1-5.8-3-8c-2-2.2-4.5-3.3-7.4-3.3c-2.9,0-5.4,1.1-7.4,3.3c-2,2.2-3,4.9-3,8c0,3.1,1,5.8,3,7.9
				c2,2.2,4.5,3.3,7.4,3.3c2.9,0,5.4-1.1,7.4-3.3C80.4,97.8,81.4,95.2,81.4,92"/>
			<polygon class="st0" points="112.6,75.4 120,75.4 120,108.4 112.6,108.4 94.2,87.7 94.2,108.4 86.9,108.4 86.9,75.4 93.8,75.4 
				112.6,96.6 			"/>
			<path class="st0" d="M31.4,98.1v10.6H24V75.4h17.7c5.2,0,8.9,0.9,11.1,2.6c2.2,1.7,3.3,4.6,3.3,8.4c0,0.4,0,0.8,0,1.2
				c0,0.2,0,0.4-0.1,0.6c0,0.1,0,0.1,0,0.2c-0.3,3-1.4,5.3-3.2,6.9c-0.8,0.6-1.8,1.2-2.9,1.6l0,0c0,0,0,0,0,0
				c-0.8,0.3-1.7,0.5-2.7,0.7l11,11.1H49L38.3,98.1H31.4z M41,91.6h0.9c2.5,0,4.3-0.4,5.2-1.2c0.9-0.8,1.4-2.1,1.4-3.9
				c0-1.8-0.5-3-1.4-3.7c-1-0.7-2.6-1-5-1H31.4v9.9H41z"/>
		</g>
	</g>
</g>
</svg>
