<?xml version="1.0" encoding="utf-8"?>
<!-- Generator: Adobe Illustrator 22.1.0, SVG Export Plug-In . SVG Version: 6.00 Build 0)  -->
<svg version="1.1" id="Layer_1" xmlns="http://www.w3.org/2000/svg" xmlns:xlink="http://www.w3.org/1999/xlink" x="0px" y="0px"
	 viewBox="0 0 144 144" style="enable-background:new 0 0 144 144;" xml:space="preserve">
<style type="text/css">
	.st0{fill:#FFD980;}
</style>
<g>
	<path class="st0" d="M138,6v132H6V6H138 M144,0H0v144h144V0L144,0z"/>
</g>
<g>
	<path class="st0" d="M24,36v72h96V36H24z M114,102H30V42h84V102z"/>
	<circle class="st0" cx="48" cy="54" r="6"/>
	<path class="st0" d="M48,60c-6.6,0-12,5.4-12,12h24C60,65.4,54.6,60,48,60z"/>
	<rect x="66" y="66" class="st0" width="42" height="6"/>
	<rect x="36" y="78" class="st0" width="72" height="6"/>
	<rect x="36" y="90" class="st0" width="72" height="6"/>
	<path class="st0" d="M104.6,49.6v4.7l-4-4.7h-2.9v2.6c0-0.1-0.1-0.1-0.1-0.2c-0.5-0.8-1.2-1.5-2.1-1.9c-0.9-0.5-1.9-0.7-3-0.7
		s-2.1,0.2-3,0.7c-0.8,0.4-1.5,1-1.9,1.7c-0.1-0.1-0.1-0.2-0.2-0.3c-0.4-0.6-0.9-1.1-1.7-1.4c-0.7-0.3-1.6-0.5-2.5-0.5h-5v5.1
		L76,49.6h-3.5l-2.1,4.8l-2.1-4.8h-3.5L60.3,60H108V49.6H104.6z"/>
</g>
</svg>
