<?xml version="1.0" encoding="utf-8"?>
<!-- Generator: Adobe Illustrator 19.2.1, SVG Export Plug-In . SVG Version: 6.00 Build 0)  -->
<svg version="1.1" id="Layer_1" xmlns="http://www.w3.org/2000/svg" xmlns:xlink="http://www.w3.org/1999/xlink" x="0px" y="0px"
	 viewBox="0 0 144 144" style="enable-background:new 0 0 144 144;" xml:space="preserve">
<style type="text/css">
	.st0{fill:#FFD980;}
</style>
<g>
	<path class="st0" d="M138,6v132H6V6H138 M144,0H0v144h144V0L144,0z"/>
	<path class="st0" d="M89.7,18H54.3c-4.9,0-8.8,3.9-8.8,8.8v4.1v82.2v4.1c0,4.9,3.9,8.8,8.8,8.8h35.4c4.9,0,8.8-3.9,8.8-8.8v-4.1
		V30.9v-4.1C98.5,21.9,94.6,18,89.7,18z M72,121.3c-2.5,0-4.5-2-4.5-4.5c0-2.5,2-4.5,4.5-4.5s4.5,2,4.5,4.5
		C76.5,119.3,74.5,121.3,72,121.3z M93.1,107.7H50.9V36.3h42.2V107.7z"/>
</g>
</svg>
