<?xml version="1.0" encoding="utf-8"?>
<!-- Generator: Adobe Illustrator 19.2.1, SVG Export Plug-In . SVG Version: 6.00 Build 0)  -->
<svg version="1.1" id="Layer_1" xmlns="http://www.w3.org/2000/svg" xmlns:xlink="http://www.w3.org/1999/xlink" x="0px" y="0px"
	 viewBox="0 0 144 44" style="enable-background:new 0 0 144 44;" xml:space="preserve">
<style type="text/css">
	.st0{fill:#8086FF;}
</style>
<path class="st0" d="M138,6v32H6V6H138 M144,0H0v44h144V0L144,0z"/>
<g>
	<path class="st0" d="M43.7,27.7c2,0,3.7-0.8,5-2.4l2.6,2.7c-2.1,2.4-4.6,3.5-7.4,3.5c-2.8,0-5.2-0.9-7-2.7
		c-1.8-1.8-2.8-4.1-2.8-6.8c0-2.7,0.9-5,2.8-6.8c1.9-1.8,4.2-2.7,6.9-2.7c3,0,5.6,1.2,7.6,3.5l-2.6,2.9c-1.3-1.6-2.9-2.4-4.9-2.4
		c-1.5,0-2.9,0.5-4,1.5c-1.1,1-1.6,2.4-1.6,4.1s0.5,3.1,1.6,4.1C41,27.2,42.3,27.7,43.7,27.7z"/>
	<path class="st0" d="M69.7,28.8c-1.9,1.8-4.2,2.7-6.9,2.7c-2.7,0-5-0.9-6.9-2.7c-1.9-1.8-2.8-4.1-2.8-6.8s0.9-5,2.8-6.8
		c1.9-1.8,4.2-2.7,6.9-2.7c2.7,0,5,0.9,6.9,2.7c1.9,1.8,2.8,4.1,2.8,6.8S71.6,27,69.7,28.8z M68.3,22c0-1.6-0.5-3-1.6-4.2
		s-2.4-1.7-3.9-1.7c-1.5,0-2.8,0.6-3.9,1.7s-1.6,2.6-1.6,4.2c0,1.6,0.5,3,1.6,4.2c1.1,1.2,2.4,1.7,3.9,1.7c1.5,0,2.8-0.6,3.9-1.7
		C67.8,25,68.3,23.6,68.3,22z"/>
	<path class="st0" d="M90.1,15.3c1.8,1.6,2.6,3.8,2.6,6.7s-0.9,5.1-2.6,6.8c-1.7,1.7-4.3,2.5-7.8,2.5H76V12.9h6.5
		C85.8,12.9,88.3,13.7,90.1,15.3z M87,26.3c1-1,1.5-2.3,1.5-4.1s-0.5-3.2-1.5-4.2c-1-1-2.6-1.5-4.7-1.5h-2.3v11.2h2.6
		C84.6,27.7,86,27.2,87,26.3z"/>
	<path class="st0" d="M109.6,12.9v3.7h-9.2v3.8h8.3v3.5h-8.3v3.8h9.5v3.6H96.3V12.9H109.6z"/>
</g>
</svg>
