<?xml version="1.0" encoding="utf-8"?>
<!-- Generator: Adobe Illustrator 19.2.1, SVG Export Plug-In . SVG Version: 6.00 Build 0)  -->
<svg version="1.1" id="Layer_1" xmlns="http://www.w3.org/2000/svg" xmlns:xlink="http://www.w3.org/1999/xlink" x="0px" y="0px"
	 viewBox="0 0 288 34" style="enable-background:new 0 0 288 34;" xml:space="preserve">
<style type="text/css">
	.st0{fill:#FFD980;}
</style>
<g>
	<path class="st0" d="M39.6,20.6c-0.2,2.1-1,3.8-2.4,5c-1.4,1.2-3.2,1.8-5.5,1.8c-1.6,0-3-0.4-4.2-1.1c-1.2-0.8-2.1-1.8-2.8-3.2
		s-1-3-1-4.8v-1.9c0-1.9,0.3-3.5,1-5s1.6-2.5,2.9-3.3c1.2-0.8,2.7-1.2,4.3-1.2c2.2,0,4,0.6,5.3,1.8c1.3,1.2,2.1,2.9,2.3,5.1h-3.4
		c-0.2-1.4-0.6-2.5-1.3-3.1c-0.7-0.6-1.7-0.9-2.9-0.9c-1.5,0-2.7,0.5-3.5,1.6c-0.8,1.1-1.2,2.7-1.2,4.8v1.8c0,2.2,0.4,3.8,1.2,4.9
		c0.8,1.1,1.9,1.7,3.4,1.7c1.4,0,2.4-0.3,3.1-0.9s1.1-1.6,1.3-3H39.6z"/>
	<path class="st0" d="M58.6,17.6c0,2-0.3,3.7-1,5.1c-0.7,1.5-1.6,2.6-2.9,3.4c-1.3,0.8-2.7,1.2-4.3,1.2c-1.6,0-3.1-0.4-4.3-1.2
		c-1.3-0.8-2.2-1.9-2.9-3.4c-0.7-1.5-1-3.1-1-5v-1.1c0-1.9,0.3-3.7,1-5.1C43.8,10,44.7,8.8,46,8c1.3-0.8,2.7-1.2,4.3-1.2
		s3.1,0.4,4.3,1.2c1.3,0.8,2.2,1.9,2.9,3.4c0.7,1.5,1,3.2,1,5.1V17.6z M55.1,16.6c0-2.2-0.4-3.9-1.3-5.1c-0.8-1.2-2-1.8-3.5-1.8
		c-1.5,0-2.7,0.6-3.5,1.8c-0.8,1.2-1.3,2.8-1.3,5v1.1c0,2.2,0.4,3.9,1.3,5.1c0.9,1.2,2,1.8,3.5,1.8c1.5,0,2.7-0.6,3.5-1.8
		c0.8-1.2,1.2-2.9,1.2-5.1V16.6z"/>
	<path class="st0" d="M77.8,27h-3.5l-8.9-14.1V27H62V7.1h3.5l8.9,14.2V7.1h3.4V27z"/>
	<path class="st0" d="M95.9,9.9h-6.2V27h-3.4V9.9h-6.2V7.1h15.8V9.9z"/>
	<path class="st0" d="M102.1,27h-3.4V7.1h3.4V27z"/>
	<path class="st0" d="M122.2,27h-3.5l-8.9-14.1V27h-3.5V7.1h3.5l8.9,14.2V7.1h3.4V27z"/>
	<path class="st0" d="M140.8,7.1v13.3c0,2.1-0.7,3.8-2,5c-1.4,1.2-3.2,1.9-5.4,1.9c-2.3,0-4.1-0.6-5.4-1.8c-1.3-1.2-2-2.9-2-5.1V7.1
		h3.4v13.3c0,1.3,0.3,2.3,1,3s1.7,1.1,3,1.1c2.7,0,4-1.4,4-4.2V7.1H140.8z"/>
	<path class="st0" d="M156.1,18.2H148v6.1h9.6V27h-13V7.1h12.9v2.8H148v5.5h8.2V18.2z"/>
	<path class="st0" d="M180.9,9.9h-6.2V27h-3.4V9.9h-6.2V7.1h15.8V9.9z"/>
	<path class="st0" d="M199,17.6c0,2-0.3,3.7-1,5.1c-0.7,1.5-1.6,2.6-2.9,3.4c-1.3,0.8-2.7,1.2-4.3,1.2c-1.6,0-3.1-0.4-4.3-1.2
		c-1.3-0.8-2.2-1.9-2.9-3.4c-0.7-1.5-1-3.1-1-5v-1.1c0-1.9,0.3-3.7,1-5.1c0.7-1.5,1.7-2.6,2.9-3.4c1.3-0.8,2.7-1.2,4.3-1.2
		s3.1,0.4,4.3,1.2c1.3,0.8,2.2,1.9,2.9,3.4c0.7,1.5,1,3.2,1,5.1V17.6z M195.5,16.6c0-2.2-0.4-3.9-1.3-5.1c-0.8-1.2-2-1.8-3.5-1.8
		c-1.5,0-2.7,0.6-3.5,1.8c-0.8,1.2-1.3,2.8-1.3,5v1.1c0,2.2,0.4,3.9,1.3,5.1c0.9,1.2,2,1.8,3.5,1.8c1.5,0,2.7-0.6,3.5-1.8
		c0.8-1.2,1.2-2.9,1.2-5.1V16.6z"/>
	<path class="st0" d="M219.8,21.9c0-0.9-0.3-1.5-0.9-2c-0.6-0.5-1.7-1-3.3-1.4s-2.9-1-3.8-1.6c-1.8-1.1-2.7-2.6-2.7-4.5
		c0-1.6,0.7-2.9,2-4c1.3-1,3-1.6,5.1-1.6c1.4,0,2.6,0.3,3.7,0.8s1.9,1.2,2.6,2.2c0.6,0.9,0.9,2,0.9,3.1h-3.4c0-1-0.3-1.8-1-2.4
		c-0.7-0.6-1.6-0.9-2.8-0.9c-1.1,0-2,0.2-2.6,0.7c-0.6,0.5-0.9,1.2-0.9,2c0,0.7,0.3,1.3,1,1.8s1.8,1,3.3,1.4s2.8,1,3.7,1.6
		c0.9,0.6,1.6,1.3,2.1,2c0.4,0.8,0.7,1.7,0.7,2.7c0,1.7-0.6,3-1.9,4c-1.3,1-3,1.5-5.2,1.5c-1.4,0-2.8-0.3-4-0.8
		c-1.2-0.5-2.1-1.3-2.8-2.2c-0.7-0.9-1-2-1-3.3h3.5c0,1.1,0.4,2,1.1,2.6s1.8,0.9,3.2,0.9c1.2,0,2.1-0.2,2.7-0.7
		C219.5,23.4,219.8,22.7,219.8,21.9z"/>
	<path class="st0" d="M230,27h-3.4V7.1h3.4V27z"/>
	<path class="st0" d="M248.2,9.9H242V27h-3.4V9.9h-6.2V7.1h15.8V9.9z"/>
	<path class="st0" d="M262.4,18.2h-8.2v6.1h9.6V27h-13V7.1h12.9v2.8h-9.5v5.5h8.2V18.2z"/>
</g>
<path class="st0" d="M284.6,3.1v27.9H3.4V3.1H284.6 M288,0h-3.4H3.4H0v3.1v27.9V34h3.4h281.1h3.4v-3.1V3.1V0L288,0z"/>
<path class="st0" d="M0,0v34h288V0H0z M285,31H3V3h282V31z"/>
</svg>
