<?xml version="1.0" encoding="utf-8"?>
<!-- Generator: Adobe Illustrator 22.1.0, SVG Export Plug-In . SVG Version: 6.00 Build 0)  -->
<svg version="1.1" id="Layer_1" xmlns="http://www.w3.org/2000/svg" xmlns:xlink="http://www.w3.org/1999/xlink" x="0px" y="0px"
	 viewBox="0 0 69 44" style="enable-background:new 0 0 69 44;" xml:space="preserve">
<style type="text/css">
	.st0{fill:#1D71BB;}
</style>
<path class="st0" d="M63,6v32H6V6H63 M69,0H0v44h69V0L69,0z"/>
<g>
	<path class="st0" d="M18.9,27.7c2,0,3.7-0.8,4.9-2.4l2.6,2.7c-2.1,2.3-4.5,3.5-7.4,3.5s-5.2-0.9-7-2.7c-1.8-1.8-2.7-4-2.7-6.8
		s0.9-5,2.8-6.8s4.1-2.7,6.8-2.7c3,0,5.5,1.1,7.6,3.4L24,18.9c-1.3-1.6-2.9-2.4-4.8-2.4c-1.5,0-2.9,0.5-3.9,1.5
		c-1.1,1-1.6,2.4-1.6,4.1c0,1.7,0.5,3.1,1.5,4.1C16.2,27.2,17.4,27.7,18.9,27.7z"/>
	<path class="st0" d="M34,16.6c-0.4,0.3-0.6,0.8-0.6,1.3c0,0.5,0.2,1,0.7,1.3c0.5,0.3,1.6,0.7,3.3,1.1c1.7,0.4,3.1,1.1,4.1,1.9
		c1,0.9,1.4,2.1,1.4,3.8s-0.6,3-1.8,4c-1.2,1-2.9,1.5-4.9,1.5c-2.9,0-5.5-1.1-7.8-3.2l2.4-3c2,1.7,3.8,2.6,5.5,2.6
		c0.8,0,1.3-0.2,1.8-0.5c0.4-0.3,0.6-0.8,0.6-1.3s-0.2-1-0.7-1.3c-0.5-0.3-1.4-0.7-2.7-1c-2.1-0.5-3.7-1.2-4.7-2
		c-1-0.8-1.5-2.1-1.5-3.8s0.6-3.1,1.9-4c1.2-0.9,2.8-1.4,4.7-1.4c1.2,0,2.4,0.2,3.7,0.6c1.2,0.4,2.3,1,3.2,1.8l-2.1,3
		c-1.6-1.2-3.2-1.8-4.9-1.8C34.9,16.1,34.3,16.3,34,16.6z"/>
	<path class="st0" d="M50.7,16.6c-0.4,0.3-0.6,0.8-0.6,1.3c0,0.5,0.2,1,0.7,1.3c0.5,0.3,1.6,0.7,3.3,1.1c1.7,0.4,3.1,1.1,4.1,1.9
		c1,0.9,1.4,2.1,1.4,3.8s-0.6,3-1.8,4c-1.2,1-2.9,1.5-4.9,1.5c-2.9,0-5.5-1.1-7.8-3.2l2.4-3c2,1.7,3.8,2.6,5.5,2.6
		c0.8,0,1.3-0.2,1.8-0.5c0.4-0.3,0.6-0.8,0.6-1.3s-0.2-1-0.7-1.3c-0.5-0.3-1.4-0.7-2.7-1c-2.1-0.5-3.7-1.2-4.7-2
		c-1-0.8-1.5-2.1-1.5-3.8s0.6-3.1,1.9-4c1.2-0.9,2.8-1.4,4.7-1.4c1.2,0,2.4,0.2,3.7,0.6c1.2,0.4,2.3,1,3.2,1.8l-2.1,3
		c-1.6-1.2-3.2-1.8-4.9-1.8C51.6,16.1,51.1,16.3,50.7,16.6z"/>
</g>
</svg>
