<?xml version="1.0" encoding="utf-8"?>
<!-- Generator: Adobe Illustrator 19.2.1, SVG Export Plug-In . SVG Version: 6.00 Build 0)  -->
<svg version="1.1" id="Layer_1" xmlns="http://www.w3.org/2000/svg" xmlns:xlink="http://www.w3.org/1999/xlink" x="0px" y="0px"
	 viewBox="0 0 144 44" style="enable-background:new 0 0 144 44;" xml:space="preserve">
<style type="text/css">
	.st0{fill:#80F4FF;}
</style>
<g>
	<path class="st0" d="M138,6v32H6V6H138 M144,0H0v44h144V0L144,0z"/>
	<g>
		<path class="st0" d="M36.2,15.3c1.8,1.6,2.6,3.8,2.6,6.7s-0.9,5.1-2.6,6.8c-1.7,1.7-4.3,2.5-7.8,2.5h-6.3V12.9h6.5
			C31.9,12.9,34.4,13.7,36.2,15.3z M33.1,26.3c1-1,1.5-2.3,1.5-4.1s-0.5-3.2-1.5-4.2c-1-1-2.6-1.5-4.7-1.5h-2.3v11.2h2.6
			C30.7,27.7,32.1,27.2,33.1,26.3z"/>
		<path class="st0" d="M55.7,12.9v3.7h-9.2v3.8h8.3v3.5h-8.3v3.8H56v3.6H42.4V12.9H55.7z"/>
		<path class="st0" d="M63.9,16.6c-0.4,0.3-0.6,0.8-0.6,1.3c0,0.5,0.2,1,0.7,1.3c0.5,0.3,1.6,0.7,3.4,1.1c1.8,0.4,3.1,1.1,4.1,1.9
			c1,0.9,1.5,2.1,1.5,3.8c0,1.7-0.6,3-1.9,4c-1.2,1-2.9,1.5-4.9,1.5c-2.9,0-5.5-1.1-7.9-3.2l2.5-3c2,1.7,3.8,2.6,5.5,2.6
			c0.8,0,1.3-0.2,1.8-0.5c0.4-0.3,0.6-0.8,0.6-1.3s-0.2-1-0.7-1.3c-0.5-0.3-1.4-0.7-2.7-1c-2.1-0.5-3.7-1.2-4.7-2
			c-1-0.8-1.5-2.1-1.5-3.9c0-1.8,0.6-3.1,1.9-4c1.3-0.9,2.8-1.4,4.7-1.4c1.2,0,2.5,0.2,3.7,0.6c1.2,0.4,2.3,1,3.2,1.8l-2.1,3
			c-1.6-1.2-3.3-1.8-5-1.8C64.9,16.1,64.3,16.2,63.9,16.6z"/>
		<path class="st0" d="M76.5,12.9h4.1v18.4h-4.1V12.9z"/>
		<path class="st0" d="M97.1,21.9h4.1v6.5c-1.8,2-4.4,3.1-7.6,3.1c-2.7,0-5-0.9-6.8-2.7c-1.8-1.8-2.8-4.1-2.8-6.8
			c0-2.7,0.9-5,2.8-6.8c1.9-1.8,4.1-2.7,6.8-2.7c2.6,0,4.9,0.9,6.9,2.6l-2.1,3.1c-0.8-0.7-1.6-1.2-2.3-1.5c-0.7-0.3-1.4-0.4-2.3-0.4
			c-1.6,0-2.9,0.5-4,1.6c-1.1,1.1-1.6,2.5-1.6,4.2s0.5,3.1,1.5,4.2c1,1,2.3,1.6,3.7,1.6s2.6-0.3,3.6-0.8V21.9z"/>
		<path class="st0" d="M117.8,12.9h4.1v18.4h-4.1L109,19.8v11.6h-4.1V12.9h3.9l9,11.9V12.9z"/>
	</g>
</g>
</svg>
