<?xml version="1.0" encoding="utf-8"?>
<!-- Generator: Adobe Illustrator 22.1.0, SVG Export Plug-In . SVG Version: 6.00 Build 0)  -->
<svg version="1.1" id="Layer_1" xmlns="http://www.w3.org/2000/svg" xmlns:xlink="http://www.w3.org/1999/xlink" x="0px" y="0px"
	 viewBox="0 0 126 126" style="enable-background:new 0 0 126 126;" xml:space="preserve">
<style type="text/css">
	.st0{fill:#FFD980;}
</style>
<path class="st0" d="M111,27.9H15v70.2h96V27.9z M100,33.6L63,64.2L26.4,33.6H100z M105.2,36.8v45.8L74.7,62L105.2,36.8z M52.2,62.7
	L20.8,82.8V36.5L52.2,62.7z M20.8,92.4v-2.7l36-23.1l6.2,5.2l7.1-5.9l35.1,23.7v2.8C105.2,92.4,20.8,92.4,20.8,92.4z"/>
<g>
	<g>
		<path class="st0" d="M120,6v114H6V6H120 M126,0H0v126h126V0L126,0z"/>
	</g>
</g>
</svg>
