<?xml version="1.0" encoding="utf-8"?>
<!-- Generator: Adobe Illustrator 22.1.0, SVG Export Plug-In . SVG Version: 6.00 Build 0)  -->
<svg version="1.1" id="Layer_1" xmlns="http://www.w3.org/2000/svg" xmlns:xlink="http://www.w3.org/1999/xlink" x="0px" y="0px"
	 viewBox="0 0 144 44" style="enable-background:new 0 0 144 44;" xml:space="preserve">
<style type="text/css">
	.st0{fill:#FF772A;}
	.st1{enable-background:new    ;}
</style>
<path class="st0" d="M138,6v32H6V6H138 M144,0H0v44h144V0L144,0z"/>
<g class="st1">
	<path class="st0" d="M19.7,13h4.2v18.2h-4.2V13z"/>
	<path class="st0" d="M28.2,13h4.2v14.8h9.1v3.4H28.2V13z"/>
	<path class="st0" d="M43.9,13h4.2v14.8h9.1v3.4H43.9V13z"/>
	<path class="st0" d="M61.4,29.4c-1.4-1.4-2.2-3.5-2.2-6.2V13h4.2v10c0,3.3,1.4,4.9,4.1,4.9c1.3,0,2.3-0.4,3-1.2c0.7-0.8,1-2,1-3.7
		V13h4.2v10.2c0,2.7-0.7,4.7-2.2,6.2s-3.5,2.2-6.1,2.2S62.9,30.8,61.4,29.4z"/>
	<path class="st0" d="M81.7,30.9c-1.3-0.4-2.4-0.9-3.2-1.5l1.4-3.2c0.8,0.6,1.7,1,2.8,1.4s2.1,0.5,3.2,0.5c1.2,0,2.1-0.2,2.7-0.5
		s0.9-0.8,0.9-1.4c0-0.4-0.2-0.8-0.5-1.1s-0.8-0.5-1.3-0.7c-0.5-0.2-1.2-0.4-2.1-0.6c-1.4-0.3-2.5-0.7-3.4-1
		c-0.9-0.3-1.6-0.9-2.3-1.6c-0.6-0.7-0.9-1.7-0.9-2.9c0-1.1,0.3-2,0.9-2.9c0.6-0.9,1.4-1.5,2.6-2s2.6-0.8,4.2-0.8
		c1.2,0,2.3,0.1,3.4,0.4s2.1,0.7,2.9,1.2l-1.3,3.2c-1.7-1-3.4-1.4-5-1.4c-1.2,0-2,0.2-2.6,0.6C83.3,17,83,17.5,83,18.1
		s0.3,1.1,1,1.4c0.6,0.3,1.6,0.6,3,0.9c1.4,0.3,2.5,0.7,3.4,1c0.9,0.3,1.6,0.8,2.3,1.6c0.6,0.7,0.9,1.7,0.9,2.9c0,1-0.3,2-0.9,2.8
		c-0.6,0.9-1.5,1.5-2.6,2c-1.2,0.5-2.6,0.8-4.2,0.8C84.4,31.5,83.1,31.3,81.7,30.9z"/>
	<path class="st0" d="M100,16.4h-5.8V13H110v3.4h-5.8v14.8H100V16.4z"/>
	<path class="st0" d="M123.9,31.2l-3.5-5.1h-0.2h-3.7v5.1h-4.2V13h7.9c1.6,0,3,0.3,4.2,0.8s2.1,1.3,2.7,2.3c0.6,1,1,2.2,1,3.5
		c0,1.4-0.3,2.5-1,3.5s-1.6,1.7-2.8,2.2l4.1,5.8H123.9z M122.8,17.3c-0.7-0.5-1.6-0.8-2.9-0.8h-3.4v6.3h3.4c1.3,0,2.2-0.3,2.9-0.8
		s1-1.3,1-2.3C123.8,18.6,123.5,17.8,122.8,17.3z"/>
</g>
</svg>
