<?xml version="1.0" encoding="utf-8"?>
<!-- Generator: Adobe Illustrator 22.1.0, SVG Export Plug-In . SVG Version: 6.00 Build 0)  -->
<svg version="1.1" id="Layer_1" xmlns="http://www.w3.org/2000/svg" xmlns:xlink="http://www.w3.org/1999/xlink" x="0px" y="0px"
	 viewBox="0 0 144 44" style="enable-background:new 0 0 144 44;" xml:space="preserve">
<style type="text/css">
	.st0{fill:#FF368C;}
</style>
<path class="st0" d="M138,6v32H6V6H138 M144,0H0v44h144V0L144,0z"/>
<g>
	<path class="st0" d="M21.9,13H26v18.2h-4.1V13z"/>
	<path class="st0" d="M43.2,13h4.1v18.2h-4.1l-8.7-11.4v11.4h-4.1V13h3.8l8.9,11.7V13z"/>
	<path class="st0" d="M65.6,15.4c1.7,1.6,2.6,3.8,2.6,6.6c0,2.8-0.8,5.1-2.5,6.7c-1.7,1.6-4.3,2.5-7.7,2.5h-6.2V13h6.4
		C61.4,13,63.9,13.8,65.6,15.4z M62.6,26.2c1-0.9,1.5-2.3,1.5-4.1c0-1.8-0.5-3.2-1.5-4.1c-1-1-2.5-1.4-4.6-1.4h-2.3v11h2.6
		C60.2,27.6,61.6,27.1,62.6,26.2z"/>
	<path class="st0" d="M84.8,13v3.6h-9v3.7h8.1v3.5h-8.1v3.8h9.3v3.6H71.7V13H84.8z"/>
	<path class="st0" d="M93,16.7c-0.4,0.3-0.6,0.7-0.6,1.3s0.2,0.9,0.7,1.3c0.5,0.3,1.6,0.7,3.3,1.1c1.7,0.4,3.1,1.1,4,1.9
		s1.4,2.1,1.4,3.7c0,1.6-0.6,3-1.8,4c-1.2,1-2.8,1.5-4.8,1.5c-2.9,0-5.5-1.1-7.8-3.2l2.4-3c2,1.7,3.8,2.6,5.4,2.6
		c0.7,0,1.3-0.2,1.8-0.5c0.4-0.3,0.6-0.8,0.6-1.3s-0.2-1-0.7-1.3c-0.5-0.3-1.3-0.6-2.7-1c-2.1-0.5-3.7-1.2-4.6-2s-1.5-2.1-1.5-3.8
		s0.6-3.1,1.9-4s2.8-1.4,4.6-1.4c1.2,0,2.4,0.2,3.6,0.6c1.2,0.4,2.3,1,3.2,1.8l-2.1,3c-1.6-1.2-3.2-1.8-4.9-1.8
		C93.9,16.2,93.3,16.3,93,16.7z"/>
	<path class="st0" d="M118,13h4.1v18.2H118l-8.7-11.4v11.4h-4.1V13h3.8l8.9,11.7V13z"/>
</g>
</svg>
