<?xml version="1.0" encoding="utf-8"?>
<!-- Generator: Adobe Illustrator 22.1.0, SVG Export Plug-In . SVG Version: 6.00 Build 0)  -->
<svg version="1.1" id="Layer_1" xmlns="http://www.w3.org/2000/svg" xmlns:xlink="http://www.w3.org/1999/xlink" x="0px" y="0px"
	 viewBox="0 0 69 44" style="enable-background:new 0 0 69 44;" xml:space="preserve">
<style type="text/css">
	.st0{fill:#FF368C;}
</style>
<path class="st0" d="M63,6v32H6V6H63 M69,0H0v44h69V0L69,0z"/>
<g>
	<path class="st0" d="M22,13H26v18.2H22V13z"/>
	<path class="st0" d="M44.4,15.4C46.2,17,47,19.2,47,22c0,2.8-0.8,5.1-2.5,6.7c-1.7,1.6-4.3,2.5-7.7,2.5h-6.2V13h6.4
		C40.2,13,42.7,13.8,44.4,15.4z M41.4,26.2c1-0.9,1.5-2.3,1.5-4.1c0-1.8-0.5-3.2-1.5-4.1c-1-1-2.5-1.4-4.6-1.4h-2.3v11.1h2.6
		C39,27.6,40.4,27.1,41.4,26.2z"/>
</g>
</svg>
