<?xml version="1.0" encoding="utf-8"?>
<!-- Generator: Adobe Illustrator 22.1.0, SVG Export Plug-In . SVG Version: 6.00 Build 0)  -->
<svg version="1.1" id="Layer_1" xmlns="http://www.w3.org/2000/svg" xmlns:xlink="http://www.w3.org/1999/xlink" x="0px" y="0px"
	 viewBox="0 0 69 44" style="enable-background:new 0 0 69 44;" xml:space="preserve">
<style type="text/css">
	.st0{fill:#86BE00;}
</style>
<path class="st0" d="M63,6v32H6V6H63 M69,0H0v44h69V0L69,0z"/>
<g>
	<path class="st0" d="M22.1,16.5V13h9.5v11.9c0,2.2-0.6,3.8-1.7,4.9s-2.6,1.6-4.3,1.6c-2.2,0-4.1-0.8-5.8-2.5l2.1-2.9
		c1.1,1.2,2.2,1.8,3.5,1.8c0.6,0,1.1-0.2,1.5-0.7c0.4-0.4,0.6-1.1,0.6-2v-8.6C27.5,16.5,22.1,16.5,22.1,16.5z"/>
	<path class="st0" d="M40.2,16.6c-0.4,0.3-0.6,0.7-0.6,1.3c0,0.5,0.2,1,0.7,1.3s1.6,0.7,3.3,1.1s3.1,1.1,4,1.9
		c1,0.9,1.4,2.1,1.4,3.7s-0.6,3-1.8,4s-2.8,1.5-4.9,1.5c-2.9,0-5.5-1.1-7.8-3.2l2.4-3c2,1.7,3.8,2.6,5.5,2.6c0.7,0,1.3-0.2,1.8-0.5
		c0.4-0.3,0.6-0.8,0.6-1.3s-0.2-1-0.7-1.3s-1.4-0.6-2.7-1c-2.1-0.5-3.7-1.2-4.7-2s-1.5-2.1-1.5-3.8c0-1.7,0.6-3.1,1.9-4
		c1.2-0.9,2.8-1.4,4.7-1.4c1.2,0,2.4,0.2,3.7,0.6c1.2,0.4,2.3,1,3.2,1.8l-2.1,3c-1.6-1.2-3.2-1.8-4.9-1.8
		C41.2,16.1,40.6,16.3,40.2,16.6z"/>
</g>
</svg>
