<?xml version="1.0" encoding="utf-8"?>
<!-- Generator: Adobe Illustrator 22.1.0, SVG Export Plug-In . SVG Version: 6.00 Build 0)  -->
<svg version="1.1" id="Layer_1" xmlns="http://www.w3.org/2000/svg" xmlns:xlink="http://www.w3.org/1999/xlink" x="0px" y="0px"
	 viewBox="0 0 69 44" style="enable-background:new 0 0 69 44;" xml:space="preserve">
<style type="text/css">
	.st0{fill:#00CAF8;}
</style>
<path class="st0" d="M63,6v32H6V6H63 M69,0H0v44h69V0L69,0z"/>
<g>
	<path class="st0" d="M32.1,14.6c1.3,1.1,1.9,2.8,1.9,5s-0.7,3.9-2,4.9c-1.3,1-3.3,1.6-6,1.6h-2.4v5.1h-4.1V13H26
		C28.8,13,30.9,13.5,32.1,14.6z M29.2,21.8c0.5-0.5,0.7-1.3,0.7-2.4c0-1-0.3-1.8-1-2.2s-1.6-0.7-3-0.7h-2.3v6.1h2.7
		C27.8,22.6,28.7,22.3,29.2,21.8z"/>
	<path class="st0" d="M41.5,16.6c-0.4,0.3-0.6,0.7-0.6,1.3c0,0.5,0.2,1,0.7,1.3c0.5,0.3,1.6,0.7,3.3,1.1c1.7,0.4,3.1,1.1,4,1.9
		c1,0.9,1.4,2.1,1.4,3.7c0,1.6-0.6,3-1.8,4c-1.2,1-2.8,1.5-4.8,1.5c-2.9,0-5.5-1.1-7.8-3.2l2.4-3c2,1.7,3.8,2.6,5.4,2.6
		c0.7,0,1.3-0.2,1.8-0.5c0.4-0.3,0.6-0.8,0.6-1.3c0-0.5-0.2-1-0.7-1.3c-0.5-0.3-1.3-0.6-2.7-1c-2.1-0.5-3.7-1.2-4.6-2
		c-1-0.8-1.5-2.1-1.5-3.8s0.6-3.1,1.9-4c1.2-0.9,2.8-1.4,4.6-1.4c1.2,0,2.4,0.2,3.6,0.6c1.2,0.4,2.3,1,3.2,1.8l-2.1,3
		c-1.6-1.2-3.2-1.8-4.9-1.8C42.4,16.1,41.9,16.3,41.5,16.6z"/>
</g>
</svg>
