<?xml version="1.0" encoding="utf-8"?>
<!-- Generator: Adobe Illustrator 22.1.0, SVG Export Plug-In . SVG Version: 6.00 Build 0)  -->
<svg version="1.1" id="Layer_1" xmlns="http://www.w3.org/2000/svg" xmlns:xlink="http://www.w3.org/1999/xlink" x="0px" y="0px"
	 viewBox="0 0 144 44" style="enable-background:new 0 0 144 44;" xml:space="preserve">
<style type="text/css">
	.st0{fill:#00CAF8;}
</style>
<path class="st0" d="M138,6v32H6V6H138 M144,0H0v44h144V0L144,0z"/>
<g>
	<path class="st0" d="M30.3,14.7c1.3,1.1,1.9,2.7,1.9,5c0,2.2-0.7,3.9-2,4.9s-3.3,1.6-6,1.6h-2.4v5.1h-4.1V13h6.4
		C27,13,29,13.6,30.3,14.7z M27.3,21.8c0.5-0.5,0.7-1.3,0.7-2.4s-0.3-1.8-0.9-2.2c-0.6-0.4-1.6-0.7-3-0.7h-2.3v6.1h2.7
		C25.9,22.6,26.8,22.3,27.3,21.8z"/>
	<path class="st0" d="M46.7,13h4.1v18.2h-4.1V24h-7.2v7.2h-4.1V13h4.1v7.6h7.2V13z"/>
	<path class="st0" d="M59.5,16.7c-0.4,0.3-0.6,0.7-0.6,1.3c0,0.5,0.2,0.9,0.7,1.3c0.5,0.3,1.6,0.7,3.3,1.1c1.7,0.4,3.1,1.1,4,1.9
		c1,0.8,1.4,2.1,1.4,3.7c0,1.6-0.6,3-1.8,4c-1.2,1-2.8,1.5-4.8,1.5c-2.9,0-5.5-1.1-7.8-3.2l2.4-3c2,1.7,3.8,2.6,5.4,2.6
		c0.7,0,1.3-0.2,1.8-0.5c0.4-0.3,0.6-0.8,0.6-1.3s-0.2-1-0.7-1.3c-0.5-0.3-1.3-0.6-2.7-1c-2.1-0.5-3.7-1.2-4.6-2
		c-1-0.8-1.5-2.1-1.5-3.8c0-1.7,0.6-3.1,1.9-4c1.2-0.9,2.8-1.4,4.6-1.4c1.2,0,2.4,0.2,3.6,0.6s2.3,1,3.2,1.8l-2.1,3
		c-1.6-1.2-3.2-1.8-4.9-1.8C60.4,16.2,59.8,16.3,59.5,16.7z"/>
	<path class="st0" d="M83.1,13h4.1v18.2h-4.1V24h-7.2v7.2h-4.1V13h4.1v7.6h7.2V13z"/>
	<path class="st0" d="M106.9,28.7c-1.8,1.8-4.1,2.7-6.8,2.7s-4.9-0.9-6.8-2.7c-1.8-1.8-2.8-4-2.8-6.7c0-2.7,0.9-4.9,2.8-6.7
		c1.8-1.8,4.1-2.7,6.8-2.7s4.9,0.9,6.8,2.7c1.8,1.8,2.8,4,2.8,6.7C109.6,24.7,108.7,26.9,106.9,28.7z M105.5,22c0-1.6-0.5-3-1.6-4.1
		c-1-1.1-2.3-1.7-3.8-1.7c-1.5,0-2.8,0.6-3.8,1.7c-1,1.1-1.6,2.5-1.6,4.1c0,1.6,0.5,3,1.6,4.1c1,1.1,2.3,1.7,3.8,1.7
		c1.5,0,2.8-0.6,3.8-1.7C105,25,105.5,23.6,105.5,22z"/>
	<path class="st0" d="M125.6,14.7c1.3,1.1,1.9,2.7,1.9,5c0,2.2-0.7,3.9-2,4.9s-3.3,1.6-6,1.6h-2.4v5.1h-4.1V13h6.4
		C122.3,13,124.3,13.6,125.6,14.7z M122.6,21.8c0.5-0.5,0.7-1.3,0.7-2.4s-0.3-1.8-0.9-2.2c-0.6-0.4-1.6-0.7-2.9-0.7h-2.3v6.1h2.7
		C121.2,22.6,122.1,22.3,122.6,21.8z"/>
</g>
</svg>
