<?xml version="1.0" encoding="utf-8"?>
<!-- Generator: Adobe Illustrator 22.1.0, SVG Export Plug-In . SVG Version: 6.00 Build 0)  -->
<svg version="1.1" id="Layer_1" xmlns="http://www.w3.org/2000/svg" xmlns:xlink="http://www.w3.org/1999/xlink" x="0px" y="0px"
	 viewBox="0 0 69 44" style="enable-background:new 0 0 69 44;" xml:space="preserve">
<style type="text/css">
	.st0{fill:#767AB7;}
</style>
<path class="st0" d="M63,6v32H6V6H63 M69,0H0v44h69V0L69,0z"/>
<g>
	<path class="st0" d="M21.7,14.5c1.3,1.1,1.9,2.8,1.9,5.1s-0.7,3.9-2,5c-1.3,1.1-3.3,1.6-6.1,1.6h-2.4v5.1H9V12.9h6.5
		C18.3,12.9,20.4,13.4,21.7,14.5z M18.7,21.8c0.5-0.6,0.7-1.4,0.7-2.4s-0.3-1.8-1-2.3c-0.6-0.4-1.6-0.7-3-0.7h-2.3v6.2h2.8
		C17.2,22.6,18.2,22.3,18.7,21.8z"/>
	<path class="st0" d="M38.3,12.9h4.1v18.4h-4.1v-7.2H31v7.2h-4.1V12.9H31v7.7h7.3V12.9z"/>
	<path class="st0" d="M58.1,14.5c1.3,1.1,1.9,2.8,1.9,5.1s-0.7,3.9-2,5c-1.3,1.1-3.3,1.6-6.1,1.6h-2.4v5.1h-4.1V12.9h6.5
		C54.7,12.9,56.8,13.4,58.1,14.5z M55,21.8c0.5-0.6,0.7-1.4,0.7-2.4s-0.3-1.8-1-2.3c-0.6-0.4-1.6-0.7-3-0.7h-2.3v6.2h2.8
		C53.6,22.6,54.6,22.3,55,21.8z"/>
</g>
</svg>
