<?xml version="1.0" encoding="utf-8"?>
<!-- Generator: Adobe Illustrator 22.1.0, SVG Export Plug-In . SVG Version: 6.00 Build 0)  -->
<svg version="1.1" id="Layer_1" xmlns="http://www.w3.org/2000/svg" xmlns:xlink="http://www.w3.org/1999/xlink" x="0px" y="0px"
	 viewBox="0 0 126 126" style="enable-background:new 0 0 126 126;" xml:space="preserve">
<style type="text/css">
	.st0{fill:#FFD980;}
</style>
<circle class="st0" cx="42" cy="96" r="3"/>
<circle class="st0" cx="48" cy="90" r="3"/>
<circle class="st0" cx="42" cy="84" r="3"/>
<circle class="st0" cx="48" cy="78" r="3"/>
<circle class="st0" cx="42" cy="72" r="3"/>
<circle class="st0" cx="48" cy="66" r="3"/>
<circle class="st0" cx="42" cy="60" r="3"/>
<circle class="st0" cx="48" cy="54" r="3"/>
<circle class="st0" cx="42" cy="48" r="3"/>
<circle class="st0" cx="60" cy="78" r="3"/>
<circle class="st0" cx="54" cy="72" r="3"/>
<circle class="st0" cx="60" cy="54" r="3"/>
<circle class="st0" cx="54" cy="48" r="3"/>
<circle class="st0" cx="72" cy="78" r="3"/>
<circle class="st0" cx="66" cy="72" r="3"/>
<circle class="st0" cx="72" cy="54" r="3"/>
<circle class="st0" cx="66" cy="48" r="3"/>
<circle class="st0" cx="78" cy="72" r="3"/>
<circle class="st0" cx="84" cy="66" r="3"/>
<circle class="st0" cx="78" cy="60" r="3"/>
<circle class="st0" cx="84" cy="54" r="3"/>
<circle class="st0" cx="78" cy="48" r="3"/>
<g>
	<path class="st0" d="M99,38L76,15H27v96h72V38z M93,105H33V21h39.8v20.2H93V105z"/>
</g>
<g>
	<path class="st0" d="M120,6v114H6V6H120 M126,0H0v126h126V0L126,0z"/>
</g>
</svg>
