<?xml version="1.0" encoding="utf-8"?>
<!-- Generator: Adobe Illustrator 19.2.1, SVG Export Plug-In . SVG Version: 6.00 Build 0)  -->
<svg version="1.1" id="Layer_1" xmlns="http://www.w3.org/2000/svg" xmlns:xlink="http://www.w3.org/1999/xlink" x="0px" y="0px"
	 viewBox="0 0 144 144" style="enable-background:new 0 0 144 144;" xml:space="preserve">
<style type="text/css">
	.st0{fill:#FFD980;}
</style>
<g>
	<path class="st0" d="M138,6v132H6V6H138 M144,0H0v144h144V0L144,0z"/>
	<g>
		<path class="st0" d="M108,47L85,24H36v96h72V47z M102,114H42V30h39.8v20.2H102V114z"/>
		<path class="st0" d="M54,60v42h6V85.8h11.6L80,102h7.8v-0.4l-9.4-17.5c2.4-1,4.3-2.5,5.7-4.4c1.4-1.9,2-4.2,2-7.1
			c0-4.1-1.3-7.3-4-9.4c-2.6-2.2-6.4-3.3-11.2-3.3H54z M76.9,67.8c1.3,1.2,1.9,3,1.9,5.2c0,2.2-0.7,3.9-2.1,5.1
			C75.3,79.3,73.4,80,71,80H60V65.9h11.2C73.7,65.9,75.6,66.6,76.9,67.8z"/>
	</g>
</g>
</svg>
