<?xml version="1.0" encoding="utf-8"?>
<!-- Generator: Adobe Illustrator 19.2.1, SVG Export Plug-In . SVG Version: 6.00 Build 0)  -->
<svg version="1.1" id="Layer_1" xmlns="http://www.w3.org/2000/svg" xmlns:xlink="http://www.w3.org/1999/xlink" x="0px" y="0px"
	 viewBox="0 0 144 44" style="enable-background:new 0 0 144 44;" xml:space="preserve">
<style type="text/css">
	.st0{fill:#80FFAF;}
</style>
<g>
	<path class="st0" d="M138,6v32H6V6H138 M144,0H0v44h144V0L144,0z"/>
	<g>
		<path class="st0" d="M49.5,23.4l3.3-10.6h4.3l3.2,10.6L64,12.8h4.5L62,31.2h-3.1l-4-12.8l-4,12.8h-3.1l-6.4-18.4h4.5L49.5,23.4z"
			/>
		<path class="st0" d="M83.9,12.8v3.7h-9.2v3.8H83v3.5h-8.3v3.8h9.5v3.6H70.6V12.8H83.9z"/>
		<path class="st0" d="M96,31.2h-8.1V12.8h7.2c1.2,0,2.3,0.1,3.2,0.4c0.9,0.3,1.6,0.7,2,1.2c0.8,0.9,1.2,2,1.2,3.2
			c0,1.4-0.5,2.5-1.4,3.2c-0.3,0.2-0.5,0.4-0.7,0.5c-0.1,0.1-0.3,0.2-0.7,0.3c1.1,0.2,2.1,0.8,2.7,1.5c0.7,0.8,1,1.8,1,2.9
			c0,1.3-0.4,2.4-1.3,3.4C100.3,30.6,98.5,31.2,96,31.2z M92,20.2h2c1.1,0,2-0.1,2.5-0.4c0.6-0.2,0.8-0.8,0.8-1.6
			c0-0.8-0.3-1.4-0.8-1.6c-0.5-0.3-1.4-0.4-2.6-0.4h-2V20.2z M92,27.7h2.8c1.2,0,2.1-0.1,2.7-0.4c0.6-0.3,0.9-0.9,0.9-1.7
			s-0.3-1.4-0.9-1.7c-0.6-0.3-1.6-0.4-3-0.4H92V27.7z"/>
	</g>
</g>
</svg>
