<?xml version="1.0" encoding="utf-8"?>
<!-- Generator: Adobe Illustrator 22.1.0, SVG Export Plug-In . SVG Version: 6.00 Build 0)  -->
<svg version="1.1" id="Layer_1" xmlns="http://www.w3.org/2000/svg" xmlns:xlink="http://www.w3.org/1999/xlink" x="0px" y="0px"
	 viewBox="0 0 69 44" style="enable-background:new 0 0 69 44;" xml:space="preserve">
<style type="text/css">
	.st0{fill:#FFD980;}
	.st1{fill:#FF368C;}
	.st2{fill:#FF772A;}
	.st3{enable-background:new    ;}
	.st4{fill:#00CAF8;}
</style>
<g>
	<path class="st0" d="M-156-44v-6l0,0h-108V94h108v-6h-102V-44H-156"/>
	<g>
		<path class="st0" d="M-191-26h-49v96h72V-3L-191-26z M-234,64v-84h39.8V0.2h20.2V64H-234z"/>
		<g>
			<path class="st0" d="M-191.1,13.8c2.9,2.5,4.4,6.3,4.4,11.5c0,5.2-1.5,9-4.5,11.4s-7.6,3.6-13.8,3.6h-5.6V52h-9.4V10h14.8
				C-198.7,10-194,11.3-191.1,13.8z M-197.9,30.3c1.1-1.3,1.7-3.1,1.7-5.5s-0.7-4.1-2.2-5.2c-1.5-1-3.7-1.5-6.8-1.5h-5.3v14.1h6.3
				C-201.2,32.2-199,31.6-197.9,30.3z"/>
		</g>
	</g>
</g>
<g>
	<path class="st1" d="M-12,56v32h-132V56H-12 M-6,50h-144v44H-6V50L-6,50z"/>
	<g>
		<path class="st1" d="M-128.1,63h4.1v18.2h-4.1V63z"/>
		<path class="st1" d="M-106.8,63h4.1v18.2h-4.1l-8.7-11.4v11.4h-4.1V63h3.8l8.9,11.7L-106.8,63L-106.8,63z"/>
		<path class="st1" d="M-84.4,65.4c1.7,1.6,2.6,3.8,2.6,6.6s-0.8,5.1-2.5,6.7c-1.7,1.6-4.3,2.5-7.7,2.5h-6.2V63h6.4
			C-88.6,63-86.1,63.8-84.4,65.4z M-87.4,76.2c1-0.9,1.5-2.3,1.5-4.1c0-1.8-0.5-3.2-1.5-4.1c-1-1-2.5-1.4-4.6-1.4h-2.3v11h2.6
			C-89.8,77.6-88.4,77.1-87.4,76.2z"/>
		<path class="st1" d="M-65.2,63v3.6h-9v3.7h8.1v3.5h-8.1v3.8h9.3v3.6h-13.4V63H-65.2z"/>
		<path class="st1" d="M-57,66.7c-0.4,0.3-0.6,0.7-0.6,1.3s0.2,0.9,0.7,1.3c0.5,0.3,1.6,0.7,3.3,1.1c1.7,0.4,3.1,1.1,4,1.9
			c0.9,0.8,1.4,2.1,1.4,3.7s-0.6,3-1.8,4c-1.2,1-2.8,1.5-4.8,1.5c-2.9,0-5.5-1.1-7.8-3.2l2.4-3c2,1.7,3.8,2.6,5.4,2.6
			c0.7,0,1.3-0.2,1.8-0.5c0.4-0.3,0.6-0.8,0.6-1.3s-0.2-1-0.7-1.3c-0.5-0.3-1.3-0.6-2.7-1c-2.1-0.5-3.7-1.2-4.6-2
			c-0.9-0.8-1.5-2.1-1.5-3.8s0.6-3.1,1.9-4c1.3-0.9,2.8-1.4,4.6-1.4c1.2,0,2.4,0.2,3.6,0.6c1.2,0.4,2.3,1,3.2,1.8l-2.1,3
			c-1.6-1.2-3.2-1.8-4.9-1.8C-56.1,66.2-56.7,66.3-57,66.7z"/>
		<path class="st1" d="M-32,63h4.1v18.2H-32l-8.7-11.4v11.4h-4.1V63h3.8l8.9,11.7L-32,63L-32,63z"/>
	</g>
</g>
<g>
	<path class="st2" d="M-12,6v32h-132V6H-12 M-6,0h-144v44H-6V0L-6,0z"/>
	<g class="st3">
		<path class="st2" d="M-130.3,13h4.2v18.2h-4.2V13z"/>
		<path class="st2" d="M-121.8,13h4.2v14.8h9.1v3.4h-13.3V13z"/>
		<path class="st2" d="M-106.1,13h4.2v14.8h9.1v3.4h-13.3V13z"/>
		<path class="st2" d="M-88.6,29.4c-1.4-1.4-2.2-3.5-2.2-6.2V13h4.2v10c0,3.3,1.4,4.9,4.1,4.9c1.3,0,2.3-0.4,3-1.2
			c0.7-0.8,1-2,1-3.7V13h4.2v10.2c0,2.7-0.7,4.7-2.2,6.2s-3.5,2.2-6.1,2.2S-87.1,30.8-88.6,29.4z"/>
		<path class="st2" d="M-68.3,30.9c-1.3-0.4-2.4-0.9-3.2-1.5l1.4-3.2c0.8,0.6,1.7,1,2.8,1.4s2.1,0.5,3.2,0.5c1.2,0,2.1-0.2,2.7-0.5
			s0.9-0.8,0.9-1.4c0-0.4-0.2-0.8-0.5-1.1s-0.8-0.5-1.3-0.7s-1.2-0.4-2.1-0.6c-1.4-0.3-2.5-0.7-3.4-1s-1.6-0.9-2.3-1.6
			c-0.6-0.7-0.9-1.7-0.9-2.9c0-1.1,0.3-2,0.9-2.9s1.4-1.5,2.6-2s2.6-0.8,4.2-0.8c1.2,0,2.3,0.1,3.4,0.4s2.1,0.7,2.9,1.2l-1.3,3.2
			c-1.7-1-3.4-1.4-5-1.4c-1.2,0-2,0.2-2.6,0.6c-0.8,0.4-1.1,0.9-1.1,1.5s0.3,1.1,1,1.4c0.6,0.3,1.6,0.6,3,0.9s2.5,0.7,3.4,1
			s1.6,0.8,2.3,1.6c0.6,0.7,0.9,1.7,0.9,2.9c0,1-0.3,2-0.9,2.8c-0.6,0.9-1.5,1.5-2.6,2c-1.2,0.5-2.6,0.8-4.2,0.8
			C-65.6,31.5-66.9,31.3-68.3,30.9z"/>
		<path class="st2" d="M-50,16.4h-5.8V13H-40v3.4h-5.8v14.8H-50V16.4z"/>
		<path class="st2" d="M-26.1,31.2l-3.5-5.1h-0.2h-3.7v5.1h-4.2V13h7.9c1.6,0,3,0.3,4.2,0.8s2.1,1.3,2.7,2.3s1,2.2,1,3.5
			c0,1.4-0.3,2.5-1,3.5s-1.6,1.7-2.8,2.2l4.1,5.8L-26.1,31.2L-26.1,31.2z M-27.2,17.3c-0.7-0.5-1.6-0.8-2.9-0.8h-3.4v6.3h3.4
			c1.3,0,2.2-0.3,2.9-0.8s1-1.3,1-2.3C-26.2,18.6-26.5,17.8-27.2,17.3z"/>
	</g>
</g>
<g>
	<path class="st4" d="M-12-44v32h-132v-32H-12 M-6-50h-144v44H-6V-50L-6-50z"/>
	<g>
		<path class="st4" d="M-119.7-35.3c1.3,1.1,1.9,2.7,1.9,5c0,2.2-0.7,3.9-2,4.9c-1.3,1-3.3,1.6-6,1.6h-2.4v5.1h-4.1V-37h6.4
			C-123-37-121-36.4-119.7-35.3z M-122.7-28.2c0.5-0.5,0.7-1.3,0.7-2.4s-0.3-1.8-0.9-2.2c-0.6-0.4-1.6-0.7-3-0.7h-2.3v6.1h2.7
			C-124.1-27.4-123.2-27.7-122.7-28.2z"/>
		<path class="st4" d="M-103.3-37h4.1v18.2h-4.1V-26h-7.2v7.2h-4.1V-37h4.1v7.6h7.2V-37z"/>
		<path class="st4" d="M-90.5-33.3c-0.4,0.3-0.6,0.7-0.6,1.3c0,0.5,0.2,0.9,0.7,1.3c0.5,0.3,1.6,0.7,3.3,1.1c1.7,0.4,3.1,1.1,4,1.9
			c1,0.8,1.4,2.1,1.4,3.7s-0.6,3-1.8,4c-1.2,1-2.8,1.5-4.8,1.5c-2.9,0-5.5-1.1-7.8-3.2l2.4-3c2,1.7,3.8,2.6,5.4,2.6
			c0.7,0,1.3-0.2,1.8-0.5c0.4-0.3,0.6-0.8,0.6-1.3s-0.2-1-0.7-1.3s-1.3-0.6-2.7-1c-2.1-0.5-3.7-1.2-4.6-2c-1-0.8-1.5-2.1-1.5-3.8
			s0.6-3.1,1.9-4c1.2-0.9,2.8-1.4,4.6-1.4c1.2,0,2.4,0.2,3.6,0.6c1.2,0.4,2.3,1,3.2,1.8l-2.1,3c-1.6-1.2-3.2-1.8-4.9-1.8
			C-89.6-33.8-90.2-33.7-90.5-33.3z"/>
		<path class="st4" d="M-66.9-37h4.1v18.2h-4.1V-26h-7.2v7.2h-4.1V-37h4.1v7.6h7.2V-37z"/>
		<path class="st4" d="M-43.1-21.3c-1.8,1.8-4.1,2.7-6.8,2.7s-4.9-0.9-6.8-2.7c-1.8-1.8-2.8-4-2.8-6.7s0.9-4.9,2.8-6.7
			c1.8-1.8,4.1-2.7,6.8-2.7s4.9,0.9,6.8,2.7c1.8,1.8,2.8,4,2.8,6.7C-40.4-25.3-41.3-23.1-43.1-21.3z M-44.5-28c0-1.6-0.5-3-1.6-4.1
			c-1-1.1-2.3-1.7-3.8-1.7s-2.8,0.6-3.8,1.7c-1,1.1-1.6,2.5-1.6,4.1s0.5,3,1.6,4.1c1,1.1,2.3,1.7,3.8,1.7s2.8-0.6,3.8-1.7
			C-45-25-44.5-26.4-44.5-28z"/>
		<path class="st4" d="M-24.4-35.3c1.3,1.1,1.9,2.7,1.9,5c0,2.2-0.7,3.9-2,4.9s-3.3,1.6-6,1.6h-2.4v5.1H-37V-37h6.4
			C-27.7-37-25.7-36.4-24.4-35.3z M-27.4-28.2c0.5-0.5,0.7-1.3,0.7-2.4s-0.3-1.8-0.9-2.2c-0.6-0.4-1.6-0.7-2.9-0.7h-2.3v6.1h2.7
			C-28.8-27.4-27.9-27.7-27.4-28.2z"/>
	</g>
</g>
<g>
	<path class="st1" d="M63,56v32H6V56H63 M69,50H0v44h69V50L69,50z"/>
	<g>
		<path class="st1" d="M22,63h4v18.2h-4V63z"/>
		<path class="st1" d="M44.4,65.4C46.2,67,47,69.2,47,72s-0.8,5.1-2.5,6.7c-1.7,1.6-4.3,2.5-7.7,2.5h-6.2V63H37
			C40.2,63,42.7,63.8,44.4,65.4z M41.4,76.2c1-0.9,1.5-2.3,1.5-4.1c0-1.8-0.5-3.2-1.5-4.1c-1-1-2.5-1.4-4.6-1.4h-2.3v11.1h2.6
			C39,77.6,40.4,77.1,41.4,76.2z"/>
	</g>
</g>
<path class="st2" d="M63,6.3v32H6v-32H63 M69,0.3H0v44h69V0.3L69,0.3z"/>
<g>
	<path class="st2" d="M36.4,31.6l-1.7-4H27l-1.7,4h-4.4l7.9-18.4h4l7.9,18.4H36.4z M30.9,18.7L28.6,24h4.6L30.9,18.7z"/>
	<path class="st2" d="M42.9,13.2H47v18.4h-4.1V13.2z"/>
</g>
</svg>
