<?xml version="1.0" encoding="utf-8"?>
<!-- Generator: Adobe Illustrator 19.2.1, SVG Export Plug-In . SVG Version: 6.00 Build 0)  -->
<svg version="1.1" id="Layer_1" xmlns="http://www.w3.org/2000/svg" xmlns:xlink="http://www.w3.org/1999/xlink" x="0px" y="0px"
	 viewBox="0 0 108 144" style="enable-background:new 0 0 108 144;" xml:space="preserve">
<style type="text/css">
	.st0{fill:#FFD980;}
	.st1{fill-rule:evenodd;clip-rule:evenodd;fill:#FFD980;}
</style>
<g>
	<path class="st0" d="M108,6V0l0,0H0v144h108v-6H6V6H108 M108,6"/>
	<g>
		<path class="st1" d="M73,24H24v96h72V47L73,24z M30,114V30h39.8v20.2H90V114H30z"/>
		<g>
			<path class="st0" d="M72.9,63.8c2.9,2.5,4.4,6.3,4.4,11.5c0,5.2-1.5,9-4.5,11.4c-3,2.4-7.6,3.6-13.8,3.6h-5.6V102h-9.4V60h14.8
				C65.3,60,70,61.3,72.9,63.8z M66.1,80.3c1.1-1.3,1.7-3.1,1.7-5.5c0-2.4-0.7-4.1-2.2-5.2c-1.5-1-3.7-1.5-6.8-1.5h-5.3v14.1h6.3
				C62.8,82.2,65,81.6,66.1,80.3z"/>
		</g>
	</g>
</g>
</svg>
