<?xml version="1.0" encoding="utf-8"?>
<!-- Generator: Adobe Illustrator 22.1.0, SVG Export Plug-In . SVG Version: 6.00 Build 0)  -->
<svg version="1.1" id="Layer_1" xmlns="http://www.w3.org/2000/svg" xmlns:xlink="http://www.w3.org/1999/xlink" x="0px" y="0px"
	 viewBox="0 0 192 42.2" style="enable-background:new 0 0 192 42.2;" xml:space="preserve">
<style type="text/css">
	.st0{fill:#FFD980;}
</style>
<g>
	<path class="st0" d="M38.7,40.6l-4.3-8.4H15.2l-4.3,8.4H0L19.9,1.7h9.9l19.9,38.9H38.7z M24.8,13.3l-5.8,11.3h11.5L24.8,13.3z"/>
	<path class="st0" d="M77.4,40.6l-4.3-8.4H53.9l-4.3,8.4H38.7L58.6,1.7h9.9l19.9,38.9H77.4z M63.6,13.3l-5.8,11.3h11.5L63.6,13.3z"
		/>
	<path class="st0" d="M150,36.2c-4.1,4-9.2,6.1-15.3,6.1c-6,0-11.1-2-15.3-6.1c-4.1-4-6.2-9.1-6.2-15.1c0-6,2.1-11,6.2-15.1
		c4.1-4,9.2-6.1,15.3-6.1c6,0,11.1,2,15.3,6.1c4.1,4,6.2,9.1,6.2,15.1C156.2,27.1,154.1,32.1,150,36.2 M146.9,21.1
		c0-3.6-1.2-6.8-3.5-9.3S138.2,8,134.8,8c-3.4,0-6.3,1.3-8.6,3.9c-2.3,2.6-3.5,5.7-3.5,9.3c0,3.6,1.2,6.7,3.5,9.3
		c2.3,2.6,5.2,3.8,8.6,3.8c3.4,0,6.3-1.3,8.6-3.8C145.7,27.9,146.9,24.8,146.9,21.1"/>
	<polygon class="st0" points="183.4,1.7 192,1.7 192,40.3 183.4,40.3 161.9,16.1 161.9,40.3 153.2,40.3 153.2,1.7 161.3,1.7 
		183.4,26.5 	"/>
	<path class="st0" d="M88.3,28.2v12.4h-8.7V1.7h20.7c6.1,0,10.4,1,12.9,3.1c2.6,2,3.9,5.3,3.9,9.9c0,0.5,0,0.9,0,1.4
		c0,0.3,0,0.5-0.1,0.8c0,0.1,0,0.1,0,0.2c-0.4,3.6-1.6,6.2-3.8,8c-0.9,0.8-2.1,1.4-3.4,1.9l0,0c0,0,0,0,0,0c-0.9,0.3-2,0.6-3.1,0.8
		l12.9,12.9h-10.7L96.3,28.2H88.3z M99.5,20.7h1.1c3,0,5-0.5,6.1-1.4c1.1-1,1.6-2.5,1.6-4.6c0-2.1-0.6-3.5-1.7-4.3
		c-1.1-0.8-3.1-1.2-5.8-1.2H88.3v11.5H99.5z"/>
</g>
</svg>
