<?xml version="1.0" encoding="utf-8"?>
<!-- Generator: Adobe Illustrator 19.2.1, SVG Export Plug-In . SVG Version: 6.00 Build 0)  -->
<svg version="1.1" id="Layer_1" xmlns="http://www.w3.org/2000/svg" xmlns:xlink="http://www.w3.org/1999/xlink" x="0px" y="0px"
	 viewBox="0 0 672 104" style="enable-background:new 0 0 672 104;" xml:space="preserve">
<style type="text/css">
	.st0{fill:#F2F1F0;}
</style>
<g>
	<path class="st0" d="M0,48.1h4.8c1.4,0,2.6-0.3,3.6-0.9c1-0.6,1.9-1.4,2.6-2.4c0.7-1,1.2-2.1,1.6-3.4c0.4-1.2,0.5-2.5,0.5-3.8V18.3
		c0-3,0.3-5.6,0.9-7.8c0.6-2.2,1.6-4.2,3.1-5.7s3.4-2.7,5.8-3.5C25.2,0.4,28.3,0,31.9,0h9.7v7.8H31.5c-3.3,0-5.7,0.8-7.1,2.3
		s-2.1,4.3-2.1,8.3V35c0,5.4-0.8,9.3-2.4,11.9c-1.6,2.5-3.4,4.2-5.5,5.1c2.1,1,3.9,2.8,5.5,5.4c1.6,2.6,2.4,6.5,2.4,11.6v16.6
		c0,4,0.7,6.8,2.2,8.3s3.8,2.3,7.2,2.3h10v7.8h-9.7c-3.7,0-6.7-0.4-9.2-1.2c-2.4-0.8-4.4-2-5.8-3.6c-1.4-1.6-2.5-3.5-3.1-5.7
		c-0.6-2.2-0.9-4.9-0.9-7.8V66.3c0-1.2-0.2-2.4-0.5-3.7c-0.4-1.2-0.9-2.4-1.6-3.4c-0.7-1-1.5-1.8-2.5-2.5c-1-0.6-2.2-1-3.5-1H0V48.1
		z"/>
	<path class="st0" d="M672,55.9h-4.8c-1.4,0-2.5,0.3-3.5,0.9c-1,0.6-1.8,1.4-2.5,2.4c-0.7,1-1.2,2.1-1.6,3.4
		c-0.4,1.2-0.5,2.5-0.5,3.8v19.4c0,3-0.3,5.6-0.9,7.8s-1.6,4.2-3.1,5.7c-1.5,1.6-3.4,2.7-5.9,3.6c-2.4,0.8-5.5,1.2-9.2,1.2h-9.7
		v-7.8h10.2c3.3,0,5.7-0.8,7.1-2.3c1.4-1.5,2.1-4.3,2.1-8.3V69c0-5.4,0.8-9.3,2.4-11.9c1.6-2.5,3.4-4.2,5.5-5.1
		c-2.1-1-3.9-2.8-5.5-5.4c-1.6-2.6-2.4-6.5-2.4-11.6V18.4c0-4-0.7-6.8-2.2-8.3s-3.8-2.3-7.2-2.3h-10V0h9.7c3.7,0,6.7,0.4,9.2,1.2
		c2.4,0.8,4.4,2,5.9,3.5c1.5,1.6,2.5,3.5,3.1,5.7c0.6,2.2,0.9,4.9,0.9,7.8v19.4c0,1.2,0.2,2.4,0.5,3.7c0.3,1.2,0.8,2.4,1.5,3.4
		c0.7,1,1.5,1.8,2.5,2.5c1,0.6,2.2,1,3.5,1h4.9V55.9z"/>
</g>
</svg>
