<?xml version="1.0" encoding="utf-8"?>
<!-- Generator: Adobe Illustrator 19.2.1, SVG Export Plug-In . SVG Version: 6.00 Build 0)  -->
<svg version="1.1" id="Layer_1" xmlns="http://www.w3.org/2000/svg" xmlns:xlink="http://www.w3.org/1999/xlink" x="0px" y="0px"
	 viewBox="0 0 54 54" style="enable-background:new 0 0 54 54;" xml:space="preserve">
<style type="text/css">
	.st0{fill:#C26B11;}
	.st1{fill:#EF7622;}
	.st2{fill:#CAC8C8;}
	.st3{fill:#FFFFFF;}
	.st4{fill:#008AAB;}
</style>
<g>
	<polygon class="st0" points="54,25.1 54,42 41.4,54 0,54 0,25.5 	"/>
	<polygon class="st1" points="54,13 54,38 41.4,50 0,50 0,0 41.4,0 	"/>
</g>
<polygon class="st2" points="41,37.3 41,17.3 37,13.3 17,13.3 13,17.3 13,37.3 17,41.3 37,41.3 "/>
<g>
	<polygon class="st3" points="41,33.3 41,13.3 37,9.3 17,9.3 13,13.3 13,33.3 17,37.3 37,37.3 	"/>
	<polygon class="st4" points="32,13.6 32,33.6 22,23.6 	"/>
</g>
</svg>
