<?xml version="1.0" encoding="utf-8"?>
<!-- Generator: Adobe Illustrator 19.2.1, SVG Export Plug-In . SVG Version: 6.00 Build 0)  -->
<svg version="1.1" id="Layer_1" xmlns="http://www.w3.org/2000/svg" xmlns:xlink="http://www.w3.org/1999/xlink" x="0px" y="0px"
	 viewBox="0 0 265.7 216" style="enable-background:new 0 0 265.7 216;" xml:space="preserve">
<style type="text/css">
	.st0{fill:url(#SVGID_1_);}
	.st1{fill:#FFFFFF;}
	.st2{fill:#CCC2BA;}
	.st3{fill:#C06C29;}
	.st4{enable-background:new    ;}
	.st5{clip-path:url(#SVGID_3_);fill:url(#SVGID_4_);}
	.st6{fill:#9D5B25;}
	.st7{clip-path:url(#SVGID_6_);fill:url(#SVGID_7_);}
	.st8{clip-path:url(#SVGID_9_);fill:#C26B11;}
	.st9{clip-path:url(#SVGID_11_);fill:#C26B11;}
	.st10{clip-path:url(#SVGID_13_);fill:url(#SVGID_14_);}
	.st11{clip-path:url(#SVGID_16_);fill:#C26B11;}
	.st12{clip-path:url(#SVGID_18_);fill:url(#SVGID_19_);}
	.st13{clip-path:url(#SVGID_21_);fill:url(#SVGID_22_);}
	.st14{clip-path:url(#SVGID_24_);fill:url(#SVGID_25_);}
	.st15{clip-path:url(#SVGID_27_);fill:#C26B11;}
	.st16{clip-path:url(#SVGID_29_);fill:#C26B11;}
	.st17{clip-path:url(#SVGID_31_);fill:url(#SVGID_32_);}
	.st18{fill:url(#SVGID_33_);}
	.st19{fill:url(#SVGID_34_);}
</style>
<g>
	<linearGradient id="SVGID_1_" gradientUnits="userSpaceOnUse" x1="128.095" y1="-1.9562" x2="131.895" y2="215.7444">
		<stop  offset="0" style="stop-color:#A3A9AD"/>
		<stop  offset="1" style="stop-color:#7D858B"/>
	</linearGradient>
	<path class="st0" d="M239.9,62.4c-1.2-8.2-4.1-16-8.3-23.2c-4.3-7.1-9.9-13.6-16.5-19c-6.6-5.4-14.3-9.9-22.5-13
		c-8.2-3.1-17.1-4.9-26.2-5L16,0L0,9.8l18.6,145.6c1.1,8.5,4,16.6,8.4,23.9c4.4,7.3,10.3,13.9,17.2,19.4c6.9,5.5,14.8,9.9,23.4,12.9
		c8.5,3,17.7,4.6,27,4.4l148.1-2.2l17.4-8.2L239.9,62.4z"/>
	<path class="st1" d="M168,19.9c30.4,0,58.2,22.8,62.1,50.8l16.5,120.5L124.4,190c-29.9-0.3-57.2-22.8-61.2-50.3L45.9,19.9H168z"/>
	<path class="st2" d="M226.7,73.3c-1-7.4-3.7-14.6-7.6-21c-3.9-6.5-9-12.3-15-17.2c-6-4.9-12.9-9-20.4-11.8
		c-3.5-1.3-7.1-2.4-10.9-3.1c-1.6-0.1-3.3-0.2-4.9-0.2h-122l1.3,8.8l57.2,0.7l7.4,55.4c-2-1.1-4.1-2.1-6.2-3
		c-2.1-0.9-4.3-1.6-6.5-2.2c-2.2-0.6-4.4-1.1-6.6-1.4c-2.2-0.3-4.5-0.5-6.8-0.5c-4.4,0-8.7,0.6-12.7,1.7c-4,1.1-7.7,2.7-11.2,4.9
		c-2.1,1.3-4.2,2.8-6,4.5l7.4,51c4,27.5,31.3,50,61.2,50.3l1.2,0c2.7-1.7,5.2-3.7,7.4-6c3.7-3.7,6.7-8,9.1-12.9
		c2.4-4.9,4-10.2,4.9-15.9c0.9-5.7,0.9-11.8,0.1-18.1l-1.5-11c1.6,3.4,3.6,6.5,6,9.4c2.3,2.8,5,5.3,7.9,7.3c2.9,2.1,6,3.7,9.2,4.8
		c3.2,1.1,6.6,1.7,10,1.7l19.7-0.1c1,0,2,0.2,2.9,0.6c0.9,0.4,1.8,1,2.6,1.8c0.8,0.7,1.4,1.6,1.9,2.6c0.5,1,0.9,2.1,1,3.2
		c0.2,1.1,0.1,2.2-0.1,3.2c-0.2,1-0.7,1.9-1.2,2.6c-0.6,0.8-1.3,1.4-2.1,1.8c-0.8,0.4-1.7,0.7-2.8,0.7l-16.5,0.1
		c-0.9,0-1.7-0.2-2.5-0.5c-0.8-0.3-1.6-0.7-2.3-1.3c-0.7-0.6-1.3-1.2-1.9-2c-0.5-0.8-1-1.6-1.3-2.5l-23.9,0.2l0.9,6.5
		c0.4,3,1.2,5.8,2.3,8.5c1.1,2.7,2.5,5.2,4.2,7.4c1.7,2.3,3.6,4.3,5.7,6c1,0.8,2.1,1.6,3.2,2.3l53.1,0.6c0.6-0.4,1.3-0.7,1.9-1.1
		c1.1-0.8,2.2-1.6,3.2-2.6c1-0.9,1.9-2,2.8-3c0.9-1.1,1.6-2.3,2.3-3.5l1.4,10.3l10.1,0.1L226.7,73.3z M118.3,148
		c-0.8,3.4-2.3,6.4-4.2,9c-1.9,2.6-4.4,4.6-7.2,6.1c-2.8,1.4-6.1,2.3-9.6,2.3c-3.5,0-6.9-0.7-10.1-2.2c-3.2-1.4-6.2-3.5-8.9-6
		c-2.6-2.5-4.9-5.6-6.6-8.9c-1.7-3.4-2.9-7.1-3.4-11c-0.5-3.9-0.3-7.6,0.6-11c0.9-3.4,2.3-6.4,4.3-9c2-2.6,4.4-4.6,7.3-6
		c2.8-1.4,6.1-2.2,9.6-2.2c3.5,0,6.9,0.8,10.1,2.2c3.2,1.4,6.2,3.5,8.8,6c2.6,2.5,4.9,5.5,6.6,8.9c1.7,3.4,2.9,7,3.4,10.9
		C119.3,141,119.1,144.7,118.3,148z M159.3,79.4c-2.9,1.1-5.6,2.7-7.9,4.7c-2.3,2-4.3,4.5-5.9,7.3c-1.6,2.8-2.7,5.9-3.4,9.3
		l-9.6-71.1l29,0.3c3.4,0,6.8,0.4,10.1,1c3.3,0.6,6.6,1.5,9.8,2.7c3.2,1.2,6.2,2.6,9.2,4.3c2.9,1.7,5.8,3.6,8.4,5.8
		c2.5,2,4.7,4.2,6.7,6.5c2,2.3,3.8,4.7,5.3,7.2c1.5,2.5,2.7,5.1,3.7,7.7c1,2.7,1.6,5.4,2,8.1l2.7,19.5c-1.4-2.2-2.9-4.2-4.7-6
		c-1.8-1.8-3.7-3.4-5.8-4.7c-2.1-1.3-4.3-2.3-6.6-3.1c-2.3-0.7-4.6-1.1-7-1.1l-26.5-0.1C165.5,77.7,162.3,78.3,159.3,79.4z
		 M219.8,130.4c-2-1.6-4.2-3-6.4-4.1c-2.2-1.1-4.6-2-7-2.6c-2.4-0.6-4.9-0.9-7.3-0.9l-19.6,0c-1,0-2-0.2-3-0.7
		c-0.9-0.4-1.8-1-2.6-1.8c-0.8-0.8-1.4-1.6-1.9-2.6c-0.5-1-0.9-2.1-1-3.2c-0.2-1.1-0.1-2.2,0.1-3.2c0.2-1,0.6-1.9,1.2-2.6
		c0.6-0.7,1.3-1.3,2.1-1.8c0.8-0.4,1.8-0.6,2.8-0.6l16.5,0c0.8,0,1.7,0.2,2.5,0.5c0.8,0.3,1.6,0.7,2.3,1.3c0.7,0.6,1.3,1.2,1.9,2
		c0.5,0.8,1,1.6,1.3,2.5h20.5l3.2,23.4C223.7,133.8,221.8,132,219.8,130.4z"/>
	<polygon class="st3" points="240.3,78.1 223.3,87.1 220.6,67.6 237.6,58.6 	"/>
	<polygon class="st3" points="246.3,121.2 229.2,129.9 226,106.7 243.1,97.8 	"/>
	<g class="st4">
		<defs>
			<path id="SVGID_2_" class="st4" d="M237.6,58.6l-17,9.1c-0.4-2.7-1-5.4-2-8c-0.9-2.6-2.2-5.2-3.7-7.7c-1.5-2.5-3.2-4.9-5.2-7.2
				c-2-2.3-4.2-4.4-6.7-6.4c-2.6-2.1-5.4-4.1-8.4-5.7c-2.9-1.7-6-3.1-9.2-4.2c-3.2-1.2-6.4-2-9.7-2.6c-3.3-0.6-6.7-0.9-10.1-1
				l16.7-9.4c3.4,0,6.8,0.4,10.1,1c3.3,0.6,6.6,1.5,9.8,2.7c3.2,1.2,6.2,2.6,9.2,4.3c2.9,1.7,5.8,3.6,8.4,5.8c2.5,2,4.7,4.2,6.7,6.5
				c2,2.3,3.8,4.7,5.3,7.2c1.5,2.5,2.7,5.1,3.7,7.7C236.6,53.1,237.2,55.8,237.6,58.6z"/>
		</defs>
		<use xlink:href="#SVGID_2_"  style="overflow:visible;fill:#C26B11;"/>
		<clipPath id="SVGID_3_">
			<use xlink:href="#SVGID_2_"  style="overflow:visible;"/>
		</clipPath>
		<linearGradient id="SVGID_4_" gradientUnits="userSpaceOnUse" x1="219.2617" y1="69.1621" x2="186.6549" y2="12.6856">
			<stop  offset="0" style="stop-color:#C06C29"/>
			<stop  offset="1" style="stop-color:#9D5B25"/>
		</linearGradient>
		<path class="st5" d="M237.6,58.6l-17,9.1c-0.4-2.7-1-5.4-2-8c-0.9-2.6-2.2-5.2-3.7-7.7c-1.5-2.5-3.2-4.9-5.2-7.2
			c-2-2.3-4.2-4.4-6.7-6.4c-2.6-2.1-5.4-4.1-8.4-5.7c-2.9-1.7-6-3.1-9.2-4.2c-3.2-1.2-6.4-2-9.7-2.6c-3.3-0.6-6.7-0.9-10.1-1
			l16.7-9.4c3.4,0,6.8,0.4,10.1,1c3.3,0.6,6.6,1.5,9.8,2.7c3.2,1.2,6.2,2.6,9.2,4.3c2.9,1.7,5.8,3.6,8.4,5.8c2.5,2,4.7,4.2,6.7,6.5
			c2,2.3,3.8,4.7,5.3,7.2c1.5,2.5,2.7,5.1,3.7,7.7C236.6,53.1,237.2,55.8,237.6,58.6"/>
	</g>
	<polygon class="st6" points="243.1,97.8 226,106.7 205.6,106.7 222.6,97.8 	"/>
	<g class="st4">
		<defs>
			<path id="SVGID_5_" class="st4" d="M222.6,97.8l-17,8.9c-0.3-0.9-0.8-1.7-1.3-2.5c-0.5-0.7-1.2-1.4-1.9-2c-0.7-0.5-1.4-1-2.2-1.3
				c-0.8-0.3-1.6-0.5-2.5-0.5l17-8.9c0.8,0,1.7,0.2,2.5,0.5c0.8,0.3,1.6,0.7,2.3,1.3c0.7,0.6,1.3,1.2,1.9,2
				C221.8,96.1,222.3,96.9,222.6,97.8z"/>
		</defs>
		<use xlink:href="#SVGID_5_"  style="overflow:visible;fill:#C26B11;"/>
		<clipPath id="SVGID_6_">
			<use xlink:href="#SVGID_5_"  style="overflow:visible;"/>
		</clipPath>
		<linearGradient id="SVGID_7_" gradientUnits="userSpaceOnUse" x1="212.7169" y1="103.5007" x2="207.6689" y2="94.7573">
			<stop  offset="0" style="stop-color:#9D5B25"/>
			<stop  offset="1" style="stop-color:#C06C29"/>
		</linearGradient>
		<path class="st7" d="M222.6,97.8l-17,8.9c-0.3-0.9-0.8-1.7-1.3-2.5c-0.5-0.7-1.2-1.4-1.9-2c-0.7-0.5-1.4-1-2.2-1.3
			c-0.8-0.3-1.6-0.5-2.5-0.5l17-8.9c0.8,0,1.7,0.2,2.5,0.5c0.8,0.3,1.6,0.7,2.3,1.3c0.7,0.6,1.3,1.2,1.9,2
			C221.8,96.1,222.3,96.9,222.6,97.8"/>
	</g>
	<polygon class="st6" points="254.1,177.1 236.9,185.4 235.4,174.5 252.6,166.1 	"/>
	<polygon class="st3" points="214.7,91.6 197.7,100.5 181.3,100.5 198.2,91.6 	"/>
	<g class="st4">
		<defs>
			<path id="SVGID_8_" class="st4" d="M178.4,101.2l16.9-8.9c0.2-0.1,0.4-0.2,0.7-0.3c0.2-0.1,0.5-0.2,0.7-0.2
				c0.2-0.1,0.5-0.1,0.7-0.1c0.3,0,0.5,0,0.8,0l-16.9,8.9c-0.3,0-0.5,0-0.8,0c-0.3,0-0.5,0.1-0.7,0.1c-0.2,0.1-0.5,0.1-0.7,0.2
				C178.9,101,178.6,101.1,178.4,101.2z"/>
		</defs>
		<use xlink:href="#SVGID_8_"  style="overflow:visible;fill:#C26B11;"/>
		<clipPath id="SVGID_9_">
			<use xlink:href="#SVGID_8_"  style="overflow:visible;"/>
		</clipPath>
		<path class="st8" d="M198.2,91.6l-16.9,8.9c-0.3,0-0.5,0-0.8,0c-0.3,0-0.5,0.1-0.7,0.1c-0.2,0.1-0.5,0.1-0.7,0.2
			c-0.2,0.1-0.4,0.2-0.6,0.3l16.9-8.9c0.2-0.1,0.4-0.2,0.7-0.3c0.2-0.1,0.5-0.2,0.7-0.2c0.2-0.1,0.5-0.1,0.7-0.1
			C197.7,91.6,197.9,91.6,198.2,91.6"/>
	</g>
	<g class="st4">
		<defs>
			<path id="SVGID_10_" class="st4" d="M241.1,177c-5.7,2.8-11.5,5.6-17.2,8.4c0,0-0.1,0-0.1,0c0,0-0.1,0-0.1,0c0,0-0.1,0-0.1,0
				c0,0-0.1,0-0.1,0l17.2-8.4c0,0,0.1,0,0.1,0c0,0,0.1,0,0.1,0C241,177.1,241,177.1,241.1,177C241,177.1,241.1,177.1,241.1,177z"/>
		</defs>
		<use xlink:href="#SVGID_10_"  style="overflow:visible;fill:#C26B11;"/>
		<clipPath id="SVGID_11_">
			<use xlink:href="#SVGID_10_"  style="overflow:visible;"/>
		</clipPath>
		<path class="st9" d="M241.1,177l-17.2,8.4c0,0-0.1,0-0.1,0c0,0-0.1,0-0.1,0c0,0-0.1,0-0.1,0c0,0-0.1,0-0.1,0l17.2-8.4
			c0,0,0.1,0,0.1,0c0,0,0.1,0,0.1,0C241,177.1,241,177.1,241.1,177C241,177.1,241.1,177.1,241.1,177"/>
	</g>
	<polygon class="st6" points="182.5,15.4 165.7,24.8 136.8,24.5 153.5,15 	"/>
	<g class="st4">
		<defs>
			<path id="SVGID_12_" class="st4" d="M224.2,150.3c-5.7,2.8-11.4,5.7-17.1,8.5c0.6-0.3,1.2-0.7,1.7-1.2c0.5-0.5,0.9-1.1,1.2-1.8
				c0.3-0.7,0.5-1.4,0.6-2.2c0.1-0.8,0.1-1.6,0-2.5c-0.2-1.1-0.5-2.2-1-3.2c-0.5-1-1.2-1.9-1.9-2.6c-0.8-0.7-1.6-1.3-2.6-1.7
				c-0.9-0.4-1.9-0.6-2.9-0.6l17.1-8.6c1,0,2,0.2,2.9,0.6c0.9,0.4,1.8,1,2.6,1.8c0.8,0.7,1.4,1.6,1.9,2.6c0.5,1,0.9,2.1,1,3.2
				c0.1,0.9,0.1,1.7,0,2.5c-0.1,0.8-0.3,1.5-0.6,2.2c-0.3,0.7-0.7,1.3-1.2,1.8C225.3,149.6,224.8,150,224.2,150.3z"/>
		</defs>
		<use xlink:href="#SVGID_12_"  style="overflow:visible;fill:#C26B11;"/>
		<clipPath id="SVGID_13_">
			<use xlink:href="#SVGID_12_"  style="overflow:visible;"/>
		</clipPath>
		<linearGradient id="SVGID_14_" gradientUnits="userSpaceOnUse" x1="219.19" y1="153.2128" x2="210.542" y2="138.2341">
			<stop  offset="0" style="stop-color:#C06C29"/>
			<stop  offset="0.5" style="stop-color:#9D5B25"/>
			<stop  offset="1" style="stop-color:#C06C29"/>
		</linearGradient>
		<path class="st10" d="M224.2,150.3l-17.1,8.5c0.6-0.3,1.2-0.7,1.7-1.2c0.5-0.5,0.9-1.1,1.2-1.8c0.3-0.7,0.5-1.4,0.6-2.2
			c0.1-0.8,0.1-1.6,0-2.5c-0.2-1.1-0.5-2.2-1-3.2c-0.5-1-1.2-1.9-1.9-2.6c-0.8-0.7-1.6-1.3-2.6-1.7c-0.9-0.4-1.9-0.6-2.9-0.6
			l17.1-8.6c1,0,2,0.2,2.9,0.6c0.9,0.4,1.8,1,2.6,1.8c0.8,0.7,1.4,1.6,1.9,2.6c0.5,1,0.9,2.1,1,3.2c0.1,0.9,0.1,1.7,0,2.5
			c-0.1,0.8-0.3,1.5-0.6,2.2c-0.3,0.7-0.7,1.3-1.2,1.8C225.3,149.6,224.8,150,224.2,150.3"/>
	</g>
	<polygon class="st3" points="219.2,134.4 202.2,143.1 182.6,143.2 199.6,134.5 	"/>
	<g class="st4">
		<defs>
			<path id="SVGID_15_" class="st4" d="M160.2,75.3c5.6-3,11.2-6.1,16.8-9.1c-1.8,1-3.4,2.1-4.9,3.5c-1.5,1.4-2.9,2.9-4.1,4.6
				c-1.2,1.7-2.2,3.5-3,5.5c-0.8,2-1.5,4.1-1.9,6.3l-16.7,9c0.5-2.2,1.1-4.3,1.9-6.3c0.8-2,1.9-3.8,3-5.5c1.2-1.7,2.5-3.2,4-4.6
				C156.8,77.5,158.5,76.3,160.2,75.3z"/>
		</defs>
		<use xlink:href="#SVGID_15_"  style="overflow:visible;fill:#C26B11;"/>
		<clipPath id="SVGID_16_">
			<use xlink:href="#SVGID_15_"  style="overflow:visible;"/>
		</clipPath>
		<path class="st11" d="M163,86.1l-16.7,9c0.5-2.2,1.1-4.3,1.9-6.3c0.8-2,1.9-3.8,3-5.5c1.2-1.7,2.5-3.2,4-4.6
			c1.5-1.3,3.1-2.5,4.9-3.5l16.8-9.1c-1.8,1-3.4,2.1-4.9,3.5c-1.5,1.4-2.9,2.9-4.1,4.6c-1.2,1.7-2.2,3.5-3,5.5
			C164.1,81.8,163.5,83.9,163,86.1"/>
	</g>
	<g class="st4">
		<defs>
			<path id="SVGID_17_" class="st4" d="M199.6,134.5l-17,8.7c-3.4,0-6.8-0.6-10-1.7c-3.2-1.1-6.3-2.7-9.2-4.7
				c-2.9-2-5.5-4.5-7.8-7.3c-2.3-2.8-4.3-5.9-5.9-9.3l16.8-8.8c1.6,3.4,3.6,6.6,6,9.4c2.3,2.8,5,5.3,7.9,7.4c2.9,2,6,3.7,9.2,4.8
				C192.8,134,196.1,134.5,199.6,134.5z"/>
		</defs>
		<use xlink:href="#SVGID_17_"  style="overflow:visible;fill:#C26B11;"/>
		<clipPath id="SVGID_18_">
			<use xlink:href="#SVGID_17_"  style="overflow:visible;"/>
		</clipPath>
		<linearGradient id="SVGID_19_" gradientUnits="userSpaceOnUse" x1="183.8889" y1="143.5841" x2="165.2064" y2="111.2249">
			<stop  offset="0" style="stop-color:#C06C29"/>
			<stop  offset="0.5" style="stop-color:#9D5B25"/>
			<stop  offset="1" style="stop-color:#C06C29"/>
		</linearGradient>
		<path class="st12" d="M199.6,134.5l-17,8.7c-3.4,0-6.8-0.6-10-1.7c-3.2-1.1-6.3-2.7-9.2-4.7c-2.9-2-5.5-4.5-7.8-7.3
			c-2.3-2.8-4.3-5.9-5.9-9.3l16.8-8.8c1.6,3.4,3.6,6.6,6,9.4c2.3,2.8,5,5.3,7.9,7.4c2.9,2,6,3.7,9.2,4.8
			C192.8,134,196.1,134.5,199.6,134.5"/>
	</g>
	<polygon class="st3" points="132.8,70.1 116.2,79.2 108.9,24.2 125.4,14.7 	"/>
	<polygon class="st3" points="174,151.5 157.1,160.1 156.2,153.7 173.1,145 	"/>
	<g class="st4">
		<defs>
			<path id="SVGID_20_" class="st4" d="M193,177.7l-17,8.4c-2.4-1.1-4.7-2.5-6.8-4.2c-2.1-1.7-4-3.7-5.7-6c-1.7-2.3-3.1-4.7-4.2-7.4
				c-1.1-2.7-1.9-5.5-2.3-8.4l16.9-8.6c0.4,3,1.2,5.8,2.3,8.5c1.1,2.7,2.5,5.2,4.2,7.5c1.7,2.3,3.6,4.3,5.7,6
				C188.3,175.2,190.6,176.7,193,177.7z"/>
		</defs>
		<use xlink:href="#SVGID_20_"  style="overflow:visible;fill:#C26B11;"/>
		<clipPath id="SVGID_21_">
			<use xlink:href="#SVGID_20_"  style="overflow:visible;"/>
		</clipPath>
		<linearGradient id="SVGID_22_" gradientUnits="userSpaceOnUse" x1="182.2301" y1="183.9294" x2="165.6351" y2="155.186">
			<stop  offset="0" style="stop-color:#C06C29"/>
			<stop  offset="0.5" style="stop-color:#9D5B25"/>
			<stop  offset="1" style="stop-color:#C06C29"/>
		</linearGradient>
		<path class="st13" d="M193,177.7l-17,8.4c-2.4-1.1-4.7-2.5-6.8-4.2c-2.1-1.7-4-3.7-5.7-6c-1.7-2.3-3.1-4.7-4.2-7.4
			c-1.1-2.7-1.9-5.5-2.3-8.4l16.9-8.6c0.4,3,1.2,5.8,2.3,8.5c1.1,2.7,2.5,5.2,4.2,7.5c1.7,2.3,3.6,4.3,5.7,6
			C188.3,175.2,190.6,176.7,193,177.7"/>
	</g>
	<polygon class="st6" points="125.4,14.7 108.9,24.2 40.7,23.5 56.9,13.9 	"/>
	<g class="st4">
		<defs>
			<path id="SVGID_23_" class="st4" d="M128,148.3c-5.6,2.9-11.1,5.8-16.7,8.7c2.1-1.1,4-2.5,5.6-4.2c1.6-1.7,3-3.7,4-5.9
				c1-2.2,1.8-4.7,2.1-7.3c0.4-2.6,0.4-5.4,0-8.2c-0.5-3.8-1.7-7.5-3.4-10.8c-1.7-3.3-3.9-6.3-6.5-8.8c-2.6-2.5-5.6-4.5-8.8-5.9
				c-3.2-1.4-6.6-2.2-10.1-2.2c-0.9,0-1.9,0.1-2.8,0.2c-0.9,0.1-1.8,0.3-2.6,0.5c-0.8,0.2-1.7,0.5-2.5,0.8c-0.8,0.3-1.6,0.7-2.3,1.1
				l16.5-9c0.7-0.4,1.5-0.8,2.3-1.1c0.8-0.3,1.6-0.6,2.5-0.8c0.9-0.2,1.7-0.4,2.6-0.5c0.9-0.1,1.8-0.2,2.8-0.2
				c3.5,0,6.9,0.8,10.1,2.2c3.2,1.4,6.2,3.5,8.8,6c2.6,2.5,4.8,5.5,6.6,8.9c1.7,3.3,2.9,7,3.4,10.9c0.4,2.9,0.4,5.7,0,8.3
				c-0.4,2.6-1.1,5.1-2.2,7.3c-1.1,2.2-2.4,4.3-4,6C132,145.8,130.1,147.2,128,148.3z"/>
		</defs>
		<use xlink:href="#SVGID_23_"  style="overflow:visible;fill:#C26B11;"/>
		<clipPath id="SVGID_24_">
			<use xlink:href="#SVGID_23_"  style="overflow:visible;"/>
		</clipPath>
		<linearGradient id="SVGID_25_" gradientUnits="userSpaceOnUse" x1="130.975" y1="146.6149" x2="101.7116" y2="95.9292">
			<stop  offset="0" style="stop-color:#C06C29"/>
			<stop  offset="0.5" style="stop-color:#9D5B25"/>
			<stop  offset="1" style="stop-color:#C06C29"/>
		</linearGradient>
		<path class="st14" d="M128,148.3l-16.7,8.7c2.1-1.1,4-2.5,5.6-4.2c1.6-1.7,3-3.7,4-5.9c1-2.2,1.8-4.7,2.1-7.3
			c0.4-2.6,0.4-5.4,0-8.2c-0.5-3.8-1.7-7.5-3.4-10.8c-1.7-3.3-3.9-6.3-6.5-8.8c-2.6-2.5-5.6-4.5-8.8-5.9c-3.2-1.4-6.6-2.2-10.1-2.2
			c-0.9,0-1.9,0.1-2.8,0.2c-0.9,0.1-1.8,0.3-2.6,0.5c-0.8,0.2-1.7,0.5-2.5,0.8c-0.8,0.3-1.6,0.7-2.3,1.1l16.5-9
			c0.7-0.4,1.5-0.8,2.3-1.1c0.8-0.3,1.6-0.6,2.5-0.8c0.9-0.2,1.7-0.4,2.6-0.5c0.9-0.1,1.8-0.2,2.8-0.2c3.5,0,6.9,0.8,10.1,2.2
			c3.2,1.4,6.2,3.5,8.8,6c2.6,2.5,4.8,5.5,6.6,8.9c1.7,3.3,2.9,7,3.4,10.9c0.4,2.9,0.4,5.7,0,8.3c-0.4,2.6-1.1,5.1-2.2,7.3
			c-1.1,2.2-2.4,4.3-4,6C132,145.8,130.1,147.2,128,148.3"/>
	</g>
	<g class="st4">
		<defs>
			<path id="SVGID_26_" class="st4" d="M142.4,177.7l-16.8,8.5c-0.1,0-0.2,0.1-0.3,0.1c-0.1,0.1-0.2,0.1-0.3,0.1
				c-0.1,0-0.2,0.1-0.3,0.1c-0.1,0-0.2,0.1-0.3,0.1l16.7-8.5c0.1,0,0.2-0.1,0.3-0.1c0.1,0,0.2-0.1,0.3-0.1c0.1,0,0.2-0.1,0.3-0.1
				C142.2,177.8,142.3,177.8,142.4,177.7z"/>
		</defs>
		<use xlink:href="#SVGID_26_"  style="overflow:visible;fill:#C26B11;"/>
		<clipPath id="SVGID_27_">
			<use xlink:href="#SVGID_26_"  style="overflow:visible;"/>
		</clipPath>
		<path class="st15" d="M142.4,177.7l-16.8,8.5c-0.1,0-0.2,0.1-0.3,0.1c-0.1,0.1-0.2,0.1-0.3,0.1c-0.1,0-0.2,0.1-0.3,0.1
			c-0.1,0-0.2,0.1-0.3,0.1l16.7-8.5c0.1,0,0.2-0.1,0.3-0.1c0.1,0,0.2-0.1,0.3-0.1c0.1,0,0.2-0.1,0.3-0.1
			C142.2,177.8,142.3,177.8,142.4,177.7"/>
	</g>
	<polygon class="st6" points="265.7,188.4 248.4,196.6 114.3,198.4 131,190 	"/>
	<g class="st4">
		<defs>
			<path id="SVGID_28_" class="st4" d="M67.9,77.9c5.4-3.1,10.9-6.1,16.3-9.2c-1.9,1.1-3.7,2.3-5.4,3.6c-1.7,1.3-3.3,2.8-4.8,4.3
				c-1.5,1.6-2.9,3.2-4.2,5c-1.3,1.8-2.5,3.7-3.5,5.6l-16.3,9.1c1.1-2,2.2-3.8,3.5-5.6c1.3-1.8,2.7-3.4,4.2-5c1.5-1.5,3.1-3,4.8-4.3
				C64.2,80.1,66,79,67.9,77.9z"/>
		</defs>
		<use xlink:href="#SVGID_28_"  style="overflow:visible;fill:#C26B11;"/>
		<clipPath id="SVGID_29_">
			<use xlink:href="#SVGID_28_"  style="overflow:visible;"/>
		</clipPath>
		<path class="st16" d="M66.4,87.2l-16.3,9.1c1.1-2,2.2-3.8,3.5-5.6c1.3-1.8,2.7-3.4,4.2-5c1.5-1.5,3.1-3,4.8-4.3
			c1.7-1.3,3.5-2.5,5.3-3.6l16.3-9.2c-1.9,1.1-3.7,2.3-5.4,3.6c-1.7,1.3-3.3,2.8-4.8,4.3c-1.5,1.6-2.9,3.2-4.2,5
			C68.6,83.4,67.4,85.2,66.4,87.2"/>
	</g>
	<polygon class="st3" points="62,134.7 45.6,143.6 28.8,11.9 44.9,2.3 	"/>
	<g class="st4">
		<defs>
			<path id="SVGID_30_" class="st4" d="M131,190l-16.7,8.4c-8.4,0.1-16.7-1.3-24.4-4c-7.7-2.7-14.9-6.7-21.1-11.7
				c-6.2-5-11.5-10.9-15.5-17.5c-4-6.6-6.7-13.9-7.6-21.6l16.3-8.8c1,7.7,3.7,15.1,7.7,21.7c4,6.7,9.3,12.7,15.6,17.7
				c6.3,5,13.5,9,21.2,11.8C114.3,188.7,122.6,190.1,131,190z"/>
		</defs>
		<use xlink:href="#SVGID_30_"  style="overflow:visible;fill:#C26B11;"/>
		<clipPath id="SVGID_31_">
			<use xlink:href="#SVGID_30_"  style="overflow:visible;"/>
		</clipPath>
		<linearGradient id="SVGID_32_" gradientUnits="userSpaceOnUse" x1="107.2585" y1="203.7463" x2="65.7941" y2="131.9279">
			<stop  offset="0" style="stop-color:#9D5B25"/>
			<stop  offset="1" style="stop-color:#C06C29"/>
		</linearGradient>
		<path class="st17" d="M131,190l-16.7,8.4c-8.4,0.1-16.7-1.3-24.4-4c-7.7-2.7-14.9-6.7-21.1-11.7c-6.2-5-11.5-10.9-15.5-17.5
			c-4-6.6-6.7-13.9-7.6-21.6l16.3-8.8c1,7.7,3.7,15.1,7.7,21.7c4,6.7,9.3,12.7,15.6,17.7c6.3,5,13.5,9,21.2,11.8
			C114.3,188.7,122.6,190.1,131,190"/>
	</g>
	<linearGradient id="SVGID_33_" gradientUnits="userSpaceOnUse" x1="64.5903" y1="147.6841" x2="243.8536" y2="44.1864">
		<stop  offset="0" style="stop-color:#EF7622"/>
		<stop  offset="1" style="stop-color:#F89250"/>
	</linearGradient>
	<path class="st18" d="M180.9,4.1c8.2,0.1,16.3,1.7,23.7,4.5c7.5,2.8,14.4,6.8,20.4,11.8c6,4.9,11.1,10.8,15,17.2
		c3.9,6.5,6.5,13.6,7.5,21l18.1,129.7L131,190c-8.5,0.1-16.8-1.4-24.5-4.1c-7.8-2.7-15-6.8-21.2-11.8c-6.3-5-11.6-11-15.6-17.7
		c-4-6.7-6.7-14-7.7-21.7L44.9,2.3l79,1.1l28,0.4L180.9,4.1z M221.5,151c1,0,1.9-0.2,2.8-0.7c0.8-0.4,1.5-1,2.1-1.8
		c0.6-0.8,1-1.6,1.2-2.6c0.2-1,0.3-2.1,0.1-3.2c-0.2-1.1-0.5-2.2-1-3.2c-0.5-1-1.2-1.9-1.9-2.6c-0.8-0.7-1.6-1.4-2.6-1.8
		c-0.9-0.4-1.9-0.6-2.9-0.6l-19.6,0.1c-3.4,0-6.8-0.6-10-1.7c-3.2-1.1-6.4-2.7-9.2-4.8c-2.9-2-5.5-4.5-7.9-7.4c-2.3-2.8-4.4-6-6-9.4
		l1.5,11c0.9,6.3,0.8,12.4-0.1,18.1c-0.9,5.7-2.5,11.1-4.9,15.9c-2.4,4.9-5.4,9.2-9.1,12.9c-3.7,3.7-7.9,6.7-12.6,8.9l51.7-0.6
		c-2.4-1.1-4.7-2.5-6.8-4.2c-2.1-1.7-4-3.8-5.7-6c-1.7-2.3-3.1-4.8-4.2-7.5c-1.1-2.7-1.9-5.5-2.3-8.5l-0.9-6.5l23.9-0.1
		c0.3,0.9,0.8,1.7,1.3,2.5c0.5,0.7,1.2,1.4,1.9,2c0.7,0.6,1.5,1,2.3,1.3c0.8,0.3,1.7,0.5,2.5,0.5L221.5,151 M240.3,78.1l-2.7-19.5
		c-0.4-2.7-1.1-5.4-2-8.1c-1-2.6-2.2-5.2-3.7-7.7c-1.5-2.5-3.3-4.9-5.3-7.2c-2-2.3-4.2-4.5-6.7-6.5c-2.6-2.2-5.5-4.1-8.4-5.8
		c-3-1.7-6-3.1-9.2-4.3c-3.2-1.2-6.4-2.1-9.8-2.7c-3.3-0.6-6.7-0.9-10.1-1l-29-0.3l9.6,71.1c0.7-3.4,1.9-6.5,3.4-9.3
		c1.6-2.8,3.6-5.3,5.9-7.3c2.3-2,5-3.6,7.9-4.7c2.9-1.1,6.1-1.7,9.5-1.7l26.5,0.1c2.4,0,4.7,0.4,7,1.1c2.3,0.7,4.5,1.7,6.6,3
		c2.1,1.3,4,2.9,5.8,4.7C237.4,73.9,239,75.9,240.3,78.1 M66.4,87.2c2-3.7,4.4-7.1,7.2-10.1c2.8-3,5.9-5.5,9.3-7.7
		c3.4-2.1,7.2-3.7,11.2-4.9c4-1.1,8.2-1.7,12.7-1.7c2.3,0,4.5,0.2,6.8,0.5c2.2,0.3,4.5,0.8,6.6,1.4c2.2,0.6,4.3,1.3,6.4,2.2
		c2.1,0.9,4.2,1.9,6.2,3l-7.4-55.4l-68.5-0.8L66.4,87.2 M118.3,150.7c3.5,0,6.7-0.8,9.5-2.3c2.8-1.5,5.3-3.5,7.2-6.1
		c1.9-2.6,3.4-5.6,4.2-8.9c0.8-3.4,1-7,0.5-10.9c-0.5-3.9-1.7-7.5-3.4-10.9c-1.7-3.3-4-6.4-6.6-8.9c-2.6-2.5-5.6-4.6-8.8-6
		c-3.2-1.4-6.6-2.2-10.1-2.2c-3.5,0-6.7,0.8-9.6,2.2c-2.8,1.4-5.3,3.5-7.3,6c-2,2.5-3.4,5.6-4.3,8.9c-0.8,3.4-1.1,7.1-0.6,11
		c0.5,3.9,1.7,7.6,3.4,11c1.7,3.4,4,6.4,6.6,8.9c2.6,2.5,5.6,4.6,8.9,6C111.4,149.9,114.8,150.7,118.3,150.7 M246.3,121.2l-3.3-23.4
		l-20.5,0c-0.3-0.9-0.8-1.7-1.3-2.5c-0.5-0.7-1.2-1.4-1.9-2c-0.7-0.6-1.5-1-2.3-1.3c-0.8-0.3-1.6-0.5-2.5-0.5l-16.5,0
		c-1,0-1.9,0.2-2.8,0.6c-0.8,0.4-1.5,1-2.1,1.8c-0.6,0.7-1,1.6-1.2,2.6c-0.2,1-0.3,2.1-0.1,3.2c0.2,1.1,0.5,2.2,1,3.2
		c0.5,1,1.2,1.9,1.9,2.6c0.8,0.7,1.6,1.3,2.6,1.8c0.9,0.4,1.9,0.6,2.9,0.6l19.6,0c2.5,0,4.9,0.3,7.3,0.9c2.4,0.6,4.7,1.5,7,2.6
		c2.2,1.1,4.4,2.5,6.4,4.1C242.7,117.4,244.6,119.2,246.3,121.2 M254.1,177.1l-1.5-11c-0.7,1.2-1.5,2.4-2.3,3.5
		c-0.8,1.1-1.8,2.1-2.8,3c-1,0.9-2.1,1.8-3.2,2.6c-1.1,0.8-2.3,1.4-3.6,2L254.1,177.1"/>
	<linearGradient id="SVGID_34_" gradientUnits="userSpaceOnUse" x1="128.095" y1="-1.9562" x2="131.895" y2="215.7444">
		<stop  offset="0.6" style="stop-color:#7D858B"/>
		<stop  offset="1" style="stop-color:#5D6770"/>
	</linearGradient>
	<path class="st19" d="M111.3,207.6c-9.4,0.1-18.6-1.5-27.1-4.5c-8.6-3-16.6-7.5-23.5-13c-6.9-5.5-12.8-12.2-17.3-19.6
		c-4.4-7.4-7.4-15.5-8.5-24.1L16,0L0,9.8l18.6,145.6c1.1,8.5,4,16.6,8.4,23.9c4.4,7.3,10.3,13.9,17.2,19.4
		c6.9,5.5,14.8,9.9,23.4,12.9c8.5,3,17.7,4.6,27,4.4l148.1-2.2l17.4-8.2L111.3,207.6z"/>
</g>
</svg>
